<?xml version="1.0" standalone="no"?>
<!DOCTYPE svg PUBLIC "-//W3C//DTD SVG 1.1//EN" "http://www.w3.org/Graphics/SVG/1.1/DTD/svg11.dtd" >
<svg xmlns="http://www.w3.org/2000/svg" xmlns:xlink="http://www.w3.org/1999/xlink" version="1.1">
<metadata></metadata>
<defs>
<font id="buttermilkregular" horiz-adv-x="1282" >
<font-face units-per-em="2048" ascent="1536" descent="-512" />
<missing-glyph horiz-adv-x="419" />
<glyph unicode="ft" horiz-adv-x="856" d="M-604 -406q0 56 22 101q19 42 57 65t79 23q72 0 102 -55l-2 -2q8 -20 8 -37q0 -35 -25.5 -59.5t-60.5 -24.5t-60.5 24.5t-25.5 59.5q0 37 31 65q-58 -17 -80 -69q-21 -47 -21 -91q0 -100 88 -169q41 -23 79.5 -20t69 18t57.5 44t45.5 58t31.5 61q44 99 270 826 q24 76 89.5 283t93.5 298q-35 15 -41 17q-56 24 -72 26q-8 2 -25 2q-36 0 -59 -20q4 2 16 2q29 0 49.5 -20.5t20.5 -49.5t-20.5 -49t-49.5 -20q-45 0 -61 37h-2q-10 17 -10 34q0 41 28 72q34 39 88 39q5 0 14.5 -1t14.5 -1q23 -5 76 -29q2 -1 17.5 -6.5t23.5 -7.5 q74 231 88 270q2 4 13.5 33.5t14 35t13.5 30.5t15.5 32.5t15.5 27.5t19 30t20.5 26t26 28.5t28.5 24.5q88 73 190 78q12 2 39 2q182 0 266 -115q32 -45 34 -75l-1 -4q-8 -4 -17 7.5t-19 30t-34.5 41t-58.5 35.5q-54 17 -97.5 11t-81 -35.5t-62 -63.5t-41.5 -73 q-9 -18 -152 -453q75 -14 127 -14v-25q-58 0 -135 17q-32 -96 -68.5 -208t-64 -197t-33.5 -103q-201 -665 -223 -719q-2 -4 -13.5 -33.5t-14 -35t-13.5 -30.5t-15.5 -32.5t-15.5 -27.5t-19 -30t-20.5 -26t-26 -28.5t-28.5 -24.5q-88 -73 -193 -78q-12 -2 -37 -2 q-117 0 -199.5 73t-82.5 176zM422.5 160.5q-6.5 47.5 13.5 103.5q19 53 184 533t177 512q21 52 -8 82t-66 4q-5 -2 -10 4t-2 10q22 22 64.5 35t96 4t91.5 -47q85 -82 18 -285q-7 -17 -80 -233q78 3 127 14q46 12 76 33q-28 0 -47 20t-19 49t20.5 49.5t49.5 20.5t49.5 -20.5 t20.5 -49.5q0 -25 -17 -45q-12 -20 -22 -28q-23 -23 -66 -39q-66 -27 -180 -27q-252 -741 -252 -743q-13 -41 10.5 -65t67.5 -3q5 2 4 0q-6 -10 -36 -30q-3 -2 -5 -3q-18 -9 -43 -13.5t-64 0.5t-73 26q-31 18 -52 51t-27.5 80.5zM559 10q30 -12 64 -12q80 0 157 61 q76 63 117 158l-23 8q-37 -87 -110 -147q-71 -55 -141 -55q-26 0 -56 10z" />
<glyph unicode="&#xfb01;" horiz-adv-x="860" d="M-596 -410q0 54 23 101q19 42 56.5 65t78.5 23q73 0 100 -55v-3q8 -20 8 -36q0 -35 -25.5 -59.5t-60.5 -24.5t-60.5 24.5t-25.5 59.5q0 37 31 65q-58 -17 -80 -69q-20 -44 -20 -91q0 -101 88 -170q41 -23 79.5 -20t69 18t57 44.5t44.5 58.5t32 61q31 70 271 826 q181 588 223 698q23 59 31 79t29.5 62t45.5 70.5t58 56.5q81 67 190 78q7 0 20 1t19 1q117 0 200 -73.5t83 -176.5q0 -53 -23 -100q-19 -42 -56.5 -65t-78.5 -23q-73 0 -100 55q-9 27 -9 37q0 35 25.5 60.5t60.5 25.5t60.5 -25.5t25.5 -60.5q0 -36 -28 -64q54 18 80 70 q18 46 18 90q0 102 -88 168q-34 18 -66.5 20.5t-60 -8.5t-51.5 -29t-44 -43.5t-34.5 -49.5t-26.5 -50q-37 -93 -127 -370h170v-23h-178q-18 -56 -133 -411q-201 -665 -223 -719q-3 -6 -14 -34t-14 -35t-13 -30.5t-15 -32t-15.5 -28t-19.5 -30t-21 -26t-25.5 -28.5t-28.5 -25 q-89 -72 -192 -77q-12 -2 -37 -2q-117 0 -200 73t-83 176zM455 164q-6 47 14 102q28 82 102 277q21 53 -7.5 82.5t-65.5 5.5q-2 -2 -6 0.5t-5.5 6t0.5 5.5q21 23 63 36t95.5 4t91.5 -46q86 -86 17 -285q-73 -205 -82 -231q-11 -39 10 -60t57 -4q41 26 78 70t60 94l22 -10 q-41 -85 -110 -146.5t-142 -62.5q-1 0 -4 1t-4 1q-60 0 -107 29q-30 19 -50.5 51.5t-26.5 79.5z" />
<glyph unicode="&#xfb02;" horiz-adv-x="874" d="M-657 -406q0 56 22 101q19 42 56.5 65t78.5 23q74 0 101 -55v-2q8 -20 8 -37q0 -35 -25.5 -59.5t-60.5 -24.5t-60.5 24.5t-25.5 59.5q0 37 31 65q-58 -17 -80 -69q-21 -47 -21 -91q0 -100 88 -169q41 -23 79.5 -20t69 18t57.5 44t45.5 58t31.5 61q28 62 270 826 q230 749 279 876q2 4 13.5 33.5t14 35t13.5 30.5t15.5 32.5t15.5 27.5t19 30t20.5 26t26 28.5t28.5 24.5q88 73 190 78q12 2 39 2q182 0 266 -115q32 -45 34 -75l-1 -4q-8 -4 -17 7.5t-19 30t-34.5 41t-58.5 35.5q-54 17 -98 11t-81 -35.5t-62 -63.5t-42 -73 q-21 -45 -184 -549h170v-23h-178q-18 -56 -133 -411q-198 -654 -224 -719l-15 -37.5t-16 -39t-15 -33.5t-18 -36t-18.5 -30.5t-23.5 -33.5t-26.5 -28t-32.5 -30q-91 -73 -193 -78q-12 -2 -37 -2q-117 0 -199.5 73t-82.5 176zM437 162q-6 47 14 102q339 989 360 1041 q20 52 -9.5 81t-66.5 5q-3 -2 -8.5 4t-1.5 10q21 22 63 35t95.5 4t91.5 -47q85 -85 16 -283q-56 -162 -338 -995q-13 -40 10 -64t66 -6q50 28 92 74t66 104l22 -10q-40 -95 -117 -156t-157 -61q-3 0 -11 1t-12 1q-47 0 -98 29q-30 19 -50.5 51.5t-26.5 79.5z" />
<glyph horiz-adv-x="0" />
<glyph horiz-adv-x="682" />
<glyph unicode=" "  horiz-adv-x="419" />
<glyph unicode="&#x09;" horiz-adv-x="419" />
<glyph unicode="&#xa0;" horiz-adv-x="419" />
<glyph unicode="!" horiz-adv-x="751" d="M143 113q0 -46 34 -79.5t81 -33.5t80 33.5t33 79.5q0 47 -33 80.5t-80 33.5t-81 -33.5t-34 -80.5zM271.5 508.5q-0.5 63.5 14.5 147t31.5 146.5t47 150.5t49 134.5t50 123.5t38.5 94.5q21 52 -9 81t-67 5q-3 -2 -8.5 4t-1.5 10q21 22 63 35t95.5 4t91.5 -47 q85 -85 16 -283q-35 -103 -120 -290t-152 -341t-76 -215q-33 47 -47.5 112t-15 128.5z" />
<glyph unicode="&#x22;" horiz-adv-x="727" d="M193 1337q0 46 32 78.5t78 32.5q52 0 84.5 -41t32.5 -96q0 -67 -48 -124t-118 -63q-8 0 -12 13q0 10 12 10q59 6 102 55q26 29 35 70q-31 -45 -88 -45q-46 0 -78 32t-32 78zM459 1337q0 46 32 78.5t78 32.5q52 0 84.5 -41t32.5 -96q0 -67 -48 -124t-118 -63q-8 0 -12 13 q0 10 12 10q60 6 103 55q25 28 34 70q-31 -45 -88 -45q-46 0 -78 32t-32 78z" />
<glyph unicode="#" horiz-adv-x="1705" d="M-379 221q0 47 23 101q27 53 73 77.5t97 24.5q53 0 94 -23q45 -27 45 -75q0 -35 -25.5 -60.5t-60.5 -25.5t-60.5 25.5t-25.5 60.5q0 48 45 75h-12q-104 0 -148 -90q-22 -43 -22 -90q0 -79 57 -136.5t141 -57.5h25q95 10 155 86t125 264q105 321 318 942q3 41 -24 59.5 t-58 -2.5q-5 -2 -10 4.5t-2 10.5q24 24 66 41t96.5 8.5t89.5 -58.5q25 -35 36 -139t23 -326q1 -18 1.5 -28t1 -26t1.5 -29q5 -103 14.5 -231t18.5 -245t12 -155q282 838 305 909q61 182 125 251.5t164 80.5h23q92 0 158.5 -66t66.5 -157q0 -44 -23 -95q-26 -53 -71.5 -77.5 t-96.5 -24.5q-56 0 -94 23q-45 23 -45 75q0 35 25.5 60.5t60.5 25.5t60.5 -25.5t25.5 -60.5q0 -52 -45 -75h12q104 0 148 90q20 41 20 84q0 80 -60.5 140t-141.5 60h-21q-63 -8 -104 -33t-82 -92.5t-82 -191.5q-40 -114 -176 -520t-156 -465q-8 -46 17 -74t57 -8 q2 2 5.5 -0.5t5 -6t-0.5 -5.5q-21 -23 -64.5 -37t-98 -5t-89.5 48q-38 45 -52.5 168.5t-37.5 539.5q-16 318 -12 484q-196 -575 -289 -852q-64 -191 -130 -273t-169 -94q-4 0 -13.5 -1t-13.5 -1q-94 0 -157.5 65t-63.5 154zM885 152q0 4 3.5 8t8.5 4h670q10 0 10 -12 q0 -11 -10 -11h-670q-12 0 -12 11zM995 625.5q44 161.5 144 242.5q60 47 127 64.5t113.5 11.5t84.5 -24q109 -45 152 -164q19 -57 12 -133q68 30 139 86q5 -5 9 -10.5t8 -8.5q-73 -60 -160 -96q-19 -115 -90 -215q-128 -184 -383 -129l4 2q-106 21 -154 117q-50 95 -6 256.5 zM1149.5 325.5q10.5 -40.5 48.5 -49.5q29 -4 56 11t47.5 39t42.5 67t36.5 78t34.5 88q-97 16 -135 103q-18 40 -18 77q0 2 1 6.5t1 6.5q-33 -64 -56 -127q-40 -115 -54.5 -187t-4 -112.5zM1286 739q0 -35 14 -67q37 -75 123 -90q0 2 4 10q92 258 19 303q-6 2 -21 2 q-52 0 -95.5 -47.5t-43.5 -110.5zM1554 311q0 20 15 34.5t35 14.5t34.5 -14.5t14.5 -34.5q0 -21 -14 -35t-35 -14t-35.5 14t-14.5 35z" />
<glyph unicode="$" horiz-adv-x="1280" d="M115 430q0 67 28 143q36 87 105.5 129.5t150.5 42.5q95 0 169 -51t75 -127q0 -21 -6 -39q0 -4 -4 -8q-24 -46 -76 -49q-35 0 -61 24.5t-27 59.5q0 35 24.5 61t59.5 27q29 0 49 -14q-18 28 -49 49q-68 45 -154 45q-75 0 -137.5 -39t-95.5 -121q-27 -67 -27 -133 q0 -103 61 -195t160 -147l156 336q2 3 6.5 5t7.5 -1q10 -4 7 -14l-156 -338q7 -3 22.5 -10.5t22.5 -10.5q45 -13 96.5 -14.5t106 12t100 41.5t79 79.5t42.5 119.5q7 44 7 87t-3.5 77.5t-15 75t-21 68t-30 70t-33 66l-37.5 70.5l-55 -123q-3 -6 -11 -6h-6q-3 2 -5 6.5t1 7.5 l64 139q-12 23 -37 69t-29 54q-46 95 -53 180t18.5 149.5t79.5 113.5q48 43 107.5 66.5t101 24t74.5 -0.5h4q23 0 35 -2l20 45l70 151q4 10 14 7q4 -1 6 -6.5t0 -8.5l-69 -151l-19 -41q94 -17 144.5 -85t50.5 -145q0 -38 -17 -77q-21 -44 -57.5 -66.5t-75.5 -22.5 q-51 0 -82 31q-4 4 -6 8h-2q-19 22 -22 56q0 35 24 61t59 27q35 0 61.5 -24.5t27.5 -59.5q0 -49 -39 -74q59 10 92 74q14 32 14 67q-2 72 -48 133.5t-134 75.5l-19 -43l-163 -354q22 -44 73 -138t81 -153.5t57.5 -145t29.5 -159.5q3 -127 -40 -226t-140 -163t-238 -74 q-36 -4 -55 -4q-123 0 -233 55l-78 -168q-4 -8 -10 -8l-4 2q-4 1 -6.5 6.5t-0.5 8.5l78 170q-105 59 -169.5 155t-65.5 209zM775 1244.5q4 -41.5 18 -79.5q9 -27 30 -75l156 337l16 35q-8 2 -24 2q-11 0 -15 -2q-39 0 -84 -10q-40 -16 -64.5 -50t-30.5 -75t-2 -82.5z" />
<glyph unicode="%" horiz-adv-x="1021" d="M57 152q0 8 12 7q5 0 5 -3q9 -26 31.5 -35t46.5 5.5t36 49.5q17 60 110 317.5t176.5 485t86.5 233.5q69 201 189 215q79 8 138 -45t64 -106q0 -3 -4 -4.5t-8 -1.5t-4 2q-9 27 -31.5 35.5t-47 -6.5t-36.5 -50q-2 -5 -90 -253.5t-180.5 -507.5t-99.5 -279 q-73 -200 -193 -211q-78 -8 -137.5 46.5t-63.5 105.5zM115.5 1232.5q19.5 83.5 74.5 125.5q31 25 70.5 34t67.5 4.5t47 -14.5q25 -7 51 -31t37 -59q13 -49 -0.5 -106t-42.5 -99q-23 -35 -60.5 -53.5t-75 -18t-75.5 10.5q-55 14 -80 61q-33 62 -13.5 145.5zM204.5 1099.5 q0.5 -36.5 35.5 -44.5q17 -3 33 7.5t30 35t23 43.5t22 53q14 31 22.5 64.5t7 62.5t-17.5 37q-14 5 -30.5 -1.5t-41.5 -39t-48 -90.5q-36 -91 -35.5 -127.5zM556 241.5q20 83.5 75 125.5q31 25 70 34t67 4.5t47 -14.5q25 -7 51 -31t37 -59q13 -49 -0.5 -106t-42.5 -99 q-23 -35 -60.5 -53.5t-75 -18t-75.5 10.5q-55 14 -80 61q-33 62 -13 145.5zM644.5 108q0.5 -37 35.5 -45q23 -4 45 20t33.5 49t29.5 71q14 31 23 64.5t7.5 62.5t-17.5 37q-14 5 -31 -1.5t-42 -39t-48 -90.5q-36 -91 -35.5 -128z" />
<glyph unicode="&#x26;" horiz-adv-x="1318" d="M92 428q-4 75 12.5 146t51.5 138t81.5 119.5t106 88.5t123.5 47q-4 6 -10.5 16.5t-19 44.5t-17.5 70.5t2.5 91t32.5 108.5q23 50 60.5 89t82.5 61.5t86.5 37.5t87.5 20.5t71 7.5t50 2h4q100 0 177.5 -47t111.5 -126q33 -73 33 -141q0 -115 -82 -185.5t-181 -70.5 q-85 0 -133 51q-13 10 -24 33q0 1 -1 3t-1 3q-4 16 -4 27q0 35 25.5 59.5t60.5 24.5t60.5 -24.5t25.5 -59.5q0 -30 -19 -54t-47 -30q24 -8 57 -8q91 0 164.5 63.5t73.5 167.5q0 62 -29 133q-31 70 -103 113t-165 43h-33q-152 -21 -227 -172q-47 -101 -35 -197.5t48 -165.5 t69 -82l-2 -12q-129 -8 -230.5 -92.5t-134.5 -222.5q-13 -72 -10.5 -145t30.5 -141t68.5 -120.5t103.5 -83.5t136 -30q93 10 170 45q147 63 211 196q47 94 47 199q0 89 -37 172q-26 62 -63 88q-12 -2 -68 -9t-84 -13q-150 -27 -229 -109q-56 -62 -56 -137q0 -68 35 -115 q-2 8 -2 23q0 44 31.5 75t75.5 31t75 -31t31 -75q0 -43 -31 -75t-75 -32q-27 0 -52 14q-38 15 -65 50q-45 54 -45 135q0 84 61 151q84 89 242 117q16 3 125 18t170 31q85 21 133 72q14 17 25 35q-26 -13 -41 -13q-31 0 -52.5 21.5t-21.5 52.5t21.5 52.5t52.5 21.5 q46 0 65 -39q0 -1 1 -3t1 -3q8 -13 8 -39q0 -54 -43 -100q-52 -59 -145 -80q-50 -13 -113 -23q30 -30 54 -82q38 -81 38 -182q0 -105 -49 -209q-68 -139 -221 -207q-118 -51 -258 -51q-52 0 -86 6q-51 3 -100.5 17t-105.5 43t-105.5 86t-81.5 135q-27 66 -31 141zM516 6z M797 915z" />
<glyph unicode="'" horiz-adv-x="270" d="M258 1339q0 46 32.5 78.5t78.5 32.5q52 0 84 -41t32 -96q0 -67 -48 -124t-118 -63q-8 0 -12 13q0 10 12 10q60 6 103 55q26 29 35 70q-31 -45 -88 -45q-46 0 -78.5 32t-32.5 78z" />
<glyph unicode="(" horiz-adv-x="548" d="M27 74q-20 154 28.5 377t135 425t182.5 334q62 85 131 141.5t128 79t115 26t96 -8.5t66 -33v-4q-22 10 -48.5 10.5t-61.5 -13t-72.5 -41.5t-82.5 -80t-91 -123.5t-98 -177t-103 -234.5q-102 -260 -143.5 -475t-21.5 -342t92 -158v-2h-12t-30.5 5t-44 14.5t-49 31.5 t-49 52.5t-40.5 81.5t-27 114z" />
<glyph unicode=")" horiz-adv-x="798" d="M-96 -178q22 -10 48.5 -10.5t61.5 13t72.5 41.5t82.5 80t91 123.5t98 177t103 234.5q102 260 144 475t22 342t-92 158v2h12t30.5 -5t43.5 -14.5t48.5 -31.5t49 -52.5t40.5 -81.5t27 -114q20 -154 -28.5 -377t-135 -425t-182.5 -334q-62 -85 -131 -141.5t-128 -79 t-115 -26t-96 8.5t-66 33v4z" />
<glyph unicode="*" horiz-adv-x="223" d="M206.5 1297q3.5 12 14.5 18q22 11 78 16q-18 3 -44.5 12t-33.5 15q-9 8 -11 20t5 23q7 10 20 12t23 -6q15 -9 49 -66q-24 55 -24 78q0 12 9.5 21.5t22.5 9.5q12 0 21.5 -9.5t9.5 -21.5q0 -7 -20 -65q33 47 43 53q9 8 22.5 6t20.5 -12q7 -11 4.5 -23t-13.5 -20 q-8 -6 -33 -15t-44 -12q58 -5 77 -16q12 -6 15.5 -18.5t-2.5 -22.5q-6 -12 -18.5 -15t-22.5 3q-16 6 -49 49q20 -57 20 -70q0 -12 -9.5 -21.5t-21.5 -9.5q-13 0 -22.5 9.5t-9.5 21.5q0 21 24 76q-39 -49 -55 -55q-10 -6 -23.5 -3t-19.5 15q-6 11 -2.5 23z" />
<glyph unicode="," horiz-adv-x="327" d="M45 117q0 46 32.5 78t78.5 32q35 0 63.5 -20t40.5 -51v-2q12 -30 12 -64q0 -72 -47 -125q-49 -55 -116 -61h-3q-10 0 -10 10q-1 4 2 8t8 4q62 6 103 54q26 33 35 69q-29 -43 -88 -43q-46 0 -78.5 32.5t-32.5 78.5z" />
<glyph unicode="-" horiz-adv-x="356" d="M96 371v35h158v-35h-158z" />
<glyph unicode="." horiz-adv-x="376" d="M57 113q0 47 33 80.5t80 33.5t81 -33.5t34 -80.5q0 -46 -34 -79.5t-81 -33.5t-80 33.5t-33 79.5z" />
<glyph unicode="/" horiz-adv-x="817" d="M-61 -88q0 8 11 7q5 0 5 -3q7 -19 22.5 -29t32.5 -8.5t34 17t26 41.5q8 28 279.5 769t275.5 750q69 201 188 215q79 8 138.5 -45t64.5 -106q0 -3 -4 -4.5t-8.5 -1.5t-4.5 2q-9 27 -31.5 35.5t-46.5 -6.5t-36 -50q-2 -5 -136 -374.5t-271.5 -748.5t-145.5 -401 q-73 -200 -193 -211q-78 -8 -137 46.5t-63 105.5z" />
<glyph unicode="0" horiz-adv-x="1214" d="M57 601.5q13 101.5 32.5 180t47.5 154.5q58 155 129.5 257t167.5 177q83 64 185 90t181.5 19.5t145.5 -31.5q93 -28 152.5 -88.5t75.5 -132.5q8 -62 8 -84q0 -89 -43.5 -155.5t-105 -97t-128.5 -30.5q-102 -3 -157 68q-25 25 -25 59q0 35 24.5 59.5t59.5 24.5 q34 0 58 -24.5t24 -59.5q0 -32 -23 -56.5t-55 -25.5q42 -22 94 -22q97 0 174.5 69t77.5 191q0 42 -8 78q-11 58 -55 109t-115 81q-341 99 -604 -506q-59 -138 -93 -278.5t-38.5 -264.5t36 -213t126.5 -114q36 -8 77 -8q127 0 236 79q115 81 221 267q84 150 141 338 q36 127 41 198l23 -2q-5 -72 -43 -202q-55 -186 -144 -345q-102 -183 -225 -270q-117 -86 -250 -86q-66 0 -139 25q-141 44 -219 182q-48 83 -64.5 186t-3.5 204.5zM344 29z" />
<glyph unicode="1" horiz-adv-x="667" d="M92 336q51 148 314 950q-149 -78 -287 -96h-2q-10 0 -13 10q0 12 11 12q155 20 319 115q52 31 105 70q14 11 40 31.5t36.5 28.5t25 16.5t25.5 11.5q22 5 31.5 -4t9.5 -21q0 -8 -212.5 -651t-220.5 -664q-20 -54 9 -83t67 -3q3 2 8 -4t2 -10q-21 -23 -63 -36t-95.5 -3.5 t-92.5 47.5q-83 81 -17 283z" />
<glyph unicode="2" horiz-adv-x="1120" d="M41 23q-16 105 10 202t72.5 164.5t121.5 133t131.5 101t127.5 74.5q18 9 66 34.5t61.5 33t51 28t49 29t39 27t37.5 29.5t29 29.5t28 35t20 37.5t20 45q28 85 21 156t-44 128t-86 95t-104 57q-130 35 -254.5 -1.5t-195.5 -135.5q-38 -54 -56 -123q-21 -84 8 -152.5 t91 -111.5q73 -51 151 -51q37 -3 66 10q-25 0 -47 16q-28 22 -33 57t16 64q22 28 56.5 33t62.5 -16q43 -32 33 -84v-9q-6 -18 -19 -34q-49 -62 -136 -61t-165 57q-65 46 -96.5 121.5t-9.5 166.5q18 75 59 131q67 93 180 134.5t238 24t227 -90.5q7 -6 21.5 -18.5t21.5 -18.5 q80 -66 124 -156t48 -177.5t-22 -169.5t-78 -138q-47 -52 -121.5 -102.5t-142.5 -86t-201 -100.5q-25 -12 -37 -18q-295 -144 -383 -307q20 19 37 32q46 27 103 27q20 0 32 -2q42 -5 97 -33q17 -8 50.5 -29t39.5 -24q41 -22 71 -34.5t79 -24t102 -11.5q97 0 163 62 q44 44 50 100q-14 -25 -40.5 -40t-58.5 -15q-46 0 -79 33t-33 80t33 79.5t79 32.5q42 0 72 -24v2q51 -45 51 -121q0 -85 -59 -144q-67 -67 -178 -67h-2q-61 0 -118.5 15t-89.5 30.5t-80 43.5t-65 36q-47 26 -86 31q-12 2 -30 2q-50 0 -88 -23q-33 -23 -50 -51 q-11 -16 -18.5 -35.5t-10.5 -32.5l-3 -14l-23 4q2 4 2 14q-1 2 -3.5 5t-2.5 4z" />
<glyph unicode="3" horiz-adv-x="1095" d="M-47 436v17q9 140 96 227q83 80 195 80q72 0 139 -39q42 -27 64 -66t22 -80q0 -53 -33 -98t-84 -45h-8h-2q-38 0 -65 27t-27 65t27 65t65 27t65 -27t27 -65v-6q12 24 12 57q0 78 -75 125q-58 37 -127 37q-102 0 -178 -73q-83 -83 -91 -211v-17q0 -129 93 -241 q56 -57 146 -70.5t178.5 12.5t165.5 91t108 153q47 128 21.5 257.5t-116.5 213.5l7 12q24 -7 72.5 9t103 49.5t103.5 96.5t67 138q21 91 -10 168.5t-95 114.5q-62 24 -155 24h-7q-126 0 -200 -71q-64 -64 -64 -142v-18q9 28 33 45.5t55 17.5q38 0 65 -27t27 -65t-27 -65 t-65 -27q-53 0 -80 45q-3 4 -8 12.5t-8 12.5q-14 28 -14 69q0 89 69 158q85 78 217 78h7q141 0 221 -57q12 -9 24 -21q75 -64 122.5 -170.5t19.5 -214.5q-15 -58 -43 -105t-58 -73t-58 -43.5t-46 -22.5l-17 -6q64 -73 85 -185t0 -221t-87 -203.5t-163 -131.5 q-177 -66 -351 -18.5t-272 178.5q-88 116 -88 243z" />
<glyph unicode="4" horiz-adv-x="1130" d="M80 727q-4 11 6 14q13 7 23 9q131 57 227 198q92 139 92 254q0 42 -10 64q2 -4 2 -9q0 -47 -34 -80.5t-81 -33.5t-79.5 33.5t-32.5 80.5q0 46 32.5 79.5t79.5 33.5q42 0 72 -24q20 -9 37 -29q37 -40 37 -115q0 -121 -97 -266q-66 -101 -164 -168q20 4 64 4q104 0 217 -45 q187 561 193 573q20 54 -9 83.5t-67 5.5q-2 -2 -5.5 0t-5 5.5t0.5 6.5q21 23 63 36t95.5 3.5t92.5 -47.5q83 -81 17 -283q-8 -23 -160 -473q96 -35 160 -35q104 0 164 60q42 45 51 102q-33 -57 -98 -57q-47 0 -80 33.5t-33 80.5q0 46 33 79.5t80 33.5q37 0 67 -23q2 0 4 -2 q51 -42 51 -121q0 -85 -59 -141q-64 -67 -180 -67q-73 0 -166 34q-154 -447 -160 -473q-20 -54 9 -83t67 -5q2 2 5.5 -0.5t5 -6t-0.5 -5.5q-22 -23 -64 -36t-95.5 -4t-92.5 46q-82 82 -16 285q1 4 20 59t49 144t58 172q-117 43 -211 43q-66 0 -137 -21q-2 -2 -4 -2h-2 q-3 -1 -8.5 -3t-8.5 -3q-11 -4 -14 6z" />
<glyph unicode="5" horiz-adv-x="997" d="M33 352q0 83 35 148q16 29 34 47q19 25 48 37q12 8 20 10q7 3 12 -2q2 2 11 2q47 0 80.5 -34t33.5 -81q0 -46 -33.5 -79t-80.5 -33q-44 0 -77 30.5t-36 73.5q-25 -55 -25 -119q0 -60 22 -120.5t62 -106.5q83 -90 215 -107q52 -1 97 23.5t78 62t63 95.5t50.5 112.5 t41.5 124.5q32 108 34 214t-33 190.5t-105 113.5q-54 13 -95 13q-65 0 -130 -22t-92 -39t-42 -29q-8 -8 -16 0q-6 8 2 16l2 2q16 50 33 109.5t29.5 109t23 92t16.5 68t6 26.5q20 54 -8.5 83.5t-66.5 5.5q-2 -2 -5.5 0t-5.5 5.5t0 6.5q30 32 89.5 41t123.5 -21 q64 -26 113 -26q26 0 84 20q68 23 111 27q10 2 28 2q100 0 158 -58q51 -51 51 -124q0 -70 -49 -113q-36 -25 -72 -25q-46 0 -79 34t-33 81q0 46 33 79.5t79 33.5q61 0 93 -47q-10 39 -39 65q-51 51 -142 51q-16 0 -26 -2q-41 -2 -105 -24q-56 -23 -92 -23q-32 0 -63 10 q68 -85 6 -272q-12 -35 -45 -123h6l-4 2q86 8 164.5 -9.5t144.5 -59t109 -115.5t51 -172q17 -177 -49.5 -338t-171.5 -234q-126 -88 -322 -67q-166 9 -260 117q-90 100 -90 241z" />
<glyph unicode="6" horiz-adv-x="1062" d="M61 601.5q13 101.5 32.5 180t47.5 154.5q58 155 129.5 257t167.5 177q74 57 162 85t160 25.5t139 -16.5q58 -8 107 -37v-2q14 -8 38 -28q68 -62 68 -154q0 -52 -22 -92q-25 -41 -62 -62.5t-76 -21.5q-30 0 -47 10q-28 9 -45.5 32.5t-17.5 53.5q0 38 27 65t65 27t65 -27 t27 -65t-27 -65q45 17 70 65q23 41 23 80q0 78 -62 137q-12 12 -24 21q-4 2 -11.5 5t-11.5 5q-341 99 -604 -506q-59 -138 -93 -277.5t-39 -263t35.5 -213t125.5 -116.5q34 -6 69 -6q121 0 219 82q106 96 152 258q26 95 26 180q0 134 -63 219q-65 84 -176 96h-17 q-71 0 -126 -55q-17 -17 -23 -27q22 11 43 11q38 0 65 -27.5t27 -65.5t-27 -65t-65 -27q-35 0 -68 29q-26 26 -26 65q0 64 59 123q62 62 141 62q13 0 19 -2q121 -12 192 -105q68 -93 68 -231q0 -77 -29 -187q-52 -177 -157 -268q-101 -88 -234 -88q-58 0 -129 23 q-141 44 -219 182q-48 83 -64.5 186t-3.5 204.5zM348 29z" />
<glyph unicode="7" horiz-adv-x="1011" d="M64 273q4 87 38 187.5t92.5 200.5t162 204t239.5 190q239 151 338 270q-39 -22 -92 -22q-23 0 -35 2q-46 6 -94 32q-16 8 -46.5 27t-45.5 27q-123 69 -252 69q-106 0 -164 -61q-41 -41 -51 -101q33 58 98 58q47 0 81 -34t34 -81q0 -46 -34 -79.5t-81 -33.5q-42 0 -70 25 v-2q-53 47 -53 123q0 82 59 141q65 68 181 68q62 0 120 -15t88 -29t81.5 -44t64.5 -37q56 -27 88 -31q10 -2 31 -2q48 0 86 23q29 17 51 51q11 17 18.5 36.5t10.5 32.5l4 13l20 -2v-17l6 -6q14 -88 -6 -171.5t-58 -144.5t-98.5 -125t-112 -104.5t-116.5 -90.5t-94 -77 q-63 -58 -117.5 -116.5t-94 -106t-73 -101.5t-54 -89.5t-38.5 -84.5t-26.5 -71t-16.5 -65t-9 -51t-5 -43q-1 -10 -2 -15q-30 47 -43.5 116.5t-9.5 156.5z" />
<glyph unicode="8" horiz-adv-x="1071" d="M31 333q-7 72 22.5 163t98.5 180q44 55 65 76q32 32 64 57q133 117 346 229v2q-45 113 -45 189q0 74 34 141q26 54 89 80q55 27 122 27q58 0 103 -23q48 -22 63 -72q4 -16 4 -24q0 -32 -23.5 -55t-55.5 -23q-14 0 -29 6q-31 14 -31 47q0 22 14.5 36.5t36.5 14.5t37 -14.5 t15 -36.5q0 -8 -3 -14q17 17 17 39q0 12 -2 16q-12 41 -53 62q-45 20 -93 20q-57 0 -114 -26q-54 -23 -76 -68q-33 -62 -33 -133q0 -72 43 -180q116 60 201.5 116.5t129.5 96.5t72.5 78t35.5 60.5t12.5 44t9.5 28.5q0 -2 8 -9t8 -8q14 -86 -5.5 -167t-57 -142t-98 -121 t-114 -99.5t-120.5 -80.5q0 -2 1 -4.5t1 -3.5q70 -200 70 -383q0 -182 -76 -295q-86 -136 -268 -164q-37 -6 -70 -6q-95 0 -174 45q-42 19 -81 59.5t-66.5 103.5t-34.5 135zM172 175.5q12 -86.5 82 -136.5q62 -27 133 -27q43 0 66 4q174 28 254 156q71 109 71 283 q0 176 -67 374q0 1 -1 2.5t-1 2.5q-54 -33 -103 -62q-151 -91 -256.5 -201t-147.5 -209.5t-30 -186z" />
<glyph unicode="9" horiz-adv-x="1054" d="M-33 246q0 47 25 92q24 42 60.5 64t74.5 22q26 0 49 -10q28 -9 46 -33.5t18 -54.5q0 -37 -28 -65t-65 -28q-38 0 -65 28t-27 65t27 67q-48 -21 -72 -65q-20 -36 -20 -82q0 -79 61 -137q4 -3 12.5 -10.5t12.5 -10.5v2q10 -7 20 -10q43 -13 85.5 -14t80 9t73.5 27.5t69 44 t63 56.5t57.5 67.5t51.5 75t47 80t41 81t36 79.5q59 137 93.5 277t39 263.5t-35 212.5t-123.5 115q-33 8 -70 8q-126 0 -219 -84q-104 -86 -152 -258q-26 -91 -26 -178q0 -138 63 -219q63 -84 174 -96h17q72 0 127 55q14 14 22 27q-20 -13 -41 -13q-38 0 -65 27.5t-27 64.5 q0 38 27 65.5t65 27.5q40 0 66 -29v2q27 -27 27 -66q0 -64 -58 -122q-66 -62 -143 -62h-19q-116 11 -190 105q-68 89 -68 233q0 85 27 184q51 176 158 269q104 88 235 88q62 0 127 -21q143 -47 221 -182q48 -84 64.5 -187t3.5 -204.5t-32.5 -180t-47.5 -153.5 q-58 -155 -130 -257t-169 -177q-73 -57 -161 -85t-160 -25.5t-140 16.5q-60 9 -104 36h-2q-19 11 -37 29q-70 67 -70 154z" />
<glyph unicode=":" horiz-adv-x="335" d="M18 113q0 46 33.5 79t79.5 33q47 0 81 -33t34 -79q0 -47 -34 -81t-81 -34q-46 0 -79.5 34t-33.5 81zM129 518q0 46 33.5 79.5t79.5 33.5q47 0 80.5 -33.5t33.5 -79.5q0 -47 -33.5 -81t-80.5 -34q-46 0 -79.5 34t-33.5 81z" />
<glyph unicode=";" horiz-adv-x="339" d="M27 109q0 46 32 78t78 32q35 0 64 -20t41 -52v-2q12 -30 12 -63q0 -70 -47 -123q-47 -57 -119 -63q-10 0 -10 12q-1 4 2 7t8 3q59 6 102 55q26 29 35 70q-31 -45 -88 -45q-46 0 -78 32.5t-32 78.5zM137 510q0 46 33.5 79.5t79.5 33.5q47 0 81 -33.5t34 -79.5 q0 -47 -34 -81t-81 -34q-46 0 -79.5 34t-33.5 81z" />
<glyph unicode="?" horiz-adv-x="1028" d="M90 1212q18 73 60 131q68 94 181.5 136.5t238.5 24t227 -92.5q15 -10 45 -35q80 -67 124 -157.5t47.5 -178.5t-22.5 -170t-78 -139q-25 -28 -59.5 -55t-61 -45t-83 -47.5t-82.5 -42t-106.5 -50t-110.5 -51.5q-146 -68 -185 -135v12q-25 112 23.5 211t183.5 172 q24 13 81 43.5t75 40t59 33.5t55.5 36t41.5 35t39.5 41.5t27 44.5t25.5 56q28 85 21 156.5t-44 128.5t-86.5 95.5t-105.5 57.5q-130 33 -255.5 -3t-197.5 -134q-37 -52 -55 -125q-20 -84 8.5 -152.5t89.5 -111.5q71 -50 154 -53q35 0 65 12q-23 0 -47 17q-29 22 -33.5 56.5 t17.5 63.5q22 28 56 33t62 -16q43 -32 33 -84v-8q-5 -18 -18 -37q-48 -61 -135.5 -59.5t-165.5 57.5q-67 46 -99 121.5t-10 166.5zM133 113q0 -46 34 -79.5t81 -33.5t79.5 33.5t32.5 79.5q0 47 -32.5 80.5t-79.5 33.5t-81 -33.5t-34 -80.5z" />
<glyph unicode="@" horiz-adv-x="1495" d="M158 270q0 78 18 160q20 94 76 183t137 157q182 150 393 150h4q259 0 408 -146q145 -139 145 -344q0 -12 -2 -18q-6 -195 -120 -306q-103 -100 -254 -100h-29h-2h-8q0 2 -2 2q-59 -4 -111 27q-4 3 -13.5 11t-13.5 11q-18 -12 -36 -18q-4 -5 -21 -10q-1 0 -4.5 -1t-5.5 -1 q-71 -27 -137 -27h-2q-114 0 -172 70q-8 8 -9 10l-2 2q-22 33 -26 41q-49 95 -0.5 260.5t149.5 247.5q63 49 134.5 61.5t122 -2.5t83.5 -43q2 -2 7 -6t7 -6q7 -7 19 -27q29 37 84 51q77 23 136.5 -12t68.5 -84q1 -3 -2.5 -4.5t-8 -1.5t-6.5 2q-19 20 -42.5 7.5t-39.5 -60.5 q-16 -39 -90 -260l2 -2l-2 -2q-8 -23 -17.5 -51.5l-15 -45t-8.5 -22.5q-11 -40 6 -65.5t66 -24.5q102 16 180 90q107 104 113 289q2 6 2 18q0 197 -137 328q-145 139 -394 139h-4q-206 0 -379 -143q-78 -66 -132 -151.5t-74 -176.5q-17 -94 -17 -156q0 -199 113 -336 q120 -139 330 -176q78 -10 131 -10q152 0 266.5 58.5t179.5 150.5q8 8 17 2q8 -8 2 -16q-69 -95 -188 -156t-277 -61q-66 0 -136 12q-219 37 -342 182q-118 142 -118 350zM556.5 114q29.5 -84 123.5 -75q42 12 88 37q-62 85 -20 194l42 112t35 93t24.5 60t24.5 49 q-4 13 -18 32q-2 2 -4.5 5t-3.5 4q-19 14 -43.5 15t-54.5 -15.5t-60 -49t-60.5 -90.5t-54.5 -133q-48 -154 -18.5 -238z" />
<glyph unicode="A" horiz-adv-x="1443" d="M111 227q0 47 22 92q26 53 70 77t92 24t92 -23q41 -26 41 -71q0 -35 -24 -59.5t-58 -24.5t-57 24.5t-23 59.5q0 45 41 71h-12q-98 0 -143 -86q-21 -47 -21 -84q0 -82 84 -143q45 -26 89 -26q54 0 106 39q94 70 155 212q6 16 154.5 445t152.5 440q9 23 9 41q1 24 -15 40 q-14 15 -32 15q-15 0 -31 -12q-6 -1 -10.5 4t-1.5 10q21 22 61 34q23 7 50 7q20 0 42 -3q52 -9 88 -46q45 -44 45 -124q0 -63 -28 -148q-20 -58 -72 -219h246q39 105 52 175q7 37 7 72q0 32 -6 64q-25 131 -131 217q-119 83 -287 92h-31q-160 0 -279.5 -84t-158.5 -192 q-20 -68 -20 -107q0 -91 55.5 -145t124.5 -54q5 0 35 5q-30 9 -48.5 33t-15.5 53q2 36 28 58q22 20 52 19h8q35 -3 57 -28q19 -22 19 -52v-8q-3 -27 -14 -43h2q-40 -57 -123 -57q-78 0 -138.5 60t-60.5 159q0 47 19 115q41 114 165.5 202.5t292.5 88.5q59 0 74 -2 q46 -1 96.5 -10.5t114 -33t119 -59t108.5 -94.5t86 -133q36 -80 40 -170q1 -15 1 -30q0 -74 -16 -144q-20 -84 -54.5 -183t-71 -186.5t-71.5 -196t-51 -200.5q-7 -47 -8 -88q0 -142 90 -207q1 0 3.5 -1t4.5 -1l-2 -2q17 -11 36 -19t30 -10l10 -2h-15q-91 0 -161 23 q-76 25 -125 82.5t-67 144.5q-8 41 -8 91q0 56 10 123q20 127 79 286q23 64 47.5 127t52 130.5l38.5 94.5l-250 2q-110 -340 -160 -463q-54 -124 -128 -198t-185 -99q-40 -10 -85 -10q-33 0 -67 5q-84 12 -129 46q-48 26 -75 74t-27 104z" />
<glyph unicode="B" horiz-adv-x="1466" d="M33 240q0 49 24 98q24 53 70 77.5t96 24.5q62 -3 99 -24q20 -10 32.5 -31.5t12.5 -44.5q0 -36 -26 -62t-60 -26q-37 0 -64 26t-27 62q0 50 46 76h-13q-104 0 -145 -90q-21 -43 -21 -86v-6q0 -87 84 -146q50 -24 95 -25q8 -1 16 1q52 6 100.5 44t86 92.5t67.5 123.5 q7 15 164.5 464.5t163.5 462.5q8 22 8 39q0 26 -18 44q-16 16 -36 16q-16 0 -34 -11q-3 -2 -8 3.5t-1 9.5q21 24 63 37q24 7 51 7q21 0 45 -4q54 -10 93 -49q50 -45 50 -128q0 -65 -31 -154q-8 -22 -58 -166q4 0 12 -1t13 -1q72 0 127.5 50t79.5 151q11 45 11 86 q0 92 -53 170q-77 112 -245 133q-12 0 -31.5 1t-27.5 1q-56 0 -117 -6q-185 -18 -305.5 -112.5t-147.5 -213.5q-14 -52 -14 -100q0 -105 60.5 -165.5t138.5 -60.5q42 0 84 27q-1 0 -4 -1t-4 -1q-33 0 -58.5 26.5t-25.5 59.5q0 36 25 62t59 26q37 0 62.5 -25.5t25.5 -62.5 q0 -8 -2 -10l2 -2q0 -1 -7 -15v-6q-23 -48 -65.5 -75t-91.5 -27q-89 2 -156 68.5t-67 181.5q0 51 14 106q32 126 158.5 225t316.5 117q62 6 119 6q119 0 221 -26q168 -41 250 -135q85 -90 96 -199q1 -14 1 -28q0 -94 -64 -179q-80 -86 -203 -90q115 -52 182 -172 q57 -92 57 -222v-9q-2 -136 -69 -248q-72 -125 -199 -173q-82 -31 -178 -32q-54 0 -113 10l-4 2q-26 4 -41 8q-102 22 -155 99q-83 -80 -193 -105q-35 -9 -73 -9q-37 1 -79 9q-84 16 -137 51q-51 30 -80.5 77t-29.5 104zM639 131q42 -68 141 -94q15 -2 29 -2q85 0 159 56 q86 65 142 218q55 154 55 268q0 34 -5 64q-21 133 -120 203q-51 19 -90 26q-145 -442 -192 -551q-49 -121 -119 -188z" />
<glyph unicode="C" horiz-adv-x="937" d="M8 498q2 74 16.5 156t32 141.5t39.5 117.5q56 153 127 253.5t166 174.5q61 48 136 74.5t144 29.5q22 1 42 1q44 0 83 -4q56 -6 101 -21q88 -30 147.5 -90.5t75.5 -128.5q8 -37 8 -82q-1 -68 -25.5 -123t-64.5 -88t-87 -51t-95 -18q-103 0 -158 67q-24 32 -24 60 q0 34 24 58t58 24q35 0 59.5 -24t24.5 -58q0 -32 -23 -56.5t-55 -25.5q41 -21 94 -21q45 0 87.5 16t79 46.5t59 80.5t22.5 113q0 49 -6 76q-12 57 -58 108.5t-112 77.5q-47 14 -93 14t-86.5 -12.5t-80 -35.5t-73 -53.5t-66 -69t-59.5 -78.5t-52.5 -86t-45.5 -88.5t-38 -87.5 q-40 -99 -65.5 -205t-31.5 -212q-2 -28 -2 -55q1 -74 13 -139q16 -88 64.5 -153t125.5 -88q36 -8 84 -8q123 0 193 53q49 35 73.5 78t24.5 82q-19 -43 -72 -43q-34 0 -59 24.5t-25 59.5q0 33 25 57t59 24q47 0 70 -41q27 -35 27 -77q0 -46 -28 -95.5t-81 -89.5 q-62 -46 -158 -55h-2q-7 -1 -19 -2t-49.5 -1t-73.5 4t-85.5 17t-92.5 34t-87.5 58.5t-75.5 86.5q-40 63 -58 143q-17 74 -18 144v12z" />
<glyph unicode="D" horiz-adv-x="1513" d="M-2 233q0 42 25 97q51 102 167 102q69 -4 99 -22q43 -25 43 -76q0 -35 -25.5 -60.5t-60.5 -25.5t-60.5 25.5t-25.5 60.5q0 52 43 76h-13q-100 0 -147 -91q-20 -44 -20 -86q0 -91 86 -151q47 -25 92 -25q57 0 111 40q96 72 161 220q7 16 162.5 464.5t161.5 461.5 q8 21 8 38q0 27 -18 45q-16 16 -34 16q-15 0 -32 -11q-3 -2 -6.5 0.5t-4.5 6t1 5.5q20 23 62 37q25 8 54 9q21 -1 43 -5q54 -10 93 -47q47 -47 47 -129q0 -66 -31 -155q-183 -568 -256 -740q-39 -99 -102 -174q15 -15 51 -35q60 -26 118 -26q43 0 84 15q96 34 175.5 125.5 t136 214.5t82.5 257q18 96 19 194v10q-1 92 -17 186q-18 98 -65.5 181.5t-121.5 131.5q-132 66 -335 69q-27 0 -89 -4q-190 -13 -311.5 -105.5t-150.5 -213.5q-13 -50 -13 -88q0 -110 67 -170t155 -62q62 3 100 27q-1 0 -2 -1t-2 -1q-35 0 -60.5 26.5t-25.5 61.5t25.5 60.5 t60.5 25.5t60.5 -25.5t25.5 -60.5q0 -60 -57 -96.5t-123 -38.5h-2q-95 0 -169.5 67.5t-74.5 186.5q0 54 12 94q32 130 158.5 226.5t324.5 109.5q31 4 91 4q176 0 311 -55q106 -39 190 -104.5t134.5 -144.5t82.5 -171q30 -93 32 -186q0 -8 1 -17q0 -85 -14 -170 q-15 -75 -42.5 -154t-71.5 -168.5t-113.5 -165t-151.5 -114.5q-67 -33 -136 -41q-23 -2 -45 -2q-45 0 -83 10q-58 15 -101 35t-82 47q-32 16 -55 39q-82 -92 -205 -121q-34 -7 -72 -7q-39 -1 -81 7q-84 16 -135 51q-52 30 -82.5 77t-30.5 103z" />
<glyph unicode="E" horiz-adv-x="1015" d="M26 403q-1 13 0 25q0 58 13 113q16 67 49 131t77.5 114t101.5 84.5t118 44.5q-4 5 -10.5 15.5t-19 43.5t-17.5 68q-2 15 -2 32q0 25 4 56q7 53 31 105q22 47 58 84t78.5 58.5t83 35.5t84 19.5t68 7.5t48.5 2q2 0 4 -2q95 0 169.5 -44.5t106.5 -119.5q29 -71 29 -135 q0 -110 -77 -177t-173 -67q-78 0 -127 49q-13 10 -23 31q0 1 -1 3t-1 3q-4 16 -4 25q0 34 25 58t59 24t57 -24t23 -58q0 -29 -17.5 -51t-43.5 -27q27 -10 53 -10q87 2 157 62t70 159q0 68 -26 129q-31 67 -99 107t-157 40q-21 0 -33 -2q-144 -16 -215 -162q-36 -76 -35 -149 q0 -20 2 -39q12 -92 46 -157.5t65 -78.5l-4 -12q-121 -6 -215.5 -87.5t-129.5 -213.5q-13 -58 -12 -121q0 -69 24 -135q24 -64 59.5 -115t92.5 -83t123 -33q159 21 249.5 119.5t90.5 232.5q0 90 -51.5 138t-120.5 48q-26 0 -53 -10q30 -5 51 -27.5t21 -52.5q0 -34 -25 -58 t-59 -24t-57 24t-23 58q0 50 45 81.5t100 31.5q76 0 135.5 -55t59.5 -154q0 -151 -107 -258.5t-287 -120.5q-17 -1 -25.5 -2t-39.5 -1t-53 3t-59 10.5t-66 19.5t-65 33t-64.5 48.5t-56.5 67.5t-48 89q-25 62 -29 133zM698 983z" />
<glyph unicode="F" horiz-adv-x="913" d="M29 236q0 51 22 96q26 54 71.5 78t96.5 24q54 0 96.5 -25t42.5 -77q0 -36 -25 -61t-61 -25q-35 0 -59.5 25.5t-24.5 60.5q0 26 14.5 47.5t37.5 32.5h-21q-103 0 -147 -90q-21 -44 -21 -86q0 -90 86 -150q47 -25 92 -25q57 -1 110 39q96 72 161 219q7 17 161 464.5 t158 457.5q9 22 9 40q0 25 -17 41q-16 16 -34 16q-15 0 -32 -11q-5 -2 -9.5 4t-0.5 10q21 22 63 35q25 8 54 8q20 0 42 -4q54 -9 91 -47q47 -47 47 -128q0 -66 -31 -154q-3 -9 -25.5 -80t-41.5 -127h168v-25h-176q-134 -399 -178 -504q-106 -257 -324 -307q-37 -8 -75 -8 q-37 0 -77 8q-80 16 -133 49q-110 66 -110 179zM184 1049q0 40 13 94q30 128 157 224.5t322 109.5q25 2 67 2t85 -4.5t74.5 -9.5t74 -18t63 -19t63 -25t52.5 -23.5t54 -26t46 -22.5q107 -55 205 -55q113 0 152 74q-14 -7 -27 -7q-28 0 -47.5 20t-19.5 48t19.5 47t47.5 19 q27 0 46.5 -19.5t19.5 -46.5q0 -21 -2 -29q-8 -52 -54 -88q-49 -43 -135 -43q-101 0 -215 60q-5 3 -40.5 20.5t-46.5 22.5t-45.5 20.5t-53 21.5t-52.5 18.5t-60.5 17.5t-61.5 12t-70 9.5t-72 2.5q-42 0 -65 -2q-188 -13 -309 -105.5t-150 -211.5q-12 -47 -12 -88 q0 -109 67 -169.5t154 -60.5q57 0 104 29h-8q-35 0 -60.5 25.5t-25.5 60.5t25.5 60.5t60.5 25.5t60.5 -25.5t25.5 -60.5q0 -60 -57 -97.5t-123 -39.5h-2q-95 0 -169.5 67t-74.5 185z" />
<glyph unicode="G" horiz-adv-x="1134" d="M61 -397q0 49 23 96q26 54 71.5 78t96.5 24q52 0 93.5 -23.5t41.5 -72.5q0 -35 -25.5 -60.5t-60.5 -25.5t-59.5 25.5t-24.5 60.5q0 51 41 74h-6q-102 0 -148 -90q-20 -41 -20 -86q0 -90 86 -150q47 -25 91 -25q57 0 111 40q97 73 160 219q48 112 117 309 q-17 -2 -33.5 -3.5t-56 -1.5t-75.5 4.5t-84 18.5t-88.5 36t-83 61t-74.5 90q-50 82 -67 187q-10 60 -10 120q0 44 5 88q13 104 34 187.5t50 158.5q60 158 133.5 263t171.5 181q84 66 188 92q84 22 153 22q16 0 32 -2q82 -6 149 -32q95 -28 156.5 -91t75.5 -136q8 -39 8 -84 q0 -136 -87 -213.5t-196 -77.5q-65 0 -123 31q-61 33 -61 101q0 33 24 58q26 25 62 25q35 0 60.5 -25.5t25.5 -60.5q0 -33 -22 -57t-54 -29q38 -18 88 -18q64 0 121.5 28t98 90.5t40.5 147.5q0 22 -8 80q-13 58 -58 110t-116 82q-49 15 -97 15t-90 -12.5t-83 -37t-76 -55.5 t-68.5 -71t-61.5 -82t-54.5 -90t-47 -92t-40.5 -91q-41 -102 -67.5 -212t-32.5 -220q-2 -29 -2 -57q0 -77 12 -144q17 -92 68 -159t132 -90q40 -9 86 -9q26 0 53 3q29 81 68 198q142 412 152 441q8 21 8 38q0 26 -17 43q-17 16 -35 16q-15 0 -32 -11q-2 -2 -5.5 0.5t-5 6.5 t0.5 7q21 22 63 35q24 8 53 8q20 0 41 -4q54 -9 92 -47q49 -49 49 -130q0 -66 -32 -153q-267 -742 -289 -793q-49 -127 -122.5 -202t-188.5 -103q-32 -7 -67 -7q-40 0 -84 9q-84 16 -136 50q-111 67 -111 178z" />
<glyph unicode="H" horiz-adv-x="1415" d="M37 236q0 51 22 96q26 54 71.5 78t96.5 24q58 0 97 -22q43 -25 43 -76q0 -35 -24.5 -59.5t-61.5 -24.5q-35 0 -59.5 24.5t-24.5 59.5q0 54 43 76h-13q-103 0 -147 -90q-21 -44 -21 -86q0 -90 86 -150q47 -25 92 -25q57 -1 110 39q96 72 161 219q9 21 229 664 q-92 45 -194 45q-49 0 -99 -12q-112 -23 -170.5 -93t-58.5 -149q3 -69 43 -106q-2 6 -2 16q0 29 20.5 49.5t49.5 20.5t49 -20.5t20 -49.5q1 -32 -31 -52q-22 -13 -44 -14q-10 0 -21 3q-51 13 -79 55q-27 40 -27 91v7v5q1 81 63 157q64 78 184 104q48 11 103 11 q105 0 200 -45q89 260 103 294q8 22 8 40q0 26 -17 43q-15 15 -33 15q-16 0 -34 -12q-3 -2 -8 4.5t-2 10.5q21 23 63 36q24 8 53 7q21 0 43 -4q54 -10 93 -47q45 -45 45 -127q0 -66 -29 -156q-5 -14 -17.5 -52t-32.5 -100.5t-38 -115.5q129 -171 129 -393v-31 q185 569 244 708q54 128 131 205.5t192 104.5q33 8 70.5 8t79.5 -8q84 -16 135 -50q111 -67 111 -178q0 -49 -23 -96q-48 -102 -168 -102q-42 0 -74.5 12.5t-44.5 34.5q-20 23 -20 53q0 35 25.5 60.5t60.5 25.5t60.5 -25.5t25.5 -60.5q0 -54 -49 -78h16q104 0 148 90 q20 41 20 86q0 90 -86 150q-47 25 -92 25q-57 0 -109 -40q-96 -72 -161 -219q-7 -17 -170.5 -493.5t-167.5 -487.5q-8 -22 -8 -40q1 -26 17 -43q15 -15 32 -16q16 0 34 13q3 2 8.5 -4t2.5 -10q-21 -23 -63 -36q-24 -8 -53 -8q-21 1 -43 5q-54 10 -93 47q-47 47 -47 129 q0 48 16 107h-2q20 79 20 162q0 203 -112 366q-140 -413 -176 -500q-106 -257 -324 -307q-37 -8 -75 -8q-37 0 -77 8q-80 16 -133 49q-110 66 -110 179z" />
<glyph unicode="I" horiz-adv-x="600" d="M188 330q6 17 87 258.5t158.5 472t80.5 237.5q8 21 8 38q0 26 -18 44q-16 16 -34 17q-15 0 -32 -11q-2 -2 -5.5 0t-5 6t0.5 7q21 23 63 36q24 8 52 8q21 -1 43 -5q54 -10 92 -47q48 -44 48 -127q0 -66 -30 -156q-13 -40 -167 -499t-158 -470q-9 -22 -9 -41q0 -26 16 -42 t35 -16q15 0 31 11q3 2 7 -0.5t5 -6t-1 -5.5q-21 -23 -63 -36q-25 -8 -54 -8q-20 0 -42 4q-54 9 -91 46q-48 48 -48 130q0 66 31 155z" />
<glyph unicode="J" horiz-adv-x="1099" d="M-12 -428q0 46 24 96q49 103 168 103q42 0 74.5 -12.5t44.5 -34.5l2 -3v-2q14 -21 14 -45q0 -35 -25.5 -60.5t-60.5 -25.5t-60.5 25.5t-25.5 60.5q0 52 43 74h-6q-103 0 -147 -90q-21 -44 -21 -86q0 -90 86 -150q46 -25 91 -25q56 0 111 41q96 72 161 218q62 160 102 272 q5 14 15.5 43t15.5 43q-16 -6 -53 -10h-4q-24 -3 -48 -3q-133 0 -237 105q-124 124 -139 336q-2 29 -2 57q0 174 73 337q86 190 267 309q66 44 147 70t154.5 33t151.5 10h49q48 0 87 -3q42 73 89 116t83 55t76 12h2h8h11q95 -13 98 -66q-3 -54 -102 -96q-25 -12 -58 -19 q-13 -35 -108 -323q-37 -111 -134 -408t-143 -430q-4 -12 -6 -20q-109 -301 -115 -316q-13 -32 -27.5 -70.5t-15.5 -41.5q-49 -127 -123 -202t-190 -103q-32 -7 -68 -7q-39 0 -83 8q-85 17 -134 50q-112 68 -112 178zM350 428v-31q0 -53 5 -99q7 -60 22 -100t35.5 -72 t44.5 -48t49.5 -27.5t50.5 -10.5t47 3q179 528 332 973q42 128 90 213h-2q-120 0 -233 -45q-93 -37 -169 -103t-124.5 -143.5t-82 -169t-48 -175t-17.5 -165.5zM1260 1284q24 8 34 12q43 18 66.5 39.5t21.5 36.5q3 14 -20 27q-29 6 -52 -21t-50 -94z" />
<glyph unicode="K" horiz-adv-x="1400" d="M-4 238q0 46 24 96q26 54 71.5 78t96.5 24q58 0 97 -22q43 -25 43 -76q0 -35 -25.5 -59.5t-60.5 -24.5t-59.5 24.5t-24.5 59.5q0 54 43 76h-13q-103 0 -147 -90q-21 -44 -21 -86q0 -90 86 -150q47 -25 92 -25q57 0 110 40q96 72 161 219q7 17 170.5 493.5t167.5 487.5 q8 22 8 40q0 26 -17 43q-15 15 -33 15q-16 0 -34 -12q-3 -2 -8 4t-2 10q21 23 63 36q24 8 53 7q21 0 43 -4q54 -10 93 -47q45 -45 45 -127q0 -66 -29 -156q-5 -14 -18 -53.5t-33.5 -103.5t-38.5 -117q56 31 102.5 72t85.5 95t61 90.5t56 98.5q26 46 37.5 66t35.5 57t42 54 t44.5 38t56 29t63.5 8h12q69 -3 103 -38q33 -33 32 -78v-5q0 -58 -28.5 -99.5t-83.5 -41.5q-43 0 -75 31t-32 75t32 75.5t75 31.5q51 0 84 -41q-17 60 -107 65h-12q-31 0 -57 -7.5t-49.5 -25.5t-40 -34.5t-38.5 -50.5t-34.5 -55.5t-36.5 -65.5q-85 -154 -150 -230 q38 18 77 24q13 2 28 3q28 -1 60 -9q48 -12 87 -50q44 -41 44 -125q0 -66 -27 -158q-34 -115 -85 -268.5t-82 -249.5t-36 -133q-6 -45 -6 -82q-1 -20 1 -36q4 -50 20.5 -85.5t37.5 -59t44 -37t42.5 -20.5t31.5 -8l13 -2q-14 -1 -27 -1q-130 0 -226 63q-106 69 -139 197 q-13 49 -13 105q0 91 34 201q132 409 209 606q6 17 6 32q1 19 -9 35q-18 29 -52 34q-7 1 -13 1q-28 0 -59 -16q-69 -69 -151 -108q-114 -357 -170 -488q-54 -126 -131.5 -203t-192.5 -104q-36 -8 -75 -8q-38 0 -78 8q-82 16 -131 49q-110 66 -113 179z" />
<glyph unicode="L" horiz-adv-x="1345" d="M-37 139q0 34 28 60t79 30h16q67 0 190 -51q40 56 80 144q7 15 217 628q35 103 77 184.5t100 150.5t126 112t157 63q57 12 120 12q35 0 72 -4q138 -9 228 -79.5t110 -165.5q8 -39 8 -84q0 -136 -87 -213.5t-196 -77.5q-63 0 -123.5 34.5t-60.5 94.5q0 35 24.5 60.5 t59.5 25.5t60.5 -25.5t25.5 -60.5q0 -33 -21.5 -57t-54.5 -29q43 -19 90 -19t91.5 17t82.5 48.5t61 84t23 117.5q0 41 -8 80q-19 92 -110 159.5t-234 67.5q-82 0 -149 -54t-109 -141q-24 -46 -44 -94.5t-30 -79t-28.5 -91.5t-28.5 -91q-130 -411 -201 -578 q-58 -139 -143 -215q121 -47 233 -67q93 -19 166 -19q120 0 214 40.5t134 129.5q33 67 33 125q0 76 -47.5 121t-112.5 45q-22 0 -43 -6q-49 -13 -73.5 -47.5t-24.5 -75.5q9 22 30 35.5t46 13.5q36 0 61 -25t25 -61q0 -40 -30 -65q-25 -20 -56 -20q-7 0 -15 1q-40 7 -63 41.5 t-23 77.5q0 50 29.5 92t87.5 58q24 6 49 6q75 0 130 -52t55 -139q0 -66 -35 -135q-46 -97 -145.5 -139.5t-225.5 -42.5q-87 0 -172 16q-118 23 -248 74q-69 -54 -157 -74q-40 -12 -84 -12q-10 0 -20 1q-56 3 -104 15.5t-80 45.5t-32 79zM-12 139q0 -61 62 -75q19 -4 39 -5 q43 -1 91 21q68 30 82 80q-113 45 -176 45h-14q-84 -8 -84 -66z" />
<glyph unicode="M" horiz-adv-x="1521" d="M137 334q160 470 305 905q14 41 14 74v8q-2 36 -17 54.5t-37 30.5t-47 10.5t-46 -5.5q-73 -34 -100 -96q21 18 53 18q35 0 60.5 -24.5t25.5 -59.5q0 -36 -25 -61t-61 -25q-39 0 -63.5 29.5t-24.5 71.5q0 79 76.5 138.5t187.5 59.5q62 0 121 -20q47 -17 70 -47 q44 -49 43 -130v-20q66 128 151 176q33 23 85 35q24 5 49 6q31 0 65 -8q62 -14 100 -59q45 -51 46 -134q0 -5 -1 -10q59 119 148 170q33 23 85 35q24 5 51 5q31 1 64 -7q62 -14 101 -59q44 -51 44 -133q0 -65 -28 -150q-7 -15 -184.5 -562t-181.5 -570q-6 -45 -6 -82 q0 -20 2 -36q4 -50 20 -85.5t37.5 -59t44.5 -37t42.5 -20.5t32.5 -8l13 -2q-14 -1 -27 -1q-131 0 -227 63q-106 69 -140 197q-13 49 -13 105q0 91 34 201q2 7 92.5 269.5t174 506.5t84.5 248q13 38 16.5 69.5t-1 50.5t-14 33.5t-22.5 19t-26.5 6.5t-26.5 -3 q-120 -47 -199 -241q-1 -3 -16 -62q-10 -28 -167 -496t-159 -473q-9 -22 -9 -40q0 -25 17 -43q16 -16 34 -16q15 0 32 11q2 2 5.5 -0.5t5 -6t-0.5 -5.5q-21 -23 -63 -36q-25 -8 -54 -8q-20 0 -42 4q-54 9 -91 46q-47 47 -47 129q0 67 31 156q160 470 305 905q15 46 17.5 81 t-6.5 54t-23 31.5t-31.5 12t-32.5 -2.5q-125 -49 -207 -266q-1 -7 -10 -37q-13 -38 -167.5 -497.5t-158.5 -471.5q-9 -22 -9 -40q0 -25 17 -43q16 -16 34 -16q15 0 32 11q3 2 7 -0.5t6 -6t0 -5.5q-22 -23 -64 -36q-25 -8 -54 -8q-20 0 -42 4q-54 9 -92 46q-46 46 -46 129 q0 67 29 156z" />
<glyph unicode="N" horiz-adv-x="1298" d="M-33 219q0 45 25 100q26 53 71.5 78t96.5 25q58 -3 94 -25q45 -23 45 -73q0 -35 -25.5 -60.5t-60.5 -25.5t-60.5 25.5t-25.5 60.5q0 50 45 73h-12q-105 0 -148 -88q-22 -49 -22 -90q0 -79 57.5 -137.5t140.5 -58.5q17 0 25 2q95 11 156 86t125 264q192 579 317 940v8 q0 35 -24 52q-27 19 -58 -1q-2 -2 -5.5 0t-5 5.5t0.5 6.5q16 18 45.5 32t65.5 21q12 2 23 2q25 1 51 -9q38 -14 65 -52q25 -36 36 -139.5t23 -330.5q3 -53 4 -81q8 -136 26 -373t19 -257q144 428 305 909q61 182 125 252.5t164 79.5q8 2 25 2q91 0 157 -67t66 -158 q0 -48 -23 -95q-50 -102 -167 -102q-61 3 -95 24q-45 23 -45 74q0 35 25.5 60.5t60.5 25.5t60.5 -25.5t25.5 -60.5q0 -23 -12.5 -43t-32.5 -31h13q104 0 147 89q20 41 20 84q0 81 -60 141.5t-140 60.5q-4 0 -11 -1t-10 -1q-64 -8 -105 -33t-82 -92t-83 -190 q-34 -99 -163 -484t-169 -501q-1 -9 -1 -18q0 -35 19 -57q24 -28 56 -7q3 2 8 -4.5t2 -10.5q-21 -22 -65 -36q-26 -8 -54 -8q-21 0 -43 4q-54 10 -88 49q-39 43 -52.5 161.5t-39.5 546.5q-12 246 -12 482q-46 -136 -154.5 -455t-134.5 -397q-64 -192 -129 -273.5t-168 -91.5 q-10 -2 -29 -2q-94 0 -157.5 65t-63.5 154z" />
<glyph unicode="O" d="M130 608q12 103 33 184t50 158q60 158 133 262.5t170 180.5q64 50 143 77t151 30q21 1 40 0q49 0 90 -4q58 -8 100 -23q95 -28 156.5 -90.5t75.5 -137.5q8 -39 8 -84q0 -69 -25.5 -126t-67 -91.5t-90.5 -53.5t-100 -20q-104 0 -161 72q-25 29 -25 62q0 35 25.5 60.5 t60.5 25.5t60.5 -25.5t25.5 -60.5t-24 -59.5t-58 -26.5q48 -23 96 -23q101 2 179.5 72t78.5 194q0 41 -8 80q-11 58 -56 111t-116 84q-49 14 -97 14q-291 0 -521 -532q-44 -103 -76 -208t-50 -206q-15 -85 -15 -160v-28q4 -88 27.5 -154t78.5 -102q52 -35 129 -35h8 q180 16 328 286q50 91 86.5 176.5t53.5 143t26.5 102t10.5 65.5l1 21q7 2 19 5.5t45 19.5t62 37t61.5 60t52.5 85q1 -8 2.5 -22t0 -63t-8.5 -103.5t-30 -141t-57 -176.5q-32 -86 -75 -162t-105 -147.5t-134.5 -121t-167.5 -75.5q-69 -19 -142 -19q-28 0 -58 3v-1l-2 1 q-61 5 -116.5 25.5t-113 68t-97.5 117.5q-49 86 -66 191q-10 61 -10 120q0 44 5 88z" />
<glyph unicode="P" horiz-adv-x="1224" d="M2 236q0 43 25 98q26 53 71.5 77.5t96.5 24.5q59 -3 96 -24q43 -24 43 -74q0 -35 -25.5 -60.5t-60.5 -25.5t-60.5 25.5t-25.5 60.5q0 23 12.5 43t32.5 31h-12q-104 0 -148 -88q-20 -44 -20 -88v-6q0 -85 86 -142q46 -25 91 -25q57 1 110 41q96 72 159 218q6 13 84 235.5 t156.5 449.5t81.5 234q8 22 8 40q0 26 -17 43q-15 15 -33 15q-16 0 -34 -12q-3 -2 -8 4t-2 10q21 23 63 36q24 8 53 7q21 0 43 -4q54 -10 93 -47q45 -44 45 -126q0 -66 -29 -156q-4 -13 -26.5 -80t-52 -155.5t-56.5 -166.5q19 -3 38 -3q52 0 98 22q64 30 109.5 87.5 t75.5 130.5t39 150q3 25 3 49q0 117 -65 219q-78 124 -227 158q-74 8 -116 8q-33 0 -107 -4q-182 -18 -300 -111t-148 -212q-13 -60 -13 -99q0 -106 59 -164.5t136 -58.5q47 0 86 25h-8q-35 0 -59.5 24.5t-24.5 61.5q0 35 24.5 59.5t59.5 24.5t60.5 -24.5t25.5 -59.5 q0 -54 -52 -94q-49 -39 -106 -39h-6q-86 0 -151.5 65t-65.5 180q0 48 12 103q31 128 155.5 226t313.5 116q37 4 109 4q73 0 145 -10q198 -27 332 -148q71 -65 109 -165q28 -73 28 -157q0 -31 -4 -63q-14 -120 -94 -217q-36 -44 -83.5 -73t-87.5 -41t-94 -14q-24 -1 -43 -1 q-23 0 -39 2q-28 2 -76.5 9t-53.5 8h-2q-62 -187 -111 -306q-54 -128 -131.5 -205t-192.5 -104q-34 -9 -72 -9q-37 1 -79 9q-84 16 -135 51q-51 30 -81 76.5t-30 100.5z" />
<glyph unicode="Q" horiz-adv-x="1259" d="M70 528q1 76 15.5 160.5t31.5 144.5t39 121q60 158 133 262.5t172 180.5q85 66 189 93q84 21 152 21q17 0 33 -1q81 -7 148 -33q95 -28 156 -90.5t75 -137.5q11 -53 11 -84q0 -69 -26 -126t-68 -91.5t-91 -53.5t-100 -20q-63 0 -123.5 36.5t-60.5 97.5q0 35 24.5 60.5 t59.5 25.5t60.5 -25.5t25.5 -60.5t-23 -59.5t-57 -26.5q44 -23 94 -23q101 2 180.5 72t79.5 194q0 41 -8 80q-13 58 -58 111t-116 84q-42 14 -83 14h-14q-48 -3 -89.5 -13t-82 -37t-75.5 -56.5t-68.5 -71t-61 -82.5t-54.5 -89.5t-48 -92t-41 -90.5q-54 -125 -90 -250 t-47 -242q-4 -46 -4 -87q0 -66 10 -121q18 -90 77 -143q56 -50 147 -50h10q179 16 327 286q49 91 85.5 176.5t53 143t26.5 102t11 65.5l1 21q7 2 19 5.5t45 19.5t62 37t61.5 60t51.5 85q1 -8 2.5 -22t0.5 -63t-8 -103.5t-29 -141t-56 -176.5q-34 -89 -80 -167.5t-108 -151.5 t-144 -124t-176 -71q-34 -10 -78 -14q-17 -2 -37 -2q-30 0 -66 4q-60 7 -116 28t-112.5 69t-96.5 118q-39 69 -57 153q-16 80 -16 153v9zM242 -127q4 17 15 36t34 38.5t57 23.5q8 1 17 1q28 0 63 -9q28 -9 74.5 -34t91 -52t99.5 -56t100 -45.5t92 -19.5q6 -1 12 -1 q39 0 64 20q0 -3 -0.5 -8t-3.5 -19.5t-7.5 -28.5t-13.5 -32.5t-20 -33t-28.5 -27.5t-38.5 -20t-50.5 -6.5t-63.5 9.5q-70 20 -140 59.5t-140 88t-105 67.5q-34 17 -59 5t-21 -44l-8 -2q-3 3 -8 10t-10.5 30.5t-1.5 49.5z" />
<glyph unicode="R" d="M-2 236q0 43 25 98q26 53 71.5 77.5t95.5 24.5q60 -3 97 -24q43 -22 43 -74q0 -35 -25.5 -60.5t-60.5 -25.5t-59.5 25.5t-24.5 60.5q0 52 43 74h-13q-103 0 -147 -88q-20 -44 -20 -88q0 -91 86 -148q47 -25 92 -26q57 0 109 41q96 72 161 219q7 17 162.5 464.5 t157.5 454.5q9 22 9 40q0 25 -17 43q-15 16 -33 15q-16 0 -33 -12q-5 -2 -10 4t-2 10q21 23 63 36q24 8 52 7q20 0 44 -4q54 -10 92 -47q46 -45 46 -127q0 -66 -29 -155q-6 -17 -53 -160t-80 -242q20 -3 38 -3q71 0 135 44q80 56 126.5 149t58.5 197q3 25 3 49 q-1 118 -65 220q-78 123 -227 157q-74 8 -116 8q-33 0 -107 -4q-181 -18 -299 -111.5t-147 -211.5q-15 -55 -15 -99q1 -107 60 -165t135 -58q47 0 86 25h-6q-36 0 -61 25t-25 61q0 35 25.5 59.5t60.5 24.5t59.5 -24.5t24.5 -59.5q0 -54 -52 -94q-49 -39 -106 -39h-6 q-86 0 -151.5 65t-65.5 180q0 51 14 103q30 127 154.5 225.5t312.5 116.5q39 4 109 4q73 0 145 -10q198 -27 334 -148q52 -48 86 -119t46 -152q4 -27 5 -54q-1 -56 -17 -116q-24 -88 -83 -161q-105 -129 -294 -129h-22q110 -52 161 -160q33 -71 34 -166q0 -51 -10 -108 q-28 -168 -28 -302q0 -54 4 -102q16 -168 91 -280q49 -74 125 -109q53 -16 100 -16q88 0 181 43l10 -20q-98 -46 -191 -46q-133 0 -240 39t-176.5 109t-111.5 167.5t-46 215.5q-1 19 -1 38q0 101 20 214q15 74 22 110.5t16 92t9 82.5q0 9 1 19q0 20 -1 46q-1 38 -11 56.5 t-25 40t-39.5 32.5t-57.5 18q-92 -260 -110 -301q-54 -128 -131.5 -205t-192.5 -104q-34 -9 -72 -9q-37 1 -79 9q-84 16 -133 51q-52 30 -82 76t-31 101z" />
<glyph unicode="S" horiz-adv-x="1044" d="M-2 442q0 66 29 142q36 88 105.5 131t150.5 43q95 0 168.5 -51t74.5 -127q0 -38 -24 -67.5t-62 -29.5h-3q-33 0 -57 23q-28 26 -28 62q0 34 24 59q24 26 60 26q24 3 47 -12q-16 25 -47 47q-64 45 -153 45q-76 0 -139 -38.5t-95 -119.5q-26 -65 -26 -133q0 -122 80 -224 t206 -150q45 -13 97 -15h13q45 -1 92 11q54 14 99.5 42t79 79.5t43.5 119.5q6 43 7 85v13q0 35 -4 67q-6 38 -14 72.5t-22 70.5t-28 67t-33.5 68t-37 68.5t-40 73.5t-39.5 77q-46 95 -53 179q-2 18 -2 35q1 63 21 113q26 64 79 113q57 53 149 75q61 15 119 15q29 1 59 -3 q86 -12 149 -72t63 -160q0 -39 -16 -76q-22 -45 -58.5 -67.5t-75.5 -22.5q-44 0 -77.5 26t-34.5 68v5q0 33 24 57q26 26 60 26h3q33 0 57 -23q26 -24 28 -59q0 -49 -39 -76q60 10 92 76q14 32 14 66q-2 82 -60 147.5t-169 65.5q-127 0 -174 -88q-25 -46 -25 -101 q0 -50 21 -108q23 -67 74 -164t94.5 -173.5t79 -176t37.5 -185.5v-16q0 -117 -40 -211q-43 -100 -140 -164t-238 -74q-18 -2 -58 -2q-126 0 -237.5 57t-180 157t-69.5 216z" />
<glyph unicode="T" horiz-adv-x="888" d="M2 236q0 48 23 98q26 53 72 77.5t96 24.5q57 0 96 -22q20 -10 31.5 -31t11.5 -45q0 -35 -24.5 -60.5t-59.5 -25.5q-36 0 -61 25t-25 61q0 50 43 74h-12q-101 0 -148 -88q-20 -44 -20 -88q0 -91 86 -148q47 -25 92 -25q57 0 109 40q96 72 161 219q7 17 156 439.5 t151 426.5q8 22 8 40q0 26 -17 43q-15 15 -33 15q-16 0 -33 -12q-3 -2 -9 4t-2 10q21 23 63 36q24 8 52 7q21 1 43 -3q54 -10 92 -48q47 -47 47 -129q0 -66 -30 -154q-172 -523 -240 -680q-52 -127 -130 -204.5t-192 -104.5q-37 -8 -77 -8q-36 0 -76 7q-82 15 -133 50 q-52 30 -81.5 77t-29.5 102zM209 1161q0 125 88 213q105 105 287 105h10h6q65 -1 126.5 -16t118 -44t93.5 -52t89 -61t69 -49q126 -81 222 -81h7q102 0 156 81q16 26 16 60q-2 45 -32.5 79t-82.5 34h-2q37 -23 37 -70q0 -35 -25.5 -60.5t-60.5 -25.5t-60.5 25.5t-25.5 60.5 q-1 50 41 72q38 21 87 20h9q63 -1 100.5 -41t37.5 -94q0 -42 -21 -72q-60 -94 -174 -94q-106 0 -242 88q-19 12 -70.5 49.5t-87.5 60t-90.5 50.5t-113.5 42t-121 15h-6q-95 0 -168 -27t-113.5 -71.5t-60.5 -94t-21 -102.5q1 -104 54.5 -154.5t128.5 -52.5q86 0 129 62 q-23 -15 -43 -15q-35 0 -60.5 25.5t-25.5 60.5t25.5 61t60.5 26q36 0 61 -28.5t25 -68.5q0 -66 -51.5 -105.5t-120.5 -39.5q-84 0 -140 53q-65 65 -65 176z" />
<glyph unicode="U" horiz-adv-x="1329" d="M41 1274q0 96 63 156q71 65 187 65q74 0 129 -23t86 -64t48 -93t17 -113.5t-10.5 -122.5t-30.5 -123q-36 -109 -75.5 -235.5t-63.5 -205.5t-26 -89q-15 -70 -17 -134v-13q0 -57 11 -107q13 -56 48.5 -94t90.5 -51q10 -2 28 -2q135 0 224 141q-72 104 -72 244q0 74 20 159 q18 76 65 221.5t103 307t56 162.5q63 202 178 219q14 2 28 2q63 1 113 -41q61 -50 68 -103q0 -8 -12 -7q-5 0 -5 3q-10 26 -33 34t-46.5 -8t-32.5 -52q-2 -7 -137.5 -435t-139.5 -446q-17 -72 -18 -138v-8q1 -60 15 -114q16 -56 55 -94t100 -47q10 -1 19 -1q61 0 108 34 q54 39 67 118q2 10 2 29q0 87 -86 141q13 -23 13 -45q0 -25 -17 -49q-22 -29 -57 -35q-8 -1 -16 -1q-26 0 -48 15q-28 22 -33 57q-1 7 -1 14q0 27 16 50q33 38 78 38h2q44 0 81 -26q38 -26 64.5 -70.5t26.5 -88.5q0 -21 -2 -33q-16 -88 -78 -132q-57 -40 -127 -41 q-6 1 -11 1q-76 4 -153 38.5t-125 90.5q-2 3 -7 8t-7 8q-58 -95 -154 -129q-51 -18 -103 -18q-46 0 -93 14q-100 30 -174 117q-99 115 -99 283q0 74 19 157q12 48 113.5 345.5t127.5 390.5q9 31 9 58q0 35 -15 61q-26 46 -104 46h-6q-47 0 -89 -15q-46 -16 -73 -44 q-57 -51 -57 -137q0 -80 57 -125q-8 16 -8 37q0 36 25 61t61 25q35 0 59.5 -25.5t24.5 -60.5t-24.5 -60.5t-59.5 -25.5q-67 0 -113.5 51.5t-46.5 122.5z" />
<glyph unicode="V" horiz-adv-x="780" d="M-41 1243q0 95 64 156q58 53 142 67q32 5 62 5q51 -1 101 -15q80 -22 148.5 -78t98.5 -131q34 -101 34 -209q0 -24 -2 -48q-9 -134 -56 -257q-23 -61 -53 -133.5t-56 -142.5q-68 -181 -82 -281q-4 -30 -3 -56q0 -61 22 -97q11 120 113 301q37 65 112.5 165.5t147.5 195 t142 195.5q70 100 112 196q42 94 41 168q0 90 -62 149q-37 34 -86 34q-12 0 -18 -2q23 -5 39 -23.5t16 -43.5q0 -29 -20.5 -49.5t-49.5 -20.5t-49 20.5t-20 49.5q0 8 2 12q-2 0 -2 2q1 35 31.5 57.5t70.5 22.5q58 0 102 -41q70 -64 70 -164q-1 -80 -44.5 -180.5t-113.5 -202 t-142.5 -196t-146.5 -194t-110 -163.5q-111 -192 -111 -305v-4q0 -14 -12 -14q-4 0 -8 4q-42 12 -78.5 43.5t-64.5 87t-38 127.5q-5 32 -5 70q-1 48 7 106q14 104 56 221q11 30 28 73t29.5 75t29 77t27 77t22.5 75.5t16 73.5q3 28 6 68q1 12 1 23q0 25 -5 42 q-25 171 -156 205q-7 2 -15.5 3t-18.5 1.5t-15 1.5q-105 0 -170 -62q-55 -52 -55 -137q0 -75 45 -117q-4 20 -4 29q0 35 25.5 60.5t60.5 25.5t59.5 -25.5t24.5 -60.5t-24.5 -60.5t-59.5 -25.5q-64 0 -108 53t-44 121z" />
<glyph unicode="W" horiz-adv-x="1361" d="M-55 1249q0 96 63 156q71 65 187 65q15 1 29 1q121 0 203 -53q92 -59 134 -165q34 -101 34 -209q0 -24 -2 -48q-9 -134 -56 -257q-23 -61 -53 -133.5t-56 -142.5q-68 -181 -82 -281q-4 -30 -3 -56q0 -61 22 -97q11 122 112 301q14 24 106 178t163 283t118 237 q58 129 58 238q-3 172 -136 172h-8q-4 0 -8 4t-4 8t4 8t8 4q54 0 97 -4.5t90 -17.5t83.5 -35.5t69 -61t53.5 -90.5q29 -73 33 -167l2 -42q0 -71 -12 -139q-16 -87 -47 -166q-23 -61 -53 -133.5t-56 -142.5q-68 -181 -82 -281q-4 -30 -4 -56q0 -61 23 -97q11 120 115 301 q37 65 111.5 165.5t146 195t141 195t111.5 196.5q42 94 42 168q0 91 -61 149q-39 36 -80 36q-12 0 -24 -3q23 -5 39 -24t16 -44q0 -29 -20.5 -49.5t-49.5 -20.5t-49 20.5t-20 49.5q0 41 29.5 67.5t74.5 26.5q56 0 100 -41q70 -64 70 -164q-1 -80 -44.5 -180.5t-113.5 -202 t-142.5 -196t-146.5 -194t-110 -163.5q-111 -192 -111 -305v-4q0 -20 -20 -10q-42 12 -78.5 43.5t-64.5 87t-38 127.5q-4 30 -5 67q1 49 9 109q14 104 56 221q11 30 27.5 73t29 75.5t28.5 76.5t26.5 77t22.5 75.5t16 73t8 69.5q1 13 1 24q0 23 -5 40q-25 163 -144 205 q21 -11 41 -37q37 -52 37 -139q0 -111 -59 -248q-49 -109 -122 -242t-158.5 -277.5t-106.5 -181.5q-111 -192 -111 -305q0 -23 -20 -14q-42 12 -78.5 43.5t-64.5 87t-38 127.5q-5 32 -5 70q-1 48 7 106q14 104 56 221q11 29 28 73t29.5 75.5t29 76.5t26.5 77t22 75.5 t15.5 73t6.5 69.5q1 12 1 23q0 25 -5 41q-25 171 -155 205q-26 6 -53 6q-31 0 -63 -8q-62 -14 -103 -54q-56 -53 -56 -137q0 -81 56 -125q-9 27 -9 37q0 35 25.5 60.5t60.5 25.5t60.5 -25.5t25.5 -60.5t-25.5 -60.5t-60.5 -25.5q-67 0 -112 51t-45 123z" />
<glyph unicode="X" horiz-adv-x="1003" d="M39 215q0 65 34.5 130t106.5 118q93 72 307 213q-114 552 -122 592q-6 36 -27.5 54t-45.5 12t-36 -31q-2 -3 -9 -0.5t-7 6.5q11 51 77 96q47 32 100 32q21 0 44 -5q113 -28 157 -236q10 -52 80 -383q157 104 267 184q83 61 122 126.5t39 125.5q0 64 -38.5 110t-100.5 58 q-28 4 -39 4q-69 0 -113 -43.5t-44 -101.5q0 -15 2 -23q8 25 28.5 41t48.5 17h3q33 0 57 -23q26 -24 28 -59v-5q0 -33 -22 -57q-24 -26 -59 -26h-6q-45 1 -73 41q-30 44 -30 94q0 68 50.5 118t129.5 50q11 0 43 -4q69 -12 114.5 -65.5t45.5 -125.5q-2 -67 -44 -137.5 t-128 -134.5q-135 -96 -277 -186q118 -570 129 -625q7 -36 28.5 -54t45 -12t35.5 31q3 3 10 0.5t6 -6.5q-10 -51 -76 -96q-45 -31 -97 -31q-23 0 -46 6q-113 28 -157 234q-2 9 -14 66t-33.5 158.5t-40.5 188.5q-219 -146 -297 -207q-134 -100 -134 -229q0 -69 36.5 -121.5 t92.5 -64.5q41 -9 52 -9q66 2 107 42t42 108q-24 -34 -65 -37q-36 0 -62 24.5t-26 62.5q0 34 22 58q24 26 59 27h6q43 -1 67 -39q24 -42 24 -94q0 -77 -49.5 -125.5t-124.5 -48.5q-31 0 -58 8q-63 15 -104 74t-41 135z" />
<glyph unicode="Y" horiz-adv-x="976" d="M94 1268q0 94 64 155q72 66 186 66q34 0 92 -14q197 -59 197 -267q0 -101 -45 -235q-45 -143 -62 -203q-11 -41 -11 -75q0 -56 29 -96q35 -50 99 -50q18 0 39 4q46 132 111 326q139 411 149 440q9 22 9 40q0 24 -17 41q-16 16 -34 16q-15 0 -32 -11q-2 -2 -5.5 0.5t-5 6 t0.5 5.5q21 23 63 37q25 8 55 8q19 0 40 -4q54 -9 92 -47q48 -48 48 -129q0 -66 -32 -154q-13 -37 -101 -295t-153 -427.5t-104 -229.5q-55 -100 -142 -145q-71 -37 -150 -37q-17 0 -35 2q-98 10 -199 67q-52 31 -81.5 77.5t-29.5 101.5q0 49 23 96q26 54 71 78t96 24 q52 0 94 -23.5t42 -72.5q0 -35 -25.5 -60.5t-60.5 -25.5t-59.5 25.5t-24.5 60.5q0 51 41 74h-7q-101 0 -147 -90q-20 -41 -20 -86q0 -90 86 -150q47 -25 91 -25q57 0 111 41q97 72 160 218q19 47 72 196q-47 -17 -93 -17q-57 0 -112 27q-104 53 -139 165q-18 60 -18 118 q0 50 14 98q26 90 72.5 218t58.5 167q11 39 11 68q0 27 -10 45q-19 37 -53 47q-29 8 -62 8q-27 0 -57 -6q-65 -12 -108 -55q-57 -51 -57 -137q0 -80 57 -125q-8 16 -8 37q0 35 24.5 60.5t59.5 25.5q36 0 61 -25t25 -61t-25 -61t-61 -25q-66 0 -112 52t-46 122z" />
<glyph unicode="Z" horiz-adv-x="1087" d="M-5 198q9 61 36 105q26 43 58 84t79.5 87.5t76.5 73.5t95 84.5t90 78.5q69 62 237 201.5t279.5 243t171.5 187.5q-45 -28 -102 -28q-46 0 -98 18q-109 42 -164.5 61t-133.5 36q-73 16 -137 16h-8h-4q-82 0 -136 -55.5t-54 -141.5q0 -23 2 -37q9 -58 48.5 -88t92.5 -30 q44 0 80 20.5t53 56.5q-25 -18 -53 -18h-3q-33 0 -57 23q-28 26 -28 62q0 34 23 58q24 26 59 27h3q38 0 63 -29q26 -30 26 -73q0 -68 -50 -109t-116 -41h-2q-59 0 -105.5 35.5t-56.5 103.5q-2 12 -2 42q0 93 60 155q62 63 153 63h4q66 0 143.5 -16.5t122 -31.5t154.5 -55 q21 -7 31 -11q52 -19 90 -19q71 0 115 46t49 112v8q18 2 22 -2q59 -53 59 -148q0 -55 -20 -124q-26 -87 -106.5 -186.5t-173.5 -178.5q-304 -267 -685 -608q-50 -45 -118 -98q24 6 51 6q55 0 125 -25q116 -44 165.5 -62t129.5 -36t149 -18q84 0 138.5 55t54.5 141 q0 25 -2 35q-8 61 -48 91t-94 32q-44 -2 -80.5 -22.5t-50.5 -57.5q23 20 52 20h3q33 1 57 -23q26 -24 28 -61v-5q0 -32 -22 -56q-24 -26 -62 -27q-41 0 -65.5 31t-24.5 74q0 68 49.5 108.5t115.5 40.5q60 0 108 -36.5t56 -104.5q2 -12 2 -39q0 -94 -61 -156.5t-152 -62.5h-2 q-72 0 -153.5 18.5t-132.5 36.5t-166 62q-64 24 -117 24q-66 -2 -103.5 -34.5t-37.5 -92.5q0 -18 2 -28q0 -13 -21 -13q-35 40 -49 102q-8 37 -9 74q0 25 4 49z" />
<glyph unicode="[" horiz-adv-x="802" d="M121 -73.5q-1 32.5 8.5 75.5t19 74.5t30.5 93t32 98.5q9 27 109 352t141 441q13 36 42 119.5t41.5 114.5t39.5 72.5t59 62.5q41 26 88 27t76.5 -11t52.5 -29l4 -4l2 -2q47 -32 62 -100q4 -8 -6 -13q-11 -4 -15 9q-14 56 -53 86q-50 28 -89.5 -17t-76.5 -159 q-9 -29 -73 -228t-122.5 -381t-118 -365t-77.5 -235q-40 -108 -35.5 -170t60.5 -71q48 0 96 36q3 3 7.5 2t6.5 -4q9 -9 -2 -16q-49 -41 -108 -41h-3h-2h-4q-21 0 -44 5t-50 17.5t-50.5 38t-35.5 60.5q-11 29 -12 61.5z" />
<glyph unicode="\" horiz-adv-x="727" d="M-221 1536q7 53 68.5 103t140.5 38q117 -17 180 -221q1 -3 117 -371t234.5 -743.5t123.5 -394.5q9 -35 33 -51t47 -8t33 34q2 3 9 1.5t7 -5.5q-5 -52 -66.5 -103.5t-140.5 -39.5q-120 17 -182 219q-459 1462 -475 1511q-9 36 -33 52t-47 8.5t-33 -33.5q-1 -4 -8.5 -2.5 t-7.5 6.5z" />
<glyph unicode="]" horiz-adv-x="856" d="M23 -109q-4 9 8 13q8 4 12 -8q14 -56 53 -86q50 -28 89.5 17t76.5 159q373 1157 391 1208q40 108 36 170.5t-60 71.5q-52 0 -97 -37q-6 -6 -14 2q-9 9 2 16q49 41 109 41h2h2h4q21 0 44 -5t50 -17.5t50.5 -38t35.5 -60.5q11 -29 12 -61.5t-8.5 -75.5t-19 -74t-30.5 -92.5 t-32 -97.5q-2 -5 -105 -341t-145 -454q-14 -38 -35 -99t-32.5 -92.5t-29.5 -70.5t-38.5 -64t-46.5 -42q-41 -26 -88 -27t-76.5 10.5t-52.5 28.5q0 4 -4 4l-2 2q-46 32 -61 100z" />
<glyph unicode="_" horiz-adv-x="536" d="M96 2v35h332v-35h-332z" />
<glyph unicode="`" horiz-adv-x="413" d="M6 1335q4 45 28.5 77t47.5 41l22 9q86 -127 247 -181q16 -5 17 -7q1 -1 -3 -2q-59 -13 -112 -11.5t-98.5 13.5t-78.5 25.5t-52 24.5z" />
<glyph unicode="a" horiz-adv-x="815" d="M-4 236q2 72 22.5 144t61 139t90.5 106q63 49 134 61q33 6 61 6q33 0 60 -8q50 -14 83 -41q27 -27 33 -41q29 36 84 51q31 9 60 9q43 0 77 -20q58 -34 67 -83q1 -6 -6 -7.5t-10 1.5q-18 22 -41 9.5t-41 -62.5q-16 -39 -64 -178.5t-65 -202.5q-4 -13 -4 -25q0 -21 14 -35 q22 -23 56 -10q35 17 67 44t53.5 53.5t37.5 50t23 38.5l7 15l12 -25q-40 -84 -124 -154t-158 -71q-94 0 -150 51q-40 -18 -62 -26.5t-62 -18t-83 -12.5q-67 0 -123 31t-86 92q-24 43 -24 107v12zM204 143q6 -48 30 -75q25 -26 70 -30q4 0 8 -1q43 0 108 33q-39 50 -39 111 q0 39 16 83q13 33 35 91.5t31 81t22.5 56.5t22.5 53t18 34q-11 26 -28 38q-18 15 -42.5 16t-54 -15.5t-59.5 -48.5t-60.5 -89.5t-54.5 -132.5q-17 -53 -23 -105q-3 -26 -3 -51t3 -49z" />
<glyph unicode="b" horiz-adv-x="733" d="M-1 174q-2 12 -2 26q0 36 15 76q14 40 180 521.5t181 519.5q8 21 8 38q1 25 -17 43q-16 16 -35 16q-15 0 -32 -11q-3 -2 -8.5 4t-1.5 10q21 22 63 35q25 8 54 8q20 0 42 -4q54 -9 91 -47q47 -47 47 -128q0 -66 -31 -155q-35 -110 -141 -419q25 3 56.5 -3.5t69.5 -24.5 t73 -59.5t55 -99.5q15 -46 15 -96q-1 -48 -15 -99q-30 -103 -82 -180q-48 -71 -144 -111q-90 -38 -184 -38h-12q-101 2 -168 47q-30 20 -50 51.5t-27 79.5zM211 115q-6 -20 -6 -35q0 -38 37 -43q33 0 63 20t51.5 47.5t45.5 76t38 83.5t35 92q23 62 33 116q8 44 8 85v19 q-2 50 -30 80t-80 32q-162 -472 -195 -573z" />
<glyph unicode="c" horiz-adv-x="602" d="M-14 240q2 72 22.5 144t61 139t90.5 106q63 49 134 62q34 6 62 7q32 0 59 -8q50 -14 83 -43q51 -51 51 -117q0 -41 -22.5 -77.5t-63.5 -36.5q-29 0 -49.5 20t-20.5 49t20.5 49.5t49.5 20.5q41 0 61 -39v14q0 54 -28 86q-30 26 -58 26q-1 0 -2 1q-28 0 -57 -25 q-30 -25 -55 -58t-47.5 -75t-37 -75t-22.5 -58q-31 -97 -31 -167q0 -42 12 -74q25 -74 99 -74q12 0 25 2q73 18 150.5 74.5t141.5 144.5l19 -14q-76 -109 -183.5 -176t-230.5 -70q-114 0 -174 72q-26 30 -35 51q-24 43 -24 107v12z" />
<glyph unicode="d" horiz-adv-x="788" d="M-16 236q2 72 22.5 144t61 139t90.5 106q82 67 178 67h1q94 0 167 -57q224 648 233 670q8 21 8 39q0 25 -17 42q-16 16 -34 16q-15 0 -32 -11q-4 -2 -9.5 4t-1.5 10q21 22 63 35q25 8 54 8q20 0 42 -4q54 -9 91 -47q48 -48 48 -132q0 -65 -29 -151q-231 -666 -340 -997 q-4 -13 -3 -24q0 -23 14 -39q12 -13 32 -13q15 0 34 8q106 59 158 178l21 -10q-40 -95 -117.5 -156t-155.5 -61q-94 0 -145 49q-93 -55 -199 -55q-68 0 -126 32t-85 91q-24 43 -24 107v12zM198 102q27 -70 98 -70q16 0 34 3q28 9 71 33q-39 50 -39 113q0 39 15 83 q10 25 119 344q0 4 -11 10q-19 15 -43.5 16t-54.5 -15.5t-59 -48.5t-59 -89.5t-54 -132.5q-30 -96 -30 -166q0 -46 13 -80z" />
<glyph unicode="e" horiz-adv-x="565" d="M2 121q-23 49 -23 114q1 67 25 151q48 164 148 243q50 41 104 57q45 14 80 13q8 -1 14 -1q40 -4 76 -18q37 -13 63.5 -43t26.5 -70q-2 -78 -87 -172t-249 -190q0 -9 -1 -17q-1 -73 31 -112q29 -36 82 -36q10 0 21 1q71 14 150.5 71.5t142.5 145.5l19 -14 q-76 -108 -181 -175.5t-233 -70.5q-67 0 -124 32t-85 91zM182 233q151 89 230.5 179t79.5 155q0 69 -48 69h-1q-53 -1 -121 -78q-75 -85 -113 -206q-21 -65 -27 -119z" />
<glyph unicode="f" horiz-adv-x="395" d="M-606 -408q0 46 22 101q21 43 58.5 65.5t79.5 22.5t74 -25.5t32 -68.5q0 -35 -24.5 -59.5t-59.5 -24.5t-60.5 24.5t-25.5 59.5q0 39 29 65q-58 -17 -80 -69q-21 -46 -21 -91q0 -49 24 -94.5t64 -75.5q35 -22 69 -22h7q38 3 69 18.5t58.5 45t47 59.5t32.5 61 q29 62 272 826q184 601 222 698q22 57 31 79t30 62.5t45 69.5t57 57q83 67 193 78q6 0 19.5 1t19.5 1q117 0 200 -73.5t83 -176.5q0 -46 -23 -100q-19 -42 -56.5 -65t-78.5 -23q-42 0 -75.5 24.5t-33.5 67.5q0 35 25.5 60.5t60.5 25.5t59.5 -25.5t24.5 -60.5q0 -38 -28 -63 q58 18 79 69q21 46 21 90q0 50 -24 96t-64 72q-40 22 -79.5 22t-69.5 -17t-57.5 -46t-45 -58.5t-31.5 -60.5q-24 -53 -127 -370h170v-25h-178q-94 -282 -133 -409q-195 -643 -225 -719q-28 -73 -41.5 -104.5t-46.5 -80t-76 -84.5q-98 -79 -232 -79q-117 0 -198.5 73 t-83.5 176z" />
<glyph unicode="g" horiz-adv-x="749" d="M-252 -406q0 54 23 101q19 42 56.5 65t78.5 23q42 0 75 -25t33 -67q0 -36 -25 -61t-61 -25q-35 0 -60.5 25.5t-25.5 60.5t31 63q-57 -14 -80 -69q-20 -44 -20 -91q0 -100 86 -167q37 -22 75.5 -22t69 16.5t58.5 45t47.5 58.5t33.5 61q33 80 142 418q-39 -8 -84 -8 q-133 0 -205 125q-24 43 -24 107v12q3 72 22.5 144t60 139t90.5 106q56 44 120 59q43 10 76 10q17 0 31 -2q44 -8 74 -26q38 -23 52 -49q33 48 92 65q31 9 59 9q42 0 78 -21q59 -35 68 -84q1 -3 -2.5 -4.5t-8 -1.5t-6.5 2q-18 19 -42 5.5t-46 -61.5q-24 -49 -59 -172 q-164 -561 -207 -667q-47 -121 -75 -166q-35 -56 -89 -100q-96 -80 -229 -80q-117 0 -200 73t-83 176zM183 118q24 -81 106 -81h6q123 383 149 461t39 102q-14 34 -46 34q-16 0 -35 -8q-69 -28 -132 -127q-42 -66 -67 -147q-29 -97 -29 -166q0 -39 9 -68z" />
<glyph unicode="h" horiz-adv-x="792" d="M-27 162q-2 12 -2 25q0 36 15 77q40 112 202.5 553t180.5 486q8 21 8 38q1 25 -17 43q-16 16 -35 16q-15 0 -32 -11q-2 -2 -5.5 0.5t-5 6t0.5 5.5q21 23 63 36q25 8 53 8q19 0 41 -4q54 -9 92 -46q48 -48 48 -130q0 -66 -31 -155q-36 -105 -184 -506q55 65 139 77 q14 2 28 2q68 0 125 -48q48 -45 48 -128q0 -67 -31 -157q-12 -35 -41.5 -116.5t-40.5 -116.5q-4 -13 -4 -24q0 -22 15 -36q22 -22 56 -2q41 26 78 70t60 94l22 -10q-41 -85 -110 -146.5t-142 -62.5q-60 0 -114 31q-30 19 -50.5 51.5t-26.5 79.5q-2 12 -2 24q0 37 15 78 q53 145 105 277q13 35 3 59.5t-33 27.5t-48 -10q-41 -33 -78 -92q-139 -373 -148 -409q-12 -39 10 -59q11 -10 26 -10t34 9q7 4 7 -1q0 -12 -22 -29l-14 -9q-18 -9 -43 -14q-12 -2 -28 -2t-36 2q-39 5 -73 27q-30 19 -50.5 51.5t-27.5 79.5z" />
<glyph unicode="i" horiz-adv-x="407" d="M-10 162q-2 12 -1 24q0 37 15 78q53 145 105 277q8 21 8 38q0 27 -18 45q-16 16 -34 16q-15 0 -32 -11q-2 -2 -5.5 0t-5 5.5t0.5 6.5q21 23 63 36q25 8 53 8q19 0 41 -4q54 -9 92 -46q48 -48 48 -130q0 -66 -31 -155q-68 -191 -82 -233q-11 -38 10 -58.5t57 -3.5 q41 26 78 70t60 94l22 -10q-41 -85 -110 -146.5t-142 -62.5q-60 0 -114 31q-30 19 -51 51.5t-27 79.5zM156 854q0 43 30.5 73.5t73.5 30.5q44 0 75.5 -30.5t31.5 -73.5q0 -44 -31.5 -75t-75.5 -31q-43 0 -73.5 31t-30.5 75z" />
<glyph unicode="j" horiz-adv-x="428" d="M-600 -406q0 49 25 101q19 42 56.5 65t78.5 23q42 0 75 -25t33 -67q0 -36 -25 -61t-61 -25q-35 0 -60.5 25.5t-25.5 60.5q0 34 29 63q-55 -14 -80 -69q-20 -44 -20 -91q0 -99 88 -167q36 -21 71 -21h8q39 3 69.5 17.5t57.5 44t45.5 58t32.5 60.5q18 43 91.5 266.5 t137.5 425.5l64 203q29 95 60.5 141t93.5 64q31 9 59 9q42 0 78 -21q59 -35 68 -84q1 -3 -2.5 -4.5t-8 -1.5t-6.5 2q-13 11 -25 11l-63 -67q-28 -55 -72 -207.5t-97 -337.5t-97 -294q-27 -71 -41.5 -103.5t-47 -79.5t-75.5 -83q-96 -80 -229 -80q-118 0 -200.5 73t-84.5 176 zM252 858q0 43 30.5 74t73.5 31q44 0 75.5 -31t31.5 -74q0 -44 -31.5 -75t-75.5 -31q-43 0 -73.5 31t-30.5 75z" />
<glyph unicode="k" horiz-adv-x="798" d="M-19 162q-2 12 -2 25q0 36 15 77q40 112 202.5 553t180.5 486q8 21 8 38q1 25 -17 43q-16 16 -35 16q-15 0 -32 -11q-2 -2 -5.5 0.5t-5 6t0.5 5.5q21 23 63 36q25 8 54 8q20 0 42 -4q54 -9 91 -46q47 -47 47 -129q0 -67 -31 -156q-6 -18 -40.5 -113t-91 -251t-95.5 -263 q35 35 82.5 97.5t80.5 105.5t76.5 77.5t83.5 35.5q42 -1 78 -31q35 -30 35 -75q0 -80 -74 -115q-18 -7 -35 -7q-44 0 -75 31.5t-31 75.5q0 24 14 49q-17 -17 -38.5 -41.5t-36.5 -43.5t-43 -55t-41 -52l18 6q38 13 72 13q68 0 122 -50q48 -45 48 -128q0 -67 -31 -157 q-19 -52 -35 -102q-11 -38 11 -59t57 -3q41 26 77 70t60 94l22 -10q-41 -85 -110 -146.5t-142 -62.5q-60 0 -114 31q-30 19 -50.5 51.5t-26.5 79.5q-2 12 -2 24q0 37 15 78q21 59 34.5 92.5t21.5 53.5q11 28 7 47.5t-16.5 30t-31 10.5t-35.5 -11q-38 -30 -80 -92 q-93 -257 -98 -278q-12 -39 9.5 -59.5t59.5 -0.5q8 4 7 -2q-1 -14 -24 -31q-6 -3 -11 -6q-18 -9 -43 -14q-12 -2 -28.5 -2t-36.5 2q-40 5 -73 27q-30 19 -50.5 51.5t-27.5 79.5z" />
<glyph unicode="l" horiz-adv-x="430" d="M-16 162q-1 11 -1 22q0 38 15 80q15 40 180 521.5t180 519.5q8 21 8 39q0 25 -17 42q-16 16 -34 16q-15 0 -32 -11q-3 -2 -9 4t-2 10q21 22 63 35q25 8 54 8q19 0 41 -4q54 -9 92 -47q48 -48 48 -130q0 -66 -31 -153q-20 -56 -170.5 -501t-167.5 -496q-4 -13 -3 -24 q0 -23 14 -39q12 -13 31 -13q14 0 33 8q50 28 92 74t66 104l23 -10q-40 -95 -117.5 -156t-155.5 -61q-75 0 -123 31q-30 19 -50.5 51.5t-26.5 79.5z" />
<glyph unicode="m" horiz-adv-x="1148" d="M-10 160q-2 12 -1 24q0 37 15 78q53 145 105 277q8 21 8 38q0 27 -18 45q-16 16 -34 16q-15 0 -32 -11q-2 -2 -5.5 0t-5 5.5t0.5 6.5q21 23 63 36q25 8 53 8q19 0 41 -4q54 -9 92 -46q33 -38 41 -78q33 44 65 73.5t73 41.5q37 13 71 13q67 0 121 -50q29 -26 43 -78 q35 54 89.5 89t118.5 38h6q60 0 114 -49q48 -45 48 -129q0 -66 -30 -156q-7 -19 -26 -71t-33 -91.5t-23 -70.5q-12 -37 9 -58t57 -4q84 52 137 164l23 -10q-39 -84 -108.5 -146t-141.5 -63q-65 0 -115 31q-30 19 -51 51.5t-28 79.5q-2 12 -2 25q0 36 15 77q21 57 58 154 t47 123q10 28 4.5 48t-18.5 31t-31.5 11t-32.5 -13q-43 -37 -82 -98v-12q0 -71 -31 -158q-6 -19 -36.5 -105.5t-42.5 -127.5q-12 -39 9.5 -59.5t59.5 -0.5q7 4 6 -1q-2 -12 -23 -31l-11 -7q-20 -9 -44.5 -14t-63.5 0t-73 27q-30 19 -50.5 51.5t-27.5 79.5q-2 12 -2 25 q0 36 15 77q63 174 104 277q13 35 3 59.5t-33 27.5t-48 -10q-46 -37 -82 -98q0 -7 1 -13q0 -73 -31 -157q-68 -191 -82 -233q-4 -13 -4 -25q0 -20 15 -34q12 -10 27 -10t34 9q7 4 5 -1q-4 -12 -27 -32q-5 -4 -9 -6q-17 -10 -42 -15q-12 -2 -27 -2q-17 1 -37 3q-39 6 -74 27 q-30 19 -51 51.5t-27 79.5z" />
<glyph unicode="n" horiz-adv-x="790" d="M0 162q-2 12 -1 24q0 37 15 78q53 145 105 277q8 21 8 38q0 27 -18 45q-16 16 -34 16q-15 0 -32 -11q-2 -2 -5.5 0t-5 5.5t0.5 6.5q21 23 63 36q25 8 54 8q20 0 42 -4q54 -9 91 -46q31 -31 41 -78q71 96 137 115q37 13 71 13q67 0 123 -50q47 -45 47 -128q0 -66 -30 -157 q-7 -19 -26 -71t-33 -91.5t-23 -70.5q-12 -37 9.5 -58t57.5 -4q41 26 77.5 70t58.5 94l22 -10q-39 -85 -108 -146.5t-142 -62.5q-60 0 -114 31q-30 19 -50.5 51.5t-27.5 79.5q-2 13 -2 26q0 36 14 76q21 58 58 155t46 122q13 35 2 60t-33 27.5t-46 -10.5q-43 -37 -82 -98 q0 -6 1 -13q0 -72 -32 -157q-11 -35 -40.5 -116.5t-41.5 -116.5q-4 -13 -3 -23q0 -22 15 -36q12 -10 27 -10t33 9q7 4 7 0q-1 -10 -26 -31q-6 -5 -12 -8q-16 -10 -42 -15q-12 -2 -27 -2q-17 1 -37 3q-39 6 -74 27q-30 19 -51 51.5t-27 79.5z" />
<glyph unicode="o" horiz-adv-x="702" d="M4 246v8q0 68 18 134q18 70 56 136t88 105q60 48 127 65q50 13 88 13q14 0 26 -2q47 -6 85 -25q107 -41 149 -164q16 -42 16 -95q0 -18 -2 -36q139 64 258 195l17 -17q-132 -143 -279 -209q-20 -110 -90 -213q-99 -144 -273 -144q-52 0 -110 13q-102 25 -149 119 q-24 47 -25 117zM176 88q10 -40 49 -49q29 -4 56 11t47.5 39t42 66t36 77t33.5 87q-95 19 -135 103q-15 43 -15 75q0 9 1 17q-34 -63 -55 -127q-41 -115 -56 -187q-9 -42 -9 -74q1 -22 5 -38zM313 502q0 -32 15 -70q34 -76 123 -88q0 2 2 8q44 130 51 191q2 17 2 32 q0 78 -53 84q-52 0 -96 -47t-44 -110z" />
<glyph unicode="p" horiz-adv-x="712" d="M-612 -408q0 56 22 101q19 42 56.5 65t78.5 23q42 0 75.5 -25t33.5 -67q0 -36 -25 -61t-61 -25q-35 0 -60.5 25.5t-25.5 60.5t31 63q-57 -14 -80 -69q-21 -46 -21 -91q0 -101 88 -167q36 -21 71 -21h9q38 3 68 17.5t57 44t45.5 58t32.5 60.5q27 60 82.5 223.5t104.5 317 t95.5 303t47.5 152.5q10 33 10 53q0 12 -3 19q-9 22 -38 20q-5 -2 -9.5 4t-0.5 10q23 20 62 26q11 2 23 2q29 0 63 -12q46 -16 75 -59q0 -1 1 -3t1 -3q61 46 125 46q2 0 4 -1q67 -1 127 -45.5t90 -116.5q15 -46 15 -98t-16 -110q-30 -115 -81 -189q-33 -48 -83.5 -78 t-104.5 -39q-39 -7 -78 -7q-14 0 -29 1q-52 3 -96 20q-67 -230 -104 -331q-2 -5 -12.5 -30.5t-12.5 -31.5t-11.5 -27.5t-13.5 -29t-13.5 -26t-16 -27t-17 -24t-20.5 -25.5l-22.5 -22.5t-26.5 -23.5q-95 -79 -230 -79q-117 0 -199.5 73t-82.5 176zM178 43q19 -6 37 -6 q27 0 53 13q44 23 76.5 73t56.5 107.5t41 121.5q25 96 25 165q0 37 -7 67q-16 66 -69 66q-15 0 -33 -5q-24 -9 -49 -31q9 -22 10.5 -47t-6 -62t-18 -74t-31.5 -99q-4 -12 -19 -63.5t-33 -111t-34 -114.5z" />
<glyph unicode="q" horiz-adv-x="806" d="M6 244q2 72 22 144t60.5 139t89.5 106q48 38 111 57q37 12 76 12q27 0 55 -6q68 -13 108 -67q35 44 90 61q31 9 59 9q42 0 78 -21q59 -35 68 -84q1 -3 -2 -4.5t-7.5 -1.5t-6.5 2q-18 20 -45 3t-45 -67q-2 -5 -10 -27.5t-13 -37.5q-224 -677 -248 -793q-7 -34 -9 -68 q-1 -9 -1 -19q0 -26 4 -55q6 -41 20.5 -72t46 -54t77.5 -27q77 3 135 48t72 124q2 8 2 25q0 42 -27 76q2 -10 2 -18q0 -28 -16 -50q-20 -29 -55 -34q-8 -2 -15 -2q-26 0 -49 16q-30 23 -33 60q-1 5 -1 10q0 32 21 58q24 29 64 29q51 0 92 -42t41 -103q0 -19 -2 -29 q-18 -91 -85 -141.5t-155 -50.5q-106 0 -196 73.5t-121 182.5q-14 50 -14 102q0 55 7 91q6 32 23 99q3 14 5 21q3 9 11.5 39t14.5 49q-37 -6 -72 -6q-132 0 -204 125q-24 43 -24 107q0 6 1 12zM209 159q0 -56 25 -93q24 -34 69 -34q6 0 12 1q35 109 148 438q27 93 49 133 q-14 33 -45 33q-15 0 -34 -7q-68 -28 -130 -127q-42 -66 -67 -147q-11 -36 -18 -85q-9 -56 -9 -112z" />
<glyph unicode="r" horiz-adv-x="653" d="M9 160q-1 11 -1 22q0 38 15 80q16 45 35 97t39 105.5t28 74.5q9 22 9 40q0 25 -17 43q-16 16 -34 16q-15 0 -32 -11q-2 -2 -5.5 0t-5 5.5t0.5 6.5q21 23 63 36q25 8 54 8q20 0 42 -4q54 -9 91 -46q44 -47 47 -127q12 33 27 61q59 109 151 109q11 0 35 -4q52 -10 80 -49.5 t28 -87.5q0 -58 -36.5 -100t-94.5 -42q-44 0 -75 31t-31 74q0 44 31 75t75 31q40 0 70.5 -27t34.5 -67q2 8 2 25q0 41 -22.5 72t-65.5 40q-12 4 -31 4q-77 0 -131 -96q-21 -38 -45.5 -100.5t-40 -109.5t-41.5 -127t-33 -101q-4 -14 -4 -25q0 -22 15 -36q12 -11 27 -10 q15 0 34 9q7 4 6 0q-1 -11 -24 -30q-7 -6 -13 -9q-16 -10 -42 -15q-12 -2 -28 -2q-17 1 -37 3q-39 6 -73 27q-30 19 -50.5 51.5t-26.5 79.5z" />
<glyph unicode="s" horiz-adv-x="608" d="M0 180q0 48 29 96t77 48q28 0 49 -20.5t21 -49.5t-21 -49.5t-49 -20.5q-25 0 -44 16t-25 40q-14 -32 -14 -60q4 -62 59 -102q33 -16 72 -16h4q42 1 83 25t67 77.5t30 140.5v17q0 82 -31 198q-14 60 -16 94q-82 -144 -205 -225l-12 21q72 49 121.5 109t97.5 147 q3 38 14.5 69.5t26.5 49t29.5 30t24.5 17.5l9 4l4 -7q-4 -26 -4.5 -47.5t3.5 -43t8.5 -39t15 -41.5t19.5 -42t25 -51t28 -59q36 -78 47 -160q4 -28 4 -57q0 -53 -14 -103q-21 -76 -74 -120q-64 -53 -148 -63q-28 -3 -53 -3q-52 0 -96 14q-66 20 -105 54q-57 46 -57 106v6z " />
<glyph unicode="t" horiz-adv-x="448" d="M-1 160q-2 12 -2 25q0 36 15 77q3 8 252 727q-11 4 -40.5 17.5t-52.5 20.5t-46 7q-36 0 -59 -20q36 0 61 -16t25 -52q0 -29 -20.5 -49t-49.5 -20q-28 0 -50.5 20t-23.5 51v5q0 41 30 72q32 33 87 34q21 0 43.5 -6.5t57 -20.5t46.5 -18q23 65 46 131t38 109.5t17 48.5 q8 21 8 39q0 25 -17 42q-16 16 -34 16q-15 0 -33 -11q-3 -2 -8 4t-2 10q21 22 63 35q25 8 54 8q20 0 42 -4q54 -9 93 -47q46 -46 46 -128q0 -66 -30 -155q-37 -112 -61 -178q58 -14 106 -14q49 0 86 16q-29 0 -49.5 21t-20.5 49q0 29 20.5 49t49.5 20t49.5 -20t20.5 -49 q0 -48 -34.5 -75t-77.5 -33q-21 -3 -42 -2q-24 0 -49 3q-42 4 -68 12q-34 -100 -104 -305.5t-114 -336t-50 -152.5q-5 -15 -5 -27q0 -22 14 -37q13 -14 33 -14q15 0 34 8q106 59 158 178l22 -10q-41 -95 -118.5 -156t-155.5 -61q-73 0 -121 31q-30 19 -51 51.5t-28 79.5z " />
<glyph unicode="u" horiz-adv-x="796" d="M0 160q-2 12 -1 24q0 37 15 78q21 61 61 166.5t42 110.5q8 22 8 40q0 26 -17 43q-16 16 -34 16q-15 0 -33 -11q-2 -2 -5.5 0t-5 5.5t0.5 6.5q22 23 64 36q25 8 54 8q19 0 41 -4q54 -9 93 -46q47 -47 47 -129q0 -67 -31 -156q-80 -223 -82 -231q-12 -37 9.5 -59.5 t56.5 -4.5q55 34 106 117v13q0 38 14 79q53 145 105 277q8 21 8 38q0 27 -18 45q-16 16 -34 16q-15 0 -32 -11q-2 -2 -5.5 0t-5 5.5t0.5 6.5q21 23 63 36q25 8 54 8q19 0 41 -4q54 -9 92 -46q47 -47 47 -129q0 -67 -31 -156q-12 -38 -42 -119.5t-40 -111.5 q-11 -36 8.5 -58.5t51.5 -7.5q89 55 143 166l20 -10q-40 -86 -108.5 -147.5t-140.5 -61.5q-66 0 -113 31q-54 31 -72 104q-63 -92 -149 -123q-20 -7 -43.5 -10t-58.5 3.5t-66 25.5q-30 19 -51 51.5t-27 79.5z" />
<glyph unicode="v" horiz-adv-x="649" d="M-8.5 630.5q-1.5 3.5 0.5 6.5q21 23 63 36q25 8 54 8q20 0 42 -4q54 -9 93 -46q45 -45 45 -128q0 -66 -29 -157q-10 -29 -45.5 -108.5t-46.5 -116.5q-12 -35 -7 -61.5t23 -32.5q3 46 38.5 96.5t65.5 77.5t100 83l18 15q104 80 159.5 141.5t55.5 122.5q0 30 -15 60 q-1 2 -4 7t-4 7q6 -18 6 -37q0 -43 -31 -74.5t-75 -31.5q-43 0 -75 31.5t-32 74.5q0 42 32 74.5t77 32.5q38 0 74.5 -20t54.5 -54q16 -40 16 -70q-1 -39 -18 -75.5t-56 -76.5t-66 -63t-83 -67q-104 -81 -159.5 -141.5t-55.5 -121.5q0 -10 -0.5 -13t-2 -4t-7.5 -1 q-29 0 -66 18.5t-65 55.5q-26 33 -38 75q-13 43 -15 77v12q-1 31 7 73q10 51 17.5 77t24.5 77.5t20 62.5q5 19 5 35q0 31 -19 53q-17 19 -36 19q-14 0 -30 -10q-2 -2 -5.5 0t-5 5.5z" />
<glyph unicode="w" horiz-adv-x="1118" d="M-6 162q-2 12 -1 24q0 37 15 78q53 145 105 277q8 21 8 38q0 27 -18 45q-16 16 -34 16q-15 0 -32 -11q-2 -2 -5.5 0t-5 5.5t0.5 6.5q21 23 63 36q25 8 53 8q19 0 41 -4q54 -9 92 -46q48 -48 48 -130q0 -66 -31 -155q-12 -38 -42 -119.5t-40 -111.5q-11 -37 9.5 -58 t55.5 -6q54 31 109 117v14q0 39 14 78q21 61 61 166.5t42 110.5q8 22 8 40q0 26 -17 43q-16 16 -34 16q-15 0 -33 -11q-2 -2 -5.5 0t-5 5.5t0.5 6.5q22 23 64 36q25 8 54 8q20 0 42 -4q54 -9 92 -46q47 -47 47 -129q0 -67 -31 -156q-2 -6 -41 -109.5t-51 -144.5 q-8 -28 -1 -47.5t27 -23.5q28 -1 55.5 24t52.5 74.5t42 91t39 104.5q16 43 45 119t39 103q8 22 8 40q0 26 -17 43q-16 16 -34 16q-15 0 -33 -11q-2 -2 -5.5 0t-5 5.5t0.5 6.5q21 23 63 36q25 8 54 8q20 0 42 -4q54 -9 93 -46q36 -36 36 -104q0 -92 -67 -244 q-33 -73 -82 -140.5t-108 -103.5q-88 -53 -194 -57q-7 0 -13 -1q-97 0 -166 46q-58 37 -74 104q-62 -91 -145 -123q-20 -8 -45 -11t-60 4t-67 26q-30 19 -51 51.5t-27 79.5z" />
<glyph unicode="x" horiz-adv-x="669" d="M-37 113q0 47 39.5 94t114.5 88q6 3 31.5 15t41.5 18q-43 93 -94 217q-39 85 -77 85q-7 0 -15 -3q-2 -2 -5.5 0t-5 5.5t0.5 6.5q22 24 76 41q32 10 69 10q26 0 54 -5q68 -12 106 -67q41 -58 113 -212q4 2 13 5t13 5q84 33 129 65q-31 -6 -60 5.5t-48 37.5q-19 28 -19 60 q0 10 2 20q8 43 43 68q28 20 60 20q10 0 20 -2q43 -8 68 -45q19 -28 19 -61q0 -12 -3 -25q-10 -55 -61 -92.5t-142 -73.5q-4 -1 -12 -4t-12 -4q70 -142 115 -223q10 -18 17 -29t19 -25t22 -20t23 -6.5t27 8.5q4 2 4 -1q-2 -13 -32 -44q-22 -23 -44 -33q-25 -12 -57 -16 q-11 -2 -23 -1q-23 -1 -49 5q-40 8 -73 35q-70 58 -170 270q-44 -16 -72 -33q-65 -33 -100 -71q22 10 45 10q14 1 28 -3q38 -10 60 -42q19 -28 19 -59q-1 -11 -3 -21q-8 -43 -43 -68q-29 -20 -59 -20q-27 0 -54 16q-59 34 -59 99z" />
<glyph unicode="y" horiz-adv-x="710" d="M-221 -412q0 56 22 101q19 42 57 65t79 23q42 0 75 -25t33 -67q0 -36 -25 -61t-61 -25q-35 0 -60.5 25.5t-25.5 60.5t31 63q-57 -14 -80 -70q-23 -51 -23 -90q3 -102 88 -168q37 -22 75 -22t69 17t59.5 45.5t48 58.5t33.5 61q24 51 170 508q-49 -57 -113 -78 q-33 -11 -66 -11q-53 0 -104 30q-30 19 -50.5 51.5t-26.5 79.5q-1 11 -1 22q0 38 15 80q63 174 104 277q8 22 8 39q0 26 -17 44q-16 16 -34 16q-15 0 -32 -11q-2 -2 -6 0t-5.5 5.5t0.5 6.5q21 23 63 36q25 8 54 8q20 0 41 -4q54 -9 92 -46q48 -48 48 -130q0 -66 -31 -155 q-73 -205 -82 -231q-11 -38 9.5 -59.5t55.5 -4.5q44 19 101 105q88 276 92 291q6 22 15 52t11 38q7 21 7 39q0 27 -16 44q-15 16 -32 16q-15 0 -32 -11q-5 -3 -10.5 2.5t-2.5 9.5q22 23 65 36q25 8 54 8q20 0 42 -4q53 -9 91 -46q40 -40 45 -98q1 -10 1 -21q0 -52 -21 -125 q-138 -498 -221 -704q-21 -55 -31 -78.5t-30.5 -63.5t-45 -69t-57.5 -56q-96 -80 -230 -80q-117 0 -199.5 73.5t-82.5 176.5z" />
<glyph unicode="z" horiz-adv-x="841" d="M37 578q0 34 14 59q49 88 152 88q50 -1 166.5 -33.5t173.5 -32.5q91 0 149 66q4 4 9.5 5t9.5 -3q9 -19 13 -64q1 -9 0 -18q0 -39 -12 -95q-15 -68 -53 -119.5t-82.5 -85.5t-127 -79.5t-130.5 -77.5q-60 -39 -98 -61q5 0 15.5 1t15.5 1q63 0 149 -35q153 -69 230 -69 q75 0 114 63l7 14q-8 -12 -25 -24q-28 -20 -59 -20q-10 0 -20 2q-43 8 -68 44q-20 27 -20 60q0 9 2 19q8 44 42 69q32 21 62 21q30 -1 60 -21q56 -39 56 -108v-7q0 -32 -16 -61q-43 -76 -135 -76q-80 0 -240 72q-72 32 -139 32q-70 0 -115 -36q-40 -34 -59 -84 q-6 -12 -19 10l-2 4q-12 20 -17 52q-3 21 -3 46q1 13 1 27q2 42 25 93t66 97q59 63 144 120t154.5 90.5t138 73t98.5 73.5q-52 -35 -121 -35q-62 0 -178.5 32.5t-161.5 32.5q-44 -2 -75 -18t-56 -57q-4 -8 -4 -15q10 17 24 25q26 20 58 20q10 0 20 -2q44 -8 70 -45 q19 -26 19 -57q-1 -10 -3 -21q-8 -43 -43 -69q-30 -20 -60 -20q-30 -1 -59 21q-57 42 -57 116z" />
<glyph unicode="{" horiz-adv-x="788" d="M91.5 -46.5q-0.5 43.5 11.5 95t31 104.5t50 123q67 151 81 196q41 135 -21 206l-15 12l-26 21q43 1 76 18.5t54.5 46.5t39 70.5t29.5 86t25 97.5l9 39q37 153 77 240.5t103 128.5q41 26 88 27t77 -11t53 -29l4 -4q2 0 2 -2q45 -31 63 -100q0 -9 -8 -12q-10 -3 -14 8 q-15 58 -54 86q-50 28 -89 -16.5t-76 -159.5q-12 -39 -37.5 -135.5t-45 -166.5t-53 -142t-69.5 -99q-34 -24 -62 -33q27 -31 41 -76q13 -44 -4 -122t-44 -145.5t-65.5 -159.5t-52.5 -130q-39 -108 -35 -170t60 -71q47 0 96 37q7 8 17 -2q8 -8 -2 -17q-52 -41 -111 -41h-4h-4 q-20 0 -43 5t-50 17.5t-51 38t-37 60.5q-14 37 -14.5 80.5z" />
<glyph unicode="}" horiz-adv-x="845" d="M27 -100q-4 8 8 12q8 4 12 -8q14 -56 53 -86q50 -28 89.5 17t76.5 159q12 38 37.5 135t45.5 167t54 142t70 99q26 21 59 32q-26 29 -40 76q-17 57 9.5 153t86 236t69.5 168q40 108 36 170.5t-60 71.5q-51 0 -96 -37q-7 -7 -15 2q-9 9 2 16q49 41 109 41h2h2h4q29 0 60 -8 t67.5 -37t52.5 -75q14 -37 14.5 -80.5t-11.5 -95t-31 -104.5t-50 -122q-67 -153 -81 -203q-38 -130 22 -200l14 -13l29 -20q-36 0 -65 -10t-52 -39.5t-36.5 -47.5t-30 -71t-21 -71.5t-20.5 -85.5q-5 -22 -8 -33q-37 -150 -78 -238.5t-105 -130.5q-41 -26 -88 -27t-76.5 10.5 t-52.5 28.5q0 4 -4 4l-2 2q-46 31 -61 101z" />
<glyph unicode="~" horiz-adv-x="446" d="M19 407q4 32 26 56q38 41 117 29q36 -5 97.5 -33t82.5 -35q32 -11 48.5 6.5t2.5 40.5q-1 1 2 4t4 2q14 -12 23 -37t5 -56.5t-26 -55.5q-41 -47 -114 -29q-33 7 -92.5 33.5t-90.5 34.5q-33 10 -49 -7t0 -38q2 -3 -1.5 -6.5t-6.5 -2.5q-14 12 -23 37t-5 57z" />
<glyph unicode="&#xa1;" horiz-adv-x="661" d="M78 332q35 103 120 290t152 341t76 215q33 -47 47.5 -112t15 -128.5t-14.5 -147t-31.5 -146.5t-47 -150.5t-49 -134.5t-50 -123.5t-38.5 -94.5q-21 -52 9 -81t67 -5q3 2 8.5 -4t1.5 -10q-21 -22 -63 -35t-95.5 -4t-91.5 47q-85 85 -16 283zM389 1333q0 46 33 79.5 t80 33.5t80.5 -33.5t33.5 -79.5q0 -47 -33.5 -80.5t-80.5 -33.5t-80 33.5t-33 80.5z" />
<glyph unicode="&#xa2;" horiz-adv-x="602" d="M-13.5 240q2.5 72 22.5 144t60.5 139t90.5 106q46 37 98 53.5t93.5 15t80.5 -15.5l37 76l8 -2l19 -11l-37 -73q27 -16 39 -25q51 -51 51 -117q0 -41 -22.5 -77.5t-63.5 -36.5q-29 0 -49.5 20t-20.5 49t20.5 49.5t49.5 20.5q41 0 61 -39v14q0 61 -28 86q-58 47 -114.5 16 t-103 -113.5t-71.5 -190.5q-17 -79 -15 -136.5t22 -90.5t50 -44t69 3.5t79 52.5q1 -1 7 -5t11 -7.5t4 -4.5q-82 -102 -215 -98q-6 0 -17 1t-16 1l-43 -88l-24 12l37 80q-70 15 -111 66q-26 30 -35 51q-26 47 -23.5 119z" />
<glyph unicode="&#xa3;" d="M-86 145q-2 34 26 59.5t80 28.5q9 3 17 3q70 -2 190 -52q36 51 80 144q3 6 23 64.5t57.5 168t69.5 199.5h-156v24h164q8 23 28 82t31 90q35 103 77 184t99.5 150.5t125.5 113t157 63t193 8.5q137 -9 227 -80.5t110 -165.5q9 -46 9 -84q0 -136 -87 -213.5t-196 -77.5 q-104 0 -158 66q-19 16 -26 47v2q0 2 -1 6t-1 6q0 36 25 61t61 25t61 -25t25 -61q0 -32 -21.5 -55.5t-54.5 -28.5q41 -18 90 -18q46 0 90.5 16.5t82.5 48.5t61.5 84t23.5 117q0 41 -8 80q-19 90 -111 157.5t-233 67.5q-29 0 -43 -2q-131 -26 -217 -191q-23 -45 -42.5 -93.5 t-30 -80.5t-28.5 -91t-28 -91q-18 -55 -39 -117h211v-24h-217q-100 -301 -156 -436q-58 -139 -143 -215q123 -47 231 -70q82 -16 166 -16q122 0 216 39.5t134 127.5q33 70 33 127q-1 76 -48 121t-112 45q-22 0 -43 -6q-49 -14 -73.5 -48.5t-26.5 -76.5q23 51 78 51 q35 0 60.5 -25.5t25.5 -60.5t-25.5 -60.5t-60.5 -25.5q-11 0 -15 2h-2q-40 7 -63 41.5t-21 77.5q-2 48 28 90t87 58q24 8 51 8q73 0 127.5 -53t54.5 -138q0 -66 -32 -137q-46 -97 -145.5 -139.5t-227.5 -42.5q-75 0 -170 18q-123 23 -248 74q-72 -56 -160 -76 q-82 -21 -176.5 0t-122.5 74q-2 0 -2 2q-16 26 -16 55zM-61 145q0 -33 24 -57q130 -69 248 76q-107 47 -174 47h-14q-84 -8 -84 -66z" />
<glyph unicode="&#xa8;" horiz-adv-x="466" d="M25 1374q0 34 22.5 57t54.5 23q34 0 57 -23t23 -57q0 -32 -23 -55t-57 -23q-32 0 -54.5 23t-22.5 55zM281 1374q0 34 22.5 57t54.5 23q33 0 56.5 -23.5t23.5 -56.5q0 -32 -24 -55t-56 -23t-54.5 23t-22.5 55z" />
<glyph unicode="&#xad;" horiz-adv-x="356" d="M96 371v35h158v-35h-158z" />
<glyph unicode="&#xb0;" horiz-adv-x="339" d="M57.5 1346.5q12.5 55.5 48.5 83.5q21 17 46.5 23t44.5 3t32 -10q17 -6 34 -21t24 -39q9 -32 0 -69.5t-29 -65.5q-23 -34 -64 -44t-75 3q-36 11 -53 41q-21 40 -8.5 95.5zM115.5 1259.5q0.5 -23.5 23.5 -28.5q36 -7 72 90q10 22 15.5 44t4.5 40.5t-12 24.5q-8 4 -19.5 -1 t-28.5 -26.5t-32 -59.5q-24 -60 -23.5 -83.5z" />
<glyph unicode="&#xb4;" horiz-adv-x="370" d="M4 1294q-8 2 8 8q89 31 144 71q63 46 108 112q4 -1 10 -3.5t22 -12t28.5 -22.5t24 -36.5t13.5 -52.5q-3 -2 -9.5 -6t-27.5 -14.5t-43 -19.5t-55.5 -18.5t-66.5 -14t-74.5 -3t-81.5 11.5z" />
<glyph unicode="&#xb8;" horiz-adv-x="231" d="M25 -33q0 20 20 37q22 16 59 16q4 0 12.5 -1t12.5 -1l-4 -16q-4 0 -11 -2t-10 -2q-29 0 -45 -12q-12 -7 -12 -19q0 -6 4 -8q6 -6 21 -6q14 0 22 4q24 4 37 4t29 -4q40 -8 56 -39.5t-2 -63.5t-64 -40q-28 -5 -39 -17t-8 -21l3 -9q-57 3 -75 47.5t26 76.5q14 11 72 19 q17 1 26 5.5t8.5 9.5t-3.5 9q-20 5 -29 5q-6 0 -31 -5q-20 -4 -28 -4q-20 0 -35 11q-12 9 -12 26z" />
<glyph unicode="&#xbf;" horiz-adv-x="1052" d="M8.5 449q-3.5 88 22.5 170t78 139q25 28 59.5 55t61 45t83 47.5t82.5 42t106.5 50t110.5 51.5q146 68 185 135v-13q25 -112 -23.5 -211t-183.5 -172q-26 -14 -81.5 -43.5t-74.5 -40t-59 -33.5t-55.5 -35.5t-42 -35t-39 -41.5t-27 -44.5t-25.5 -55.5q-28 -85 -21 -156.5 t44 -129t86.5 -96t105.5 -57.5q130 -33 255.5 3.5t197.5 134.5q37 52 55 125q20 84 -8.5 152.5t-89.5 111.5q-71 50 -154 53q-35 0 -65 -12q23 0 47 -17q29 -22 33.5 -56.5t-17.5 -63.5q-22 -28 -56 -33t-62 16q-43 32 -33 84v8q5 18 18 37q48 61 135.5 59.5t165.5 -57.5 q67 -46 99 -122t10 -167q-18 -73 -60 -131q-68 -94 -181.5 -136t-238.5 -23.5t-227 92.5q-15 10 -45 35q-80 67 -124 157.5t-47.5 178.5zM662 1376q0 46 32.5 79.5t79.5 33.5t81 -33.5t34 -79.5q0 -47 -34 -80.5t-81 -33.5t-79.5 33.5t-32.5 80.5z" />
<glyph unicode="&#xc0;" horiz-adv-x="1443" d="M111 227q0 47 22 92q26 53 70 77t92 24t92 -23q41 -26 41 -71q0 -35 -24 -59.5t-58 -24.5t-57 24.5t-23 59.5q0 45 41 71h-12q-98 0 -143 -86q-21 -47 -21 -84q0 -82 84 -143q101 -57 194.5 13t155.5 212q6 16 154.5 445t152.5 440q21 52 -6.5 81t-62.5 3q-6 -1 -10.5 4 t-1.5 10q21 22 61 34.5t91.5 3.5t88.5 -46q81 -79 17 -272q-4 -13 -13.5 -41.5t-25 -77.5t-27.5 -86q13 -5 25 -13t22.5 -19t17.5 -19t16 -20t11 -15q83 58 148 67q74 200 53 316q-25 131 -131 217q-119 83 -287 92h-31q-160 0 -279.5 -84t-158.5 -192q-20 -68 -20 -107 q0 -91 55.5 -145t124.5 -54q5 0 35 5q-30 9 -48.5 33t-15.5 53q3 35 28.5 57.5t59.5 19.5q35 -3 57 -28t19 -60q-3 -27 -14 -43h2q-40 -57 -123 -57q-78 0 -138.5 60t-60.5 159q0 47 19 115q41 114 165.5 202.5t292.5 88.5q59 0 74 -2q46 -1 96.5 -10.5t114 -33t119 -59 t108.5 -94.5t86 -133q36 -79 40 -169.5t-15.5 -174t-54 -183t-71 -187t-71.5 -196t-51 -200.5q-33 -211 82 -295q1 0 3.5 -1t4.5 -1l-2 -2q17 -11 36 -19t30 -10l10 -2q-100 -2 -175.5 23t-125 82.5t-67 144.5t2 214t78.5 286q27 75 135 350q-15 -3 -79 -31l-58 -39l-12 -8 l-6 12q-15 22 -33 45q-21 30 -53 43q-115 -355 -166 -481q-54 -124 -128 -198t-185 -99q-68 -17 -151.5 -5t-129.5 46q-48 26 -75 74t-27 104zM1028 1544q4 45 28.5 77t47.5 41l22 9q86 -127 246 -181q16 -5 17 -7q1 -1 -3 -2q-59 -13 -112 -11.5t-98 13.5t-78 25.5 t-52 24.5z" />
<glyph unicode="&#xc1;" horiz-adv-x="1443" d="M111 227q0 47 22 92q26 53 70 77t92 24t92 -23q41 -26 41 -71q0 -35 -24 -59.5t-58 -24.5t-57 24.5t-23 59.5q0 45 41 71h-12q-98 0 -143 -86q-21 -47 -21 -84q0 -82 84 -143q101 -57 194.5 13t155.5 212q6 16 154.5 445t152.5 440q21 52 -6.5 81t-62.5 3q-6 -1 -10.5 4 t-1.5 10q21 22 61 34.5t91.5 3.5t88.5 -46q81 -79 17 -272q-4 -13 -13.5 -41.5t-25 -77.5t-27.5 -86q13 -5 25 -13t22.5 -19t17.5 -19t16 -20t11 -15q83 58 148 67q74 200 53 316q-25 131 -131 217q-119 83 -287 92h-31q-160 0 -279.5 -84t-158.5 -192q-20 -68 -20 -107 q0 -91 55.5 -145t124.5 -54q5 0 35 5q-30 9 -48.5 33t-15.5 53q3 35 28.5 57.5t59.5 19.5q35 -3 57 -28t19 -60q-3 -27 -14 -43h2q-40 -57 -123 -57q-78 0 -138.5 60t-60.5 159q0 47 19 115q41 114 165.5 202.5t292.5 88.5q59 0 74 -2q46 -1 96.5 -10.5t114 -33t119 -59 t108.5 -94.5t86 -133q36 -79 40 -169.5t-15.5 -174t-54 -183t-71 -187t-71.5 -196t-51 -200.5q-33 -211 82 -295q1 0 3.5 -1t4.5 -1l-2 -2q17 -11 36 -19t30 -10l10 -2q-100 -2 -175.5 23t-125 82.5t-67 144.5t2 214t78.5 286q27 75 135 350q-15 -3 -79 -31l-58 -39l-12 -8 l-6 12q-15 22 -33 45q-21 30 -53 43q-115 -355 -166 -481q-54 -124 -128 -198t-185 -99q-68 -17 -151.5 -5t-129.5 46q-48 26 -75 74t-27 104zM1028 1479q-8 2 7 7q87 30 140 67q67 48 113 116q4 -1 10 -3.5t22 -12t28.5 -22.5t24 -36.5t13.5 -52.5q-3 -2 -9.5 -6 t-27.5 -14.5t-43 -19.5t-55.5 -18t-66.5 -13.5t-74.5 -3t-81.5 11.5z" />
<glyph unicode="&#xc2;" horiz-adv-x="1443" d="M111 227q0 47 22 92q26 53 70 77t92 24t92 -23q41 -26 41 -71q0 -35 -24 -59.5t-58 -24.5t-57 24.5t-23 59.5q0 45 41 71h-12q-98 0 -143 -86q-21 -47 -21 -84q0 -82 84 -143q101 -57 194.5 13t155.5 212q6 16 154.5 445t152.5 440q21 52 -6.5 81t-62.5 3q-6 -1 -10.5 4 t-1.5 10q21 22 61 34.5t91.5 3.5t88.5 -46q81 -79 17 -272q-4 -13 -13.5 -41.5t-25 -77.5t-27.5 -86q13 -5 25 -13t22.5 -19t17.5 -19t16 -20t11 -15q83 58 148 67q74 200 53 316q-25 131 -131 217q-119 83 -287 92h-31q-160 0 -279.5 -84t-158.5 -192q-20 -68 -20 -107 q0 -91 55.5 -145t124.5 -54q5 0 35 5q-30 9 -48.5 33t-15.5 53q3 35 28.5 57.5t59.5 19.5q35 -3 57 -28t19 -60q-3 -27 -14 -43h2q-40 -57 -123 -57q-78 0 -138.5 60t-60.5 159q0 47 19 115q41 114 165.5 202.5t292.5 88.5q59 0 74 -2q46 -1 96.5 -10.5t114 -33t119 -59 t108.5 -94.5t86 -133q36 -79 40 -169.5t-15.5 -174t-54 -183t-71 -187t-71.5 -196t-51 -200.5q-33 -211 82 -295q1 0 3.5 -1t4.5 -1l-2 -2q17 -11 36 -19t30 -10l10 -2q-100 -2 -175.5 23t-125 82.5t-67 144.5t2 214t78.5 286q27 75 135 350q-15 -3 -79 -31l-58 -39l-12 -8 l-6 12q-15 22 -33 45q-21 30 -53 43q-115 -355 -166 -481q-54 -124 -128 -198t-185 -99q-68 -17 -151.5 -5t-129.5 46q-48 26 -75 74t-27 104zM1065 1507q104 5 192 142q10 17 12 17q1 0 7 -27q1 -6 2 -11q30 -110 131 -158q-1 -1 -4 -2.5t-12 -5t-19 -5t-25.5 -0.5t-31.5 7 q-55 19 -72 60q-21 -31 -78 -41q-33 -6 -58.5 0t-34.5 15z" />
<glyph unicode="&#xc3;" horiz-adv-x="1443" d="M111 227q0 47 22 92q26 53 70 77t92 24t92 -23q41 -26 41 -71q0 -35 -24 -59.5t-58 -24.5t-57 24.5t-23 59.5q0 45 41 71h-12q-98 0 -143 -86q-21 -47 -21 -84q0 -82 84 -143q101 -57 194.5 13t155.5 212q6 16 154.5 445t152.5 440q21 52 -6.5 81t-62.5 3q-6 -1 -10.5 4 t-1.5 10q21 22 61 34.5t91.5 3.5t88.5 -46q81 -79 17 -272q-4 -13 -13.5 -41.5t-25 -77.5t-27.5 -86q13 -5 25 -13t22.5 -19t17.5 -19t16 -20t11 -15q83 58 148 67q74 200 53 316q-25 131 -131 217q-119 83 -287 92h-31q-160 0 -279.5 -84t-158.5 -192q-20 -68 -20 -107 q0 -91 55.5 -145t124.5 -54q5 0 35 5q-30 9 -48.5 33t-15.5 53q3 35 28.5 57.5t59.5 19.5q35 -3 57 -28t19 -60q-3 -27 -14 -43h2q-40 -57 -123 -57q-78 0 -138.5 60t-60.5 159q0 47 19 115q41 114 165.5 202.5t292.5 88.5q59 0 74 -2q46 -1 96.5 -10.5t114 -33t119 -59 t108.5 -94.5t86 -133q36 -79 40 -169.5t-15.5 -174t-54 -183t-71 -187t-71.5 -196t-51 -200.5q-33 -211 82 -295q1 0 3.5 -1t4.5 -1l-2 -2q17 -11 36 -19t30 -10l10 -2q-100 -2 -175.5 23t-125 82.5t-67 144.5t2 214t78.5 286q27 75 135 350q-15 -3 -79 -31l-58 -39l-12 -8 l-6 12q-15 22 -33 45q-21 30 -53 43q-115 -355 -166 -481q-54 -124 -128 -198t-185 -99q-68 -17 -151.5 -5t-129.5 46q-48 26 -75 74t-27 104zM1041 1580.5q4 31.5 26 55.5q38 41 117 29q36 -5 97.5 -33t82.5 -35q32 -11 48.5 7t2.5 41q-1 1 2 4t4 2q14 -12 23 -37t5 -57 t-26 -56q-40 -46 -114 -28q-33 7 -92.5 33t-90.5 34q-33 10 -49 -7t0 -38q1 -3 -2 -6t-6 -2q-14 12 -23 37t-5 56.5z" />
<glyph unicode="&#xc4;" horiz-adv-x="1443" d="M111 227q0 47 22 92q26 53 70 77t92 24t92 -23q41 -26 41 -71q0 -35 -24 -59.5t-58 -24.5t-57 24.5t-23 59.5q0 45 41 71h-12q-98 0 -143 -86q-21 -47 -21 -84q0 -82 84 -143q101 -57 194.5 13t155.5 212q6 16 154.5 445t152.5 440q21 52 -6.5 81t-62.5 3q-6 -1 -10.5 4 t-1.5 10q21 22 61 34.5t91.5 3.5t88.5 -46q81 -79 17 -272q-4 -13 -13.5 -41.5t-25 -77.5t-27.5 -86q13 -5 25 -13t22.5 -19t17.5 -19t16 -20t11 -15q83 58 148 67q74 200 53 316q-25 131 -131 217q-119 83 -287 92h-31q-160 0 -279.5 -84t-158.5 -192q-20 -68 -20 -107 q0 -91 55.5 -145t124.5 -54q5 0 35 5q-30 9 -48.5 33t-15.5 53q3 35 28.5 57.5t59.5 19.5q35 -3 57 -28t19 -60q-3 -27 -14 -43h2q-40 -57 -123 -57q-78 0 -138.5 60t-60.5 159q0 47 19 115q41 114 165.5 202.5t292.5 88.5q59 0 74 -2q46 -1 96.5 -10.5t114 -33t119 -59 t108.5 -94.5t86 -133q36 -79 40 -169.5t-15.5 -174t-54 -183t-71 -187t-71.5 -196t-51 -200.5q-33 -211 82 -295q1 0 3.5 -1t4.5 -1l-2 -2q17 -11 36 -19t30 -10l10 -2q-100 -2 -175.5 23t-125 82.5t-67 144.5t2 214t78.5 286q27 75 135 350q-15 -3 -79 -31l-58 -39l-12 -8 l-6 12q-15 22 -33 45q-21 30 -53 43q-115 -355 -166 -481q-54 -124 -128 -198t-185 -99q-68 -17 -151.5 -5t-129.5 46q-48 26 -75 74t-27 104zM1036 1554q0 34 23 57t55 23q34 0 57 -23t23 -57q0 -32 -23 -54.5t-57 -22.5q-32 0 -55 22.5t-23 54.5zM1292 1554q0 34 23 57 t55 23q33 0 56.5 -23.5t23.5 -56.5q0 -32 -23.5 -54.5t-56.5 -22.5q-32 0 -55 22.5t-23 54.5z" />
<glyph unicode="&#xc5;" horiz-adv-x="1443" d="M111 227q0 47 22 92q26 53 70 77t92 24t92 -23q41 -26 41 -71q0 -35 -24 -59.5t-58 -24.5t-57 24.5t-23 59.5q0 45 41 71h-12q-98 0 -143 -86q-21 -47 -21 -84q0 -82 84 -143q101 -57 194.5 13t155.5 212q6 16 154.5 445t152.5 440q21 52 -6.5 81t-62.5 3q-6 -1 -10.5 4 t-1.5 10q21 22 61 34.5t91.5 3.5t88.5 -46q81 -79 17 -272q-4 -13 -13.5 -41.5t-25 -77.5t-27.5 -86q13 -5 25 -13t22.5 -19t17.5 -19t16 -20t11 -15q83 58 148 67q74 200 53 316q-25 131 -131 217q-119 83 -287 92h-31q-160 0 -279.5 -84t-158.5 -192q-20 -68 -20 -107 q0 -91 55.5 -145t124.5 -54q5 0 35 5q-30 9 -48.5 33t-15.5 53q3 35 28.5 57.5t59.5 19.5q35 -3 57 -28t19 -60q-3 -27 -14 -43h2q-40 -57 -123 -57q-78 0 -138.5 60t-60.5 159q0 47 19 115q41 114 165.5 202.5t292.5 88.5q59 0 74 -2q46 -1 96.5 -10.5t114 -33t119 -59 t108.5 -94.5t86 -133q36 -79 40 -169.5t-15.5 -174t-54 -183t-71 -187t-71.5 -196t-51 -200.5q-33 -211 82 -295q1 0 3.5 -1t4.5 -1l-2 -2q17 -11 36 -19t30 -10l10 -2q-100 -2 -175.5 23t-125 82.5t-67 144.5t2 214t78.5 286q27 75 135 350q-15 -3 -79 -31l-58 -39l-12 -8 l-6 12q-15 22 -33 45q-21 30 -53 43q-115 -355 -166 -481q-54 -124 -128 -198t-185 -99q-68 -17 -151.5 -5t-129.5 46q-48 26 -75 74t-27 104zM1165.5 1543q12.5 55 48.5 83q21 17 46.5 23t44.5 3t32 -10q45 -15 58 -59q9 -32 0 -69.5t-29 -65.5q-23 -34 -64 -44t-75 3 q-36 11 -53 41q-21 40 -8.5 95zM1223.5 1456q0.5 -24 23.5 -29q22 -4 39 22t33 69q10 22 15.5 43.5t4.5 40t-12 24.5q-8 4 -19.5 -0.5t-28.5 -26t-32 -59.5q-24 -60 -23.5 -84z" />
<glyph unicode="&#xc7;" horiz-adv-x="974" d="M8.5 497.5q1.5 74.5 16 156.5t32 141.5t39.5 117.5q56 153 127 253.5t166 174.5q61 48 136 74.5t144 29.5t125 -3.5t101 -20.5q88 -30 147.5 -90.5t75.5 -128.5q8 -37 8 -82q-1 -68 -25.5 -123t-64.5 -88t-87 -51t-95 -18q-103 0 -158 67q-24 32 -24 60q0 34 24 58t58 24 q35 0 59.5 -24t24.5 -58q0 -32 -23 -56.5t-55 -25.5q41 -21 94 -21q45 0 87.5 16t79 46.5t59 80.5t22.5 113q0 49 -6 76q-12 57 -58 108.5t-112 77.5q-47 14 -93 14t-86.5 -12.5t-80 -35.5t-73 -53.5t-66 -69t-59.5 -78.5t-52.5 -86t-45.5 -88.5t-38 -87.5 q-40 -99 -65.5 -205t-31.5 -212t10.5 -194t65 -153t125.5 -88q36 -8 84 -8q123 0 193 53q49 35 73.5 78t24.5 82q-19 -43 -72 -43q-34 0 -59 24.5t-25 59.5q0 33 25 57t59 24q47 0 70 -41q27 -35 27 -77q0 -46 -28 -95.5t-81 -89.5q-62 -46 -158 -55h-2q-55 -6 -129 0 q-12 -4 -16 -4q-29 0 -45 -12q-12 -7 -12 -19q0 -6 4 -8q6 -6 20 -6q15 0 23 4q24 4 37 4q12 0 28 -4q40 -8 56 -39.5t-2 -63.5t-64 -40q-28 -5 -38.5 -17t-7.5 -21l3 -9q-57 3 -75 47.5t26 76.5q14 11 71 19q17 1 26 5.5t8.5 9.5t-3.5 9q-20 5 -28 5q-6 0 -31 -5 q-20 -4 -29 -4q-20 0 -35 11q-12 9 -12 26q0 20 20 37l13 6q-198 40 -291 189q-40 63 -58.5 143.5t-17 155z" />
<glyph unicode="&#xc8;" horiz-adv-x="1042" d="M83.5 430.5q-1.5 82.5 29 164.5t77 148.5t113 113t139.5 58.5q-4 5 -10.5 15.5t-19 43.5t-17.5 68t2 88t31 105q22 47 58 84t78.5 58.5t83 35.5t84 19.5t68 7.5t48.5 2q2 0 4 -2q95 0 169.5 -44.5t106.5 -119.5q29 -71 29 -135q0 -110 -77 -177t-173 -67q-78 0 -127 49 q-11 9 -22 31q0 1 -1 3t-1 3q-4 16 -4 25q0 34 25 58t59 24q33 0 56 -24t23 -58q0 -29 -17.5 -51t-43.5 -27q27 -10 53 -10q87 2 157.5 62t70.5 159q0 66 -27 129q-31 67 -99 107t-157 40q-21 0 -33 -2q-144 -16 -215 -162q-45 -96 -33 -188t46 -157.5t65 -78.5l-4 -12 q-121 -6 -215 -87.5t-129 -213.5q-13 -60 -12.5 -125.5t24.5 -130t59.5 -115.5t92.5 -83t123 -33q159 21 249.5 119.5t90.5 232.5q0 90 -52 138t-121 48q-26 0 -53 -10q30 -5 51 -27.5t21 -52.5q0 -34 -25 -58t-59 -24t-57 24t-23 58q0 50 45 81.5t100 31.5q76 0 135.5 -55 t59.5 -154q0 -151 -106.5 -258.5t-286.5 -120.5q-17 -1 -25.5 -2t-39.5 -1t-53 3t-59 10.5t-66 19.5t-65 33t-64.5 48.5t-56.5 67.5t-48 89q-28 78 -29.5 160.5zM756 983zM780 1561q2 29 13 52.5t25.5 36.5t28 22.5t23.5 12.5l9 3q85 -127 246 -181q18 -6 18 -8q-1 -1 -4 -2 q-100 -19 -180 -4.5t-129 41.5z" />
<glyph unicode="&#xc9;" horiz-adv-x="1042" d="M83.5 430.5q-1.5 82.5 29 164.5t77 148.5t113 113t139.5 58.5q-4 5 -10.5 15.5t-19 43.5t-17.5 68t2 88t31 105q22 47 58 84t78.5 58.5t83 35.5t84 19.5t68 7.5t48.5 2q2 0 4 -2q95 0 169.5 -44.5t106.5 -119.5q29 -71 29 -135q0 -110 -77 -177t-173 -67q-78 0 -127 49 q-11 9 -22 31q0 1 -1 3t-1 3q-4 16 -4 25q0 34 25 58t59 24q33 0 56 -24t23 -58q0 -29 -17.5 -51t-43.5 -27q27 -10 53 -10q87 2 157.5 62t70.5 159q0 66 -27 129q-31 67 -99 107t-157 40q-21 0 -33 -2q-144 -16 -215 -162q-45 -96 -33 -188t46 -157.5t65 -78.5l-4 -12 q-121 -6 -215 -87.5t-129 -213.5q-13 -60 -12.5 -125.5t24.5 -130t59.5 -115.5t92.5 -83t123 -33q159 21 249.5 119.5t90.5 232.5q0 90 -52 138t-121 48q-26 0 -53 -10q30 -5 51 -27.5t21 -52.5q0 -34 -25 -58t-59 -24t-57 24t-23 58q0 50 45 81.5t100 31.5q76 0 135.5 -55 t59.5 -154q0 -151 -106.5 -258.5t-286.5 -120.5q-17 -1 -25.5 -2t-39.5 -1t-53 3t-59 10.5t-66 19.5t-65 33t-64.5 48.5t-56.5 67.5t-48 89q-28 78 -29.5 160.5zM756 983zM846 1499q-8 2 8 8q89 31 144 71q63 46 108 112q4 -1 10 -3.5t22 -12t28.5 -22.5t24 -36.5 t13.5 -52.5q-3 -2 -9.5 -6t-27.5 -14.5t-43 -19.5t-55.5 -18.5t-66.5 -14t-74.5 -3t-81.5 11.5z" />
<glyph unicode="&#xca;" horiz-adv-x="1042" d="M83.5 430.5q-1.5 82.5 29 164.5t77 148.5t113 113t139.5 58.5q-4 5 -10.5 15.5t-19 43.5t-17.5 68t2 88t31 105q22 47 58 84t78.5 58.5t83 35.5t84 19.5t68 7.5t48.5 2q2 0 4 -2q95 0 169.5 -44.5t106.5 -119.5q29 -71 29 -135q0 -110 -77 -177t-173 -67q-78 0 -127 49 q-11 9 -22 31q0 1 -1 3t-1 3q-4 16 -4 25q0 34 25 58t59 24q33 0 56 -24t23 -58q0 -29 -17.5 -51t-43.5 -27q27 -10 53 -10q87 2 157.5 62t70.5 159q0 66 -27 129q-31 67 -99 107t-157 40q-21 0 -33 -2q-144 -16 -215 -162q-45 -96 -33 -188t46 -157.5t65 -78.5l-4 -12 q-121 -6 -215 -87.5t-129 -213.5q-13 -60 -12.5 -125.5t24.5 -130t59.5 -115.5t92.5 -83t123 -33q159 21 249.5 119.5t90.5 232.5q0 90 -52 138t-121 48q-26 0 -53 -10q30 -5 51 -27.5t21 -52.5q0 -34 -25 -58t-59 -24t-57 24t-23 58q0 50 45 81.5t100 31.5q76 0 135.5 -55 t59.5 -154q0 -151 -106.5 -258.5t-286.5 -120.5q-17 -1 -25.5 -2t-39.5 -1t-53 3t-59 10.5t-66 19.5t-65 33t-64.5 48.5t-56.5 67.5t-48 89q-28 78 -29.5 160.5zM756 983zM793 1518q104 5 192 141q9 16 12 17q1 1 2 -4q1 -2 2 -8l5 -26q30 -109 131 -157q-1 -1 -4 -2.5 t-12.5 -5t-19.5 -5t-25.5 -0.5t-31.5 7q-54 19 -71 59q-21 -31 -78 -41q-33 -6 -58.5 0t-34.5 15z" />
<glyph unicode="&#xcb;" horiz-adv-x="1042" d="M83.5 430.5q-1.5 82.5 29 164.5t77 148.5t113 113t139.5 58.5q-4 5 -10.5 15.5t-19 43.5t-17.5 68t2 88t31 105q22 47 58 84t78.5 58.5t83 35.5t84 19.5t68 7.5t48.5 2q2 0 4 -2q95 0 169.5 -44.5t106.5 -119.5q29 -71 29 -135q0 -110 -77 -177t-173 -67q-78 0 -127 49 q-11 9 -22 31q0 1 -1 3t-1 3q-4 16 -4 25q0 34 25 58t59 24q33 0 56 -24t23 -58q0 -29 -17.5 -51t-43.5 -27q27 -10 53 -10q87 2 157.5 62t70.5 159q0 66 -27 129q-31 67 -99 107t-157 40q-21 0 -33 -2q-144 -16 -215 -162q-45 -96 -33 -188t46 -157.5t65 -78.5l-4 -12 q-121 -6 -215 -87.5t-129 -213.5q-13 -60 -12.5 -125.5t24.5 -130t59.5 -115.5t92.5 -83t123 -33q159 21 249.5 119.5t90.5 232.5q0 90 -52 138t-121 48q-26 0 -53 -10q30 -5 51 -27.5t21 -52.5q0 -34 -25 -58t-59 -24t-57 24t-23 58q0 50 45 81.5t100 31.5q76 0 135.5 -55 t59.5 -154q0 -151 -106.5 -258.5t-286.5 -120.5q-17 -1 -25.5 -2t-39.5 -1t-53 3t-59 10.5t-66 19.5t-65 33t-64.5 48.5t-56.5 67.5t-48 89q-28 78 -29.5 160.5zM745 1583q0 34 23 57t55 23q34 0 57 -23t23 -57q0 -32 -23 -55t-57 -23q-32 0 -55 23t-23 55zM756 983z M1001 1583q0 34 23 57t55 23q33 0 56.5 -23.5t23.5 -56.5q0 -32 -24 -55t-56 -23t-55 23t-23 55z" />
<glyph unicode="&#xcc;" horiz-adv-x="552" d="M141 330q6 17 87 258.5t158.5 472t80.5 237.5q19 53 -10 82.5t-66 5.5q-2 -2 -5.5 0t-5 6t0.5 7q21 23 63 36t95.5 3.5t91.5 -47.5q85 -79 18 -283q-13 -40 -167 -499t-158 -470q-21 -53 7.5 -82.5t65.5 -5.5q3 2 7 -0.5t5 -6t-1 -5.5q-21 -23 -63 -36t-95.5 -4t-91.5 46 q-86 86 -17 285zM408 1579q4 45 28.5 77t47.5 41l22 9q86 -127 246 -181q16 -5 17 -7q1 -1 -3 -2q-59 -13 -112 -11.5t-98 13.5t-78 25.5t-52 24.5z" />
<glyph unicode="&#xcd;" horiz-adv-x="552" d="M141 330q6 17 87 258.5t158.5 472t80.5 237.5q19 53 -10 82.5t-66 5.5q-2 -2 -5.5 0t-5 6t0.5 7q21 23 63 36t95.5 3.5t91.5 -47.5q85 -79 18 -283q-13 -40 -167 -499t-158 -470q-21 -53 7.5 -82.5t65.5 -5.5q3 2 7 -0.5t5 -6t-1 -5.5q-21 -23 -63 -36t-95.5 -4t-91.5 46 q-86 86 -17 285zM428 1511q-8 2 8 8q89 31 144 71q63 46 108 112q4 -1 10 -3.5t22 -12t28.5 -22.5t24 -36.5t13.5 -52.5q-3 -2 -9.5 -6t-27.5 -14.5t-43 -19.5t-55.5 -18.5t-66.5 -14t-74.5 -3t-81.5 11.5z" />
<glyph unicode="&#xce;" horiz-adv-x="552" d="M141 330q6 17 87 258.5t158.5 472t80.5 237.5q19 53 -10 82.5t-66 5.5q-2 -2 -5.5 0t-5 6t0.5 7q21 23 63 36t95.5 3.5t91.5 -47.5q85 -79 18 -283q-13 -40 -167 -499t-158 -470q-21 -53 7.5 -82.5t65.5 -5.5q3 2 7 -0.5t5 -6t-1 -5.5q-21 -23 -63 -36t-95.5 -4t-91.5 46 q-86 86 -17 285zM424 1534q104 5 192 141q10 17 12 18q1 0 6 -27q2 -6 3 -11q30 -110 131 -158q-1 -1 -4 -2.5t-12 -5t-19 -5t-25.5 -0.5t-31.5 7q-55 19 -72 59q-21 -31 -78 -41q-33 -6 -58.5 0t-34.5 15z" />
<glyph unicode="&#xcf;" horiz-adv-x="552" d="M141 330q6 17 87 258.5t158.5 472t80.5 237.5q19 53 -10 82.5t-66 5.5q-2 -2 -5.5 0t-5 6t0.5 7q21 23 63 36t95.5 3.5t91.5 -47.5q85 -79 18 -283q-13 -40 -167 -499t-158 -470q-21 -53 7.5 -82.5t65.5 -5.5q3 2 7 -0.5t5 -6t-1 -5.5q-21 -23 -63 -36t-95.5 -4t-91.5 46 q-86 86 -17 285zM410 1602q0 34 22.5 56.5t54.5 22.5q34 0 57 -22.5t23 -56.5q0 -32 -23 -55t-57 -23q-32 0 -54.5 23t-22.5 55zM645 1602q0 34 22.5 56.5t55.5 22.5t56.5 -23t23.5 -56q0 -32 -24 -55t-56 -23t-55 23t-23 55z" />
<glyph unicode="&#xd1;" horiz-adv-x="1259" d="M-72 219q0 45 25 100q26 53 71.5 78t96.5 25q58 -3 94 -25q45 -23 45 -73q0 -35 -25.5 -60.5t-60.5 -25.5t-60.5 25.5t-25.5 60.5q0 50 45 73h-12q-105 0 -148 -88q-22 -49 -22 -90q0 -79 58 -137.5t141 -58.5q16 0 24 2q95 11 156 86t125 264q192 579 317 940 q3 41 -24 60t-58 -1q-2 -2 -5.5 0t-5 5.5t0.5 6.5q16 18 45.5 32t65 21t74 -7.5t65.5 -51.5q25 -36 36 -139.5t23 -330.5q3 -53 4 -81q8 -136 26 -373t19 -257q144 428 305 909q61 182 125 252.5t164 79.5q8 2 25 2q91 0 157 -67t66 -158q0 -50 -22 -95q-26 -53 -71.5 -77.5 t-96.5 -24.5q-61 3 -95 24q-45 23 -45 74q0 35 25.5 60.5t60.5 25.5t60.5 -25.5t25.5 -60.5q0 -23 -12.5 -43t-32.5 -31h13q104 0 147 89q21 43 21 84q0 81 -60.5 141.5t-140.5 60.5q-4 0 -11 -1t-10 -1q-64 -8 -105 -33t-82 -92t-83 -190q-34 -99 -163 -484t-169 -501 q-6 -47 18 -75t56 -7q3 2 8 -4.5t2 -10.5q-21 -23 -64.5 -36.5t-97.5 -4t-88 49.5q-39 43 -52.5 161.5t-39.5 546.5q-12 246 -12 482q-46 -136 -154.5 -455t-134.5 -397q-64 -192 -129 -273.5t-168 -91.5q-10 -2 -28 -2q-94 0 -158 65t-64 154zM1027 1580.5q4 31.5 26 55.5 q38 41 116 29q36 -5 98 -33t83 -35q32 -11 48.5 7t2.5 41q-1 1 2 4t4 2q14 -12 23 -37t5 -57t-26 -56q-40 -46 -115 -28q-33 7 -92 33t-90 34q-33 10 -49 -7t0 -38q1 -3 -2 -6t-6 -2q-14 12 -23 37t-5 56.5z" />
<glyph unicode="&#xd2;" d="M130.5 608q12.5 103 33 184t49.5 158q60 158 133 262.5t170 180.5q64 50 143 77t151 30t130 -4.5t100 -22.5q95 -28 156.5 -90.5t75.5 -137.5q8 -39 8 -84q0 -69 -25.5 -126t-67 -91.5t-90.5 -53.5t-100 -20q-104 0 -161 72q-25 29 -25 62q0 35 25.5 60.5t60.5 25.5 t60.5 -25.5t25.5 -60.5t-24 -59.5t-58 -26.5q48 -23 96 -23q101 2 179.5 72t78.5 194q0 41 -8 80q-11 58 -56 111t-116 84q-350 102 -618 -518q-44 -103 -76 -208t-50 -206t-14.5 -188.5t27 -153.5t78.5 -102.5t137 -34.5q180 16 328 286q50 91 86.5 176.5t53.5 143 t26.5 102t10.5 65.5l1 21q7 2 19 5.5t45 19.5t62 37t61.5 60t52.5 85q1 -8 2.5 -22t0 -63t-9 -103.5t-30 -141t-56.5 -176.5q-32 -86 -75 -162t-105 -147.5t-134.5 -121t-167.5 -75.5t-200 -16v-1l-2 1q-61 5 -116.5 25.5t-113 68t-97.5 117.5q-49 86 -66 191t-4.5 208z M887 1622q4 45 28.5 77t46.5 41l23 9q86 -127 246 -181q16 -5 17 -7q1 -1 -3 -2q-59 -13 -112 -11.5t-98 13.5t-78 25.5t-51 24.5z" />
<glyph unicode="&#xd3;" d="M130.5 608q12.5 103 33 184t49.5 158q60 158 133 262.5t170 180.5q64 50 143 77t151 30t130 -4.5t100 -22.5q95 -28 156.5 -90.5t75.5 -137.5q8 -39 8 -84q0 -69 -25.5 -126t-67 -91.5t-90.5 -53.5t-100 -20q-104 0 -161 72q-25 29 -25 62q0 35 25.5 60.5t60.5 25.5 t60.5 -25.5t25.5 -60.5t-24 -59.5t-58 -26.5q48 -23 96 -23q101 2 179.5 72t78.5 194q0 41 -8 80q-11 58 -56 111t-116 84q-350 102 -618 -518q-44 -103 -76 -208t-50 -206t-14.5 -188.5t27 -153.5t78.5 -102.5t137 -34.5q180 16 328 286q50 91 86.5 176.5t53.5 143 t26.5 102t10.5 65.5l1 21q7 2 19 5.5t45 19.5t62 37t61.5 60t52.5 85q1 -8 2.5 -22t0 -63t-9 -103.5t-30 -141t-56.5 -176.5q-32 -86 -75 -162t-105 -147.5t-134.5 -121t-167.5 -75.5t-200 -16v-1l-2 1q-61 5 -116.5 25.5t-113 68t-97.5 117.5q-49 86 -66 191t-4.5 208z M952 1546q-8 2 8 8q89 31 144 71q63 46 108 112q4 -1 10 -3.5t22 -12t29 -22.5t24.5 -36.5t13.5 -52.5q-3 -2 -9.5 -6t-27.5 -14.5t-43 -19.5t-55.5 -18.5t-67 -14t-75 -3t-81.5 11.5z" />
<glyph unicode="&#xd4;" d="M130.5 608q12.5 103 33 184t49.5 158q60 158 133 262.5t170 180.5q64 50 143 77t151 30t130 -4.5t100 -22.5q95 -28 156.5 -90.5t75.5 -137.5q8 -39 8 -84q0 -69 -25.5 -126t-67 -91.5t-90.5 -53.5t-100 -20q-104 0 -161 72q-25 29 -25 62q0 35 25.5 60.5t60.5 25.5 t60.5 -25.5t25.5 -60.5t-24 -59.5t-58 -26.5q48 -23 96 -23q101 2 179.5 72t78.5 194q0 41 -8 80q-11 58 -56 111t-116 84q-350 102 -618 -518q-44 -103 -76 -208t-50 -206t-14.5 -188.5t27 -153.5t78.5 -102.5t137 -34.5q180 16 328 286q50 91 86.5 176.5t53.5 143 t26.5 102t10.5 65.5l1 21q7 2 19 5.5t45 19.5t62 37t61.5 60t52.5 85q1 -8 2.5 -22t0 -63t-9 -103.5t-30 -141t-56.5 -176.5q-32 -86 -75 -162t-105 -147.5t-134.5 -121t-167.5 -75.5t-200 -16v-1l-2 1q-61 5 -116.5 25.5t-113 68t-97.5 117.5q-49 86 -66 191t-4.5 208z M891 1591q104 5 192 142q10 17 12 17q1 0 7 -27q1 -6 2 -11q30 -110 131 -158q-1 -1 -4 -2.5t-12 -5t-19 -5t-25.5 -0.5t-31.5 7q-55 19 -72 60q-21 -31 -78 -41q-33 -6 -58.5 0t-34.5 15z" />
<glyph unicode="&#xd5;" d="M130.5 608q12.5 103 33 184t49.5 158q60 158 133 262.5t170 180.5q64 50 143 77t151 30t130 -4.5t100 -22.5q95 -28 156.5 -90.5t75.5 -137.5q8 -39 8 -84q0 -69 -25.5 -126t-67 -91.5t-90.5 -53.5t-100 -20q-104 0 -161 72q-25 29 -25 62q0 35 25.5 60.5t60.5 25.5 t60.5 -25.5t25.5 -60.5t-24 -59.5t-58 -26.5q48 -23 96 -23q101 2 179.5 72t78.5 194q0 41 -8 80q-11 58 -56 111t-116 84q-350 102 -618 -518q-44 -103 -76 -208t-50 -206t-14.5 -188.5t27 -153.5t78.5 -102.5t137 -34.5q180 16 328 286q50 91 86.5 176.5t53.5 143 t26.5 102t10.5 65.5l1 21q7 2 19 5.5t45 19.5t62 37t61.5 60t52.5 85q1 -8 2.5 -22t0 -63t-9 -103.5t-30 -141t-56.5 -176.5q-32 -86 -75 -162t-105 -147.5t-134.5 -121t-167.5 -75.5t-200 -16v-1l-2 1q-61 5 -116.5 25.5t-113 68t-97.5 117.5q-49 86 -66 191t-4.5 208z M939 1662.5q4 31.5 26 55.5q38 41 116 29q36 -5 98 -33t83 -35q32 -11 48.5 6.5t2.5 40.5q-1 1 0 3t3 3.5t3 0.5q14 -12 23 -37t5 -57t-26 -56q-41 -47 -115 -29q-33 7 -92 33.5t-90 34.5q-33 10 -49 -7t0 -38q1 -3 -2 -6t-6 -2q-14 12 -23 37t-5 56.5z" />
<glyph unicode="&#xd6;" d="M130.5 608q12.5 103 33 184t49.5 158q60 158 133 262.5t170 180.5q64 50 143 77t151 30t130 -4.5t100 -22.5q95 -28 156.5 -90.5t75.5 -137.5q8 -39 8 -84q0 -69 -25.5 -126t-67 -91.5t-90.5 -53.5t-100 -20q-104 0 -161 72q-25 29 -25 62q0 35 25.5 60.5t60.5 25.5 t60.5 -25.5t25.5 -60.5t-24 -59.5t-58 -26.5q48 -23 96 -23q101 2 179.5 72t78.5 194q0 41 -8 80q-11 58 -56 111t-116 84q-350 102 -618 -518q-44 -103 -76 -208t-50 -206t-14.5 -188.5t27 -153.5t78.5 -102.5t137 -34.5q180 16 328 286q50 91 86.5 176.5t53.5 143 t26.5 102t10.5 65.5l1 21q7 2 19 5.5t45 19.5t62 37t61.5 60t52.5 85q1 -8 2.5 -22t0 -63t-9 -103.5t-30 -141t-56.5 -176.5q-32 -86 -75 -162t-105 -147.5t-134.5 -121t-167.5 -75.5t-200 -16v-1l-2 1q-61 5 -116.5 25.5t-113 68t-97.5 117.5q-49 86 -66 191t-4.5 208z M887 1649q0 34 23 57t55 23q34 0 56.5 -23t22.5 -57q0 -33 -23 -55.5t-56 -22.5q-32 0 -55 23t-23 55zM1143 1649q0 34 23 57t55 23q33 0 56 -23.5t23 -56.5q0 -32 -23.5 -55t-55.5 -23t-55 23t-23 55z" />
<glyph unicode="&#xd9;" horiz-adv-x="1329" d="M41 1274q0 96 63 156q71 65 187 65q74 0 129 -23t86 -64t48 -93t17 -113.5t-10.5 -122.5t-30.5 -123q-36 -109 -75.5 -235.5t-63.5 -205.5t-26 -89q-16 -70 -17.5 -134t11.5 -119.5t48.5 -94t90.5 -51.5q10 -2 28 -2q135 0 224 141q-111 159 -52 403q18 76 65 221.5 t103 307t56 162.5q63 202 178 219q80 11 141 -39.5t68 -102.5q0 -8 -12 -7q-5 0 -5 3q-10 26 -33 34t-46.5 -8t-32.5 -52q-2 -7 -137.5 -435t-139.5 -446q-17 -72 -18 -138t14.5 -122.5t55 -94t100.5 -46.5q73 -6 127 33t67 118q2 10 2 29q0 87 -86 141q27 -49 -4 -94 q-22 -29 -57 -35t-64 14q-28 22 -33 57t15 64q33 37 78 37.5t83 -26t64.5 -70.5t26.5 -88q0 -21 -2 -33q-16 -89 -78 -132.5t-138 -40t-153 38.5t-125 91q-2 3 -7 8t-7 8q-59 -94 -154.5 -128.5t-195.5 -4t-174 116.5q-143 166 -80 440q12 48 113.5 345.5t127.5 390.5 q20 72 -6 118.5t-104 46.5q-49 1 -94.5 -15t-73.5 -44q-57 -51 -57 -137q0 -80 57 -125q-8 16 -8 37q0 36 25 61t61 25q35 0 59.5 -25.5t24.5 -60.5t-24.5 -60.5t-59.5 -25.5q-67 0 -113.5 51.5t-46.5 122.5zM557 1579q4 45 28.5 77t46.5 41l23 9q86 -127 246 -181 q16 -5 17 -7q1 -1 -3 -2q-59 -13 -112 -11.5t-98 13.5t-78 25.5t-51 24.5z" />
<glyph unicode="&#xda;" horiz-adv-x="1329" d="M41 1274q0 96 63 156q71 65 187 65q74 0 129 -23t86 -64t48 -93t17 -113.5t-10.5 -122.5t-30.5 -123q-36 -109 -75.5 -235.5t-63.5 -205.5t-26 -89q-16 -70 -17.5 -134t11.5 -119.5t48.5 -94t90.5 -51.5q10 -2 28 -2q135 0 224 141q-111 159 -52 403q18 76 65 221.5 t103 307t56 162.5q63 202 178 219q80 11 141 -39.5t68 -102.5q0 -8 -12 -7q-5 0 -5 3q-10 26 -33 34t-46.5 -8t-32.5 -52q-2 -7 -137.5 -435t-139.5 -446q-17 -72 -18 -138t14.5 -122.5t55 -94t100.5 -46.5q73 -6 127 33t67 118q2 10 2 29q0 87 -86 141q27 -49 -4 -94 q-22 -29 -57 -35t-64 14q-28 22 -33 57t15 64q33 37 78 37.5t83 -26t64.5 -70.5t26.5 -88q0 -21 -2 -33q-16 -89 -78 -132.5t-138 -40t-153 38.5t-125 91q-2 3 -7 8t-7 8q-59 -94 -154.5 -128.5t-195.5 -4t-174 116.5q-143 166 -80 440q12 48 113.5 345.5t127.5 390.5 q20 72 -6 118.5t-104 46.5q-49 1 -94.5 -15t-73.5 -44q-57 -51 -57 -137q0 -80 57 -125q-8 16 -8 37q0 36 25 61t61 25q35 0 59.5 -25.5t24.5 -60.5t-24.5 -60.5t-59.5 -25.5q-67 0 -113.5 51.5t-46.5 122.5zM621 1470q-8 2 8 8q89 31 144 71q63 46 108 112q4 -1 10 -3.5 t22 -12t28.5 -22.5t24 -36.5t13.5 -52.5q-3 -2 -9.5 -6t-27.5 -14.5t-43 -19.5t-55.5 -18.5t-66.5 -14t-74.5 -3t-81.5 11.5z" />
<glyph unicode="&#xdb;" horiz-adv-x="1329" d="M41 1274q0 96 63 156q71 65 187 65q74 0 129 -23t86 -64t48 -93t17 -113.5t-10.5 -122.5t-30.5 -123q-36 -109 -75.5 -235.5t-63.5 -205.5t-26 -89q-16 -70 -17.5 -134t11.5 -119.5t48.5 -94t90.5 -51.5q10 -2 28 -2q135 0 224 141q-111 159 -52 403q18 76 65 221.5 t103 307t56 162.5q63 202 178 219q80 11 141 -39.5t68 -102.5q0 -8 -12 -7q-5 0 -5 3q-10 26 -33 34t-46.5 -8t-32.5 -52q-2 -7 -137.5 -435t-139.5 -446q-17 -72 -18 -138t14.5 -122.5t55 -94t100.5 -46.5q73 -6 127 33t67 118q2 10 2 29q0 87 -86 141q27 -49 -4 -94 q-22 -29 -57 -35t-64 14q-28 22 -33 57t15 64q33 37 78 37.5t83 -26t64.5 -70.5t26.5 -88q0 -21 -2 -33q-16 -89 -78 -132.5t-138 -40t-153 38.5t-125 91q-2 3 -7 8t-7 8q-59 -94 -154.5 -128.5t-195.5 -4t-174 116.5q-143 166 -80 440q12 48 113.5 345.5t127.5 390.5 q20 72 -6 118.5t-104 46.5q-49 1 -94.5 -15t-73.5 -44q-57 -51 -57 -137q0 -80 57 -125q-8 16 -8 37q0 36 25 61t61 25q35 0 59.5 -25.5t24.5 -60.5t-24.5 -60.5t-59.5 -25.5q-67 0 -113.5 51.5t-46.5 122.5zM575 1528q105 5 193 141q1 1 2 3q8 15 10 15q1 0 3 -10 q2 -16 5 -28q30 -110 132 -158q-1 -1 -4 -2.5t-12.5 -5t-19.5 -5t-25.5 -0.5t-31.5 7q-54 19 -71 59q-21 -31 -78 -41q-33 -6 -58.5 0t-35.5 15z" />
<glyph unicode="&#xdc;" horiz-adv-x="1329" d="M41 1274q0 96 63 156q71 65 187 65q74 0 129 -23t86 -64t48 -93t17 -113.5t-10.5 -122.5t-30.5 -123q-36 -109 -75.5 -235.5t-63.5 -205.5t-26 -89q-16 -70 -17.5 -134t11.5 -119.5t48.5 -94t90.5 -51.5q10 -2 28 -2q135 0 224 141q-111 159 -52 403q18 76 65 221.5 t103 307t56 162.5q63 202 178 219q80 11 141 -39.5t68 -102.5q0 -8 -12 -7q-5 0 -5 3q-10 26 -33 34t-46.5 -8t-32.5 -52q-2 -7 -137.5 -435t-139.5 -446q-17 -72 -18 -138t14.5 -122.5t55 -94t100.5 -46.5q73 -6 127 33t67 118q2 10 2 29q0 87 -86 141q27 -49 -4 -94 q-22 -29 -57 -35t-64 14q-28 22 -33 57t15 64q33 37 78 37.5t83 -26t64.5 -70.5t26.5 -88q0 -21 -2 -33q-16 -89 -78 -132.5t-138 -40t-153 38.5t-125 91q-2 3 -7 8t-7 8q-59 -94 -154.5 -128.5t-195.5 -4t-174 116.5q-143 166 -80 440q12 48 113.5 345.5t127.5 390.5 q20 72 -6 118.5t-104 46.5q-49 1 -94.5 -15t-73.5 -44q-57 -51 -57 -137q0 -80 57 -125q-8 16 -8 37q0 36 25 61t61 25q35 0 59.5 -25.5t24.5 -60.5t-24.5 -60.5t-59.5 -25.5q-67 0 -113.5 51.5t-46.5 122.5zM551 1575q0 34 23 57t55 23q34 0 57 -23t23 -57q0 -32 -23 -55 t-57 -23q-32 0 -55 23t-23 55zM807 1575q0 34 23 57t55 23q33 0 56.5 -23.5t23.5 -56.5q0 -32 -24 -55t-56 -23t-55 23t-23 55z" />
<glyph unicode="&#xdd;" horiz-adv-x="991" d="M94 1268q0 94 64 155q72 66 186 66q34 0 92 -14q292 -87 152 -502q-45 -143 -62 -203q-29 -106 17.5 -171t138.5 -46q46 132 111 326q139 411 149 440q21 52 -8 81t-66 5q-2 -2 -5.5 0.5t-5 6t0.5 5.5q21 23 63 36.5t95.5 4.5t91.5 -47q88 -88 16 -283q-13 -37 -101 -295 t-153 -427.5t-104 -229.5q-55 -100 -142 -145t-185 -35t-199 67q-52 31 -81.5 77.5t-29.5 101.5q0 49 23 96q26 54 71 78t96 24q52 0 94 -23.5t42 -72.5q0 -35 -25.5 -60.5t-60.5 -25.5t-59.5 25.5t-24.5 60.5q0 51 41 74h-7q-101 0 -147 -90q-20 -41 -20 -86q0 -90 86 -150 q106 -57 202.5 15.5t159.5 218.5q19 47 72 196q-107 -38 -205 10q-104 53 -138.5 165t-4.5 216q26 90 72.5 218t58.5 167q21 76 1.5 113t-53.5 47q-53 15 -118.5 2.5t-108.5 -55.5q-57 -51 -57 -137q0 -80 57 -125q-8 16 -8 37q0 35 24.5 60.5t59.5 25.5q36 0 61 -25t25 -61 t-25 -61t-61 -25q-66 0 -112 52t-46 122zM600 1511q-8 2 8 8q89 31 144 71q63 46 108 112q4 -1 10 -3.5t22 -12t28.5 -22.5t24 -36.5t13.5 -52.5q-3 -2 -9.5 -6t-27.5 -14.5t-43 -19.5t-55.5 -18.5t-66.5 -14t-74.5 -3t-81.5 11.5z" />
<glyph unicode="&#xe0;" horiz-adv-x="815" d="M-3.5 236q2.5 72 22.5 144t60.5 139t90.5 106q63 49 134 61.5t121 -2t83 -41.5q27 -27 33 -41q29 36 84 51q78 23 136.5 -11t67.5 -83q1 -6 -6 -7.5t-10 1.5q-18 22 -41 9.5t-41 -62.5q-16 -39 -64 -178.5t-65 -202.5q-12 -37 9.5 -60t56.5 -10q35 17 67 44t53.5 53.5 t37.5 50t23 38.5l7 15l12 -25q-40 -84 -124 -154t-158 -71q-94 0 -150 51q-40 -18 -62 -26.5t-62 -18t-83 -12.5q-67 0 -123 31t-86 92q-26 47 -23.5 119zM204 143q6 -48 30.5 -75t69.5 -30.5t116 32.5q-64 82 -23 194q13 33 35 91.5t31 81t22.5 56.5t22.5 53t18 34 q-11 26 -28 38q-18 15 -42.5 16t-54 -15.5t-59.5 -48.5t-60.5 -89.5t-54.5 -132.5q-17 -53 -23 -105t0 -100zM309 852q2 29 13 52.5t25.5 36.5t28 22.5t22.5 12.5l10 3q85 -127 245 -181q18 -6 19 -8q0 -1 -4 -2q-100 -19 -180 -4.5t-130 41.5z" />
<glyph unicode="&#xe1;" horiz-adv-x="815" d="M-3.5 236q2.5 72 22.5 144t60.5 139t90.5 106q63 49 134 61.5t121 -2t83 -41.5q27 -27 33 -41q29 36 84 51q78 23 136.5 -11t67.5 -83q1 -6 -6 -7.5t-10 1.5q-18 22 -41 9.5t-41 -62.5q-16 -39 -64 -178.5t-65 -202.5q-12 -37 9.5 -60t56.5 -10q35 17 67 44t53.5 53.5 t37.5 50t23 38.5l7 15l12 -25q-40 -84 -124 -154t-158 -71q-94 0 -150 51q-40 -18 -62 -26.5t-62 -18t-83 -12.5q-67 0 -123 31t-86 92q-26 47 -23.5 119zM204 143q6 -48 30.5 -75t69.5 -30.5t116 32.5q-64 82 -23 194q13 33 35 91.5t31 81t22.5 56.5t22.5 53t18 34 q-11 26 -28 38q-18 15 -42.5 16t-54 -15.5t-59.5 -48.5t-60.5 -89.5t-54.5 -132.5q-17 -53 -23 -105t0 -100zM332 788q-8 2 8 8q89 31 144 71q63 46 108 112q4 -1 10 -3.5t22 -12t28.5 -22.5t24 -36.5t13.5 -52.5q-3 -2 -9.5 -6t-27.5 -14.5t-43 -19.5t-55.5 -18.5 t-66.5 -14t-74.5 -3t-81.5 11.5z" />
<glyph unicode="&#xe2;" horiz-adv-x="815" d="M-3.5 236q2.5 72 22.5 144t60.5 139t90.5 106q63 49 134 61.5t121 -2t83 -41.5q27 -27 33 -41q29 36 84 51q78 23 136.5 -11t67.5 -83q1 -6 -6 -7.5t-10 1.5q-18 22 -41 9.5t-41 -62.5q-16 -39 -64 -178.5t-65 -202.5q-12 -37 9.5 -60t56.5 -10q35 17 67 44t53.5 53.5 t37.5 50t23 38.5l7 15l12 -25q-40 -84 -124 -154t-158 -71q-94 0 -150 51q-40 -18 -62 -26.5t-62 -18t-83 -12.5q-67 0 -123 31t-86 92q-26 47 -23.5 119zM204 143q6 -48 30.5 -75t69.5 -30.5t116 32.5q-64 82 -23 194q13 33 35 91.5t31 81t22.5 56.5t22.5 53t18 34 q-11 26 -28 38q-18 15 -42.5 16t-54 -15.5t-59.5 -48.5t-60.5 -89.5t-54.5 -132.5q-17 -53 -23 -105t0 -100zM336 795q104 5 192 141q9 16 12 17q1 1 2 -4q1 -2 2 -8l5 -26q30 -109 131 -157q-1 -1 -4 -2.5t-12 -5t-19 -5t-25.5 -0.5t-31.5 7q-55 19 -72 59q-21 -31 -78 -41 q-33 -6 -58.5 0t-34.5 16z" />
<glyph unicode="&#xe3;" horiz-adv-x="815" d="M-3.5 236q2.5 72 22.5 144t60.5 139t90.5 106q63 49 134 61.5t121 -2t83 -41.5q27 -27 33 -41q29 36 84 51q78 23 136.5 -11t67.5 -83q1 -6 -6 -7.5t-10 1.5q-18 22 -41 9.5t-41 -62.5q-16 -39 -64 -178.5t-65 -202.5q-12 -37 9.5 -60t56.5 -10q35 17 67 44t53.5 53.5 t37.5 50t23 38.5l7 15l12 -25q-40 -84 -124 -154t-158 -71q-94 0 -150 51q-40 -18 -62 -26.5t-62 -18t-83 -12.5q-67 0 -123 31t-86 92q-26 47 -23.5 119zM204 143q6 -48 30.5 -75t69.5 -30.5t116 32.5q-64 82 -23 194q13 33 35 91.5t31 81t22.5 56.5t22.5 53t18 34 q-11 26 -28 38q-18 15 -42.5 16t-54 -15.5t-59.5 -48.5t-60.5 -89.5t-54.5 -132.5q-17 -53 -23 -105t0 -100zM293 864q4 32 26 56q38 40 117 28q36 -5 98 -33t82 -34q32 -12 49 6t3 41q-2 2 1 5t5 1q14 -12 23 -37t5 -57t-26 -56q-40 -46 -115 -28q-33 7 -92 33t-90 34 q-33 10 -49 -7t0 -38q2 -3 -1.5 -6.5t-6.5 -1.5q-15 12 -24 37t-5 57z" />
<glyph unicode="&#xe4;" horiz-adv-x="815" d="M-3.5 236q2.5 72 22.5 144t60.5 139t90.5 106q63 49 134 61.5t121 -2t83 -41.5q27 -27 33 -41q29 36 84 51q78 23 136.5 -11t67.5 -83q1 -6 -6 -7.5t-10 1.5q-18 22 -41 9.5t-41 -62.5q-16 -39 -64 -178.5t-65 -202.5q-12 -37 9.5 -60t56.5 -10q35 17 67 44t53.5 53.5 t37.5 50t23 38.5l7 15l12 -25q-40 -84 -124 -154t-158 -71q-94 0 -150 51q-40 -18 -62 -26.5t-62 -18t-83 -12.5q-67 0 -123 31t-86 92q-26 47 -23.5 119zM204 143q6 -48 30.5 -75t69.5 -30.5t116 32.5q-64 82 -23 194q13 33 35 91.5t31 81t22.5 56.5t22.5 53t18 34 q-11 26 -28 38q-18 15 -42.5 16t-54 -15.5t-59.5 -48.5t-60.5 -89.5t-54.5 -132.5q-17 -53 -23 -105t0 -100zM375 827q0 34 23 57t55 23q34 0 56.5 -23t22.5 -57q0 -32 -22.5 -54.5t-56.5 -22.5q-32 0 -55 22.5t-23 54.5zM631 827q0 34 23 57t55 23q33 0 56 -23.5t23 -56.5 q0 -32 -23.5 -54.5t-55.5 -22.5t-55 22.5t-23 54.5z" />
<glyph unicode="&#xe5;" horiz-adv-x="815" d="M-3.5 236q2.5 72 22.5 144t60.5 139t90.5 106q63 49 134 61.5t121 -2t83 -41.5q27 -27 33 -41q29 36 84 51q78 23 136.5 -11t67.5 -83q1 -6 -6 -7.5t-10 1.5q-18 22 -41 9.5t-41 -62.5q-16 -39 -64 -178.5t-65 -202.5q-12 -37 9.5 -60t56.5 -10q35 17 67 44t53.5 53.5 t37.5 50t23 38.5l7 15l12 -25q-40 -84 -124 -154t-158 -71q-94 0 -150 51q-40 -18 -62 -26.5t-62 -18t-83 -12.5q-67 0 -123 31t-86 92q-26 47 -23.5 119zM204 143q6 -48 30.5 -75t69.5 -30.5t116 32.5q-64 82 -23 194q13 33 35 91.5t31 81t22.5 56.5t22.5 53t18 34 q-11 26 -28 38q-18 15 -42.5 16t-54 -15.5t-59.5 -48.5t-60.5 -89.5t-54.5 -132.5q-17 -53 -23 -105t0 -100zM455 875q13 55 49 83q21 17 46.5 23t44.5 3.5t32 -9.5q44 -15 57 -60q9 -32 0 -69.5t-29 -65.5q-23 -34 -64 -44t-75 3q-36 11 -53 41q-21 40 -8 95zM513.5 788.5 q0.5 -23.5 23.5 -28.5q22 -4 38.5 21.5t32.5 68.5q10 22 15.5 43.5t4.5 40t-12 24.5q-8 4 -19 -0.5t-28 -26t-32 -59.5q-24 -60 -23.5 -83.5z" />
<glyph unicode="&#xe7;" horiz-adv-x="602" d="M-13.5 240q2.5 72 22.5 144t60.5 139t90.5 106q63 49 134 62t121 -1.5t83 -42.5q51 -51 51 -117q0 -41 -22.5 -77.5t-63.5 -36.5q-29 0 -49.5 20t-20.5 49t20.5 49.5t49.5 20.5q41 0 61 -39v14q0 54 -28 86q-30 26 -58.5 26.5t-58.5 -24.5t-55 -58t-47.5 -75t-37 -75 t-22.5 -58q-49 -155 -19.5 -241t124.5 -72q73 18 150.5 74.5t141.5 144.5l19 -14q-76 -109 -183.5 -176t-230.5 -70h-6h-2h-8q-25 0 -37 -12q-12 -7 -12 -19q0 -6 4 -8q6 -6 20 -6q15 0 23 4q24 4 37 4q12 0 28 -4q40 -8 56 -39.5t-2 -63.5t-64 -40q-28 -5 -39 -17t-7 -21 l3 -9q-57 3 -75 47.5t26 76.5q14 11 72 19q17 1 26 5.5t8 9.5t-4 9q-20 5 -28 5q-6 0 -31 -5q-20 -4 -29 -4q-20 0 -35 11q-12 9 -12 26q0 19 21 37h2q-67 15 -109 66q-26 30 -35 51q-26 47 -23.5 119z" />
<glyph unicode="&#xe8;" horiz-adv-x="575" d="M12 121q-46 100 1.5 264.5t148.5 243.5q50 40 104 56.5t94.5 13t75.5 -18.5q37 -13 63.5 -43t26.5 -70q-2 -78 -87 -172t-249 -190q-4 -86 31 -129t103 -35q71 14 150 71.5t142 145.5l19 -14q-76 -108 -181 -175.5t-233 -70.5q-67 0 -124 32t-85 91zM193 233 q151 89 230 179t79 155q0 70 -49 69q-53 -1 -121 -78q-75 -85 -113 -206q-20 -60 -26 -119zM203 852q4 45 28.5 77t46.5 41l23 9q85 -127 245 -181q18 -6 19 -8q0 -1 -4 -2q-100 -19 -179.5 -4.5t-129.5 41.5z" />
<glyph unicode="&#xe9;" horiz-adv-x="583" d="M20 121q-46 100 1.5 264.5t148.5 243.5q50 40 104 56.5t94.5 13t75.5 -18.5q37 -13 64 -43t27 -70q-2 -78 -87 -172t-249 -190q-4 -86 30.5 -129t102.5 -35q71 14 150.5 71.5t142.5 145.5l18 -14q-76 -108 -181 -175.5t-233 -70.5q-67 0 -124 32t-85 91zM201 233 q151 89 230 179t79 155q0 70 -49 69q-53 -1 -121 -78q-75 -85 -113 -206q-20 -60 -26 -119zM207 788q-8 2 8 8q89 31 144 71q63 46 108 112q4 -1 10 -3.5t22 -12t28.5 -22.5t24 -36.5t13.5 -52.5q-3 -2 -9.5 -6t-27.5 -14.5t-43 -19.5t-55.5 -18.5t-66.5 -14t-74.5 -3 t-81.5 11.5z" />
<glyph unicode="&#xea;" horiz-adv-x="565" d="M2 121q-46 100 1.5 264.5t148.5 243.5q50 40 104 56.5t94.5 13t75.5 -18.5q37 -13 63.5 -43t26.5 -70q-2 -78 -87 -172t-249 -190q-4 -86 30.5 -129t102.5 -35q71 14 150.5 71.5t142.5 145.5l19 -14q-76 -108 -181 -175.5t-233 -70.5q-67 0 -124 32t-85 91zM156 795 q104 5 192 141q9 16 12 17q1 1 2 -4q1 -2 2 -8q2 -15 5 -26q30 -109 131 -157q-1 -1 -4 -2.5t-12 -5t-19 -5t-25.5 -0.5t-31.5 7q-55 19 -72 59q-21 -31 -78 -41q-33 -6 -58.5 0t-34.5 16zM182 233q151 89 230.5 179t79.5 155q0 70 -49 69q-53 -1 -121 -78 q-75 -85 -113 -206q-21 -65 -27 -119z" />
<glyph unicode="&#xeb;" horiz-adv-x="565" d="M2 121q-46 100 1.5 264.5t148.5 243.5q50 40 104 56.5t94.5 13t75.5 -18.5q37 -13 63.5 -43t26.5 -70q-2 -78 -87 -172t-249 -190q-4 -86 30.5 -129t102.5 -35q71 14 150.5 71.5t142.5 145.5l19 -14q-76 -108 -181 -175.5t-233 -70.5q-67 0 -124 32t-85 91zM127 827 q0 34 23 57t55 23q34 0 57 -23t23 -57q0 -32 -23 -54.5t-57 -22.5q-32 0 -55 22.5t-23 54.5zM182 233q151 89 230.5 179t79.5 155q0 70 -49 69q-53 -1 -121 -78q-75 -85 -113 -206q-21 -65 -27 -119zM383 827q0 34 23 57t55 23q33 0 56.5 -23.5t23.5 -56.5 q0 -32 -23.5 -54.5t-56.5 -22.5q-32 0 -55 22.5t-23 54.5z" />
<glyph unicode="&#xec;" horiz-adv-x="407" d="M-10 852q4 45 28.5 77t47.5 41l22 9q85 -127 245 -181q18 -6 19 -8q0 -1 -4 -2q-100 -19 -179.5 -4.5t-128.5 41.5zM-9.5 162q-6.5 47 13.5 102q53 145 105 277q19 53 -10 82.5t-66 5.5q-2 -2 -5.5 0t-5 5.5t0.5 6.5q21 23 62.5 36t95 4t91.5 -46q86 -86 17 -285 q-68 -191 -82 -233q-11 -38 10 -58.5t57 -3.5q41 26 78 70t60 94l22 -10q-41 -85 -110 -146.5t-142 -62.5q-60 0 -114 31q-30 19 -50.5 51.5t-27 79.5z" />
<glyph unicode="&#xed;" horiz-adv-x="407" d="M-9.5 162q-6.5 47 13.5 102q53 145 105 277q19 53 -10 82.5t-66 5.5q-2 -2 -5.5 0t-5 5.5t0.5 6.5q21 23 62.5 36t95 4t91.5 -46q86 -86 17 -285q-68 -191 -82 -233q-11 -38 10 -58.5t57 -3.5q41 26 78 70t60 94l22 -10q-41 -85 -110 -146.5t-142 -62.5q-60 0 -114 31 q-30 19 -50.5 51.5t-27 79.5zM27 788q-8 2 8 8q89 31 144 71q63 46 108 112q4 -1 10 -3.5t22 -12t28.5 -22.5t24 -36.5t13.5 -52.5q-3 -2 -9.5 -6t-27.5 -14.5t-43 -19.5t-55.5 -18.5t-66.5 -14t-74.5 -3t-81.5 11.5z" />
<glyph unicode="&#xee;" horiz-adv-x="407" d="M-9.5 162q-6.5 47 13.5 102q53 145 105 277q19 53 -10 82.5t-66 5.5q-2 -2 -5.5 0t-5 5.5t0.5 6.5q21 23 62.5 36t95 4t91.5 -46q86 -86 17 -285q-68 -191 -82 -233q-11 -38 10 -58.5t57 -3.5q41 26 78 70t60 94l22 -10q-41 -85 -110 -146.5t-142 -62.5q-60 0 -114 31 q-30 19 -50.5 51.5t-27 79.5zM14 795q105 5 193 141l1 1q9 15 10.5 16t2.5 -5q0 -1 1 -5l5 -28q30 -109 131 -157q-1 -1 -4 -2.5t-12 -5t-19 -5t-25.5 -0.5t-31.5 7q-54 19 -71 59q-21 -31 -78 -41q-33 -6 -58.5 0t-34.5 16z" />
<glyph unicode="&#xef;" horiz-adv-x="407" d="M-9.5 162q-6.5 47 13.5 102q53 145 105 277q19 53 -10 82.5t-66 5.5q-2 -2 -5.5 0t-5 5.5t0.5 6.5q21 23 62.5 36t95 4t91.5 -46q86 -86 17 -285q-68 -191 -82 -233q-11 -38 10 -58.5t57 -3.5q41 26 78 70t60 94l22 -10q-41 -85 -110 -146.5t-142 -62.5q-60 0 -114 31 q-30 19 -50.5 51.5t-27 79.5zM-6 827q0 34 23 57t55 23q34 0 57 -23t23 -57q0 -32 -23 -54.5t-57 -22.5q-32 0 -55 22.5t-23 54.5zM203 827q0 34 23 57t55 23q33 0 56 -23.5t23 -56.5q0 -32 -23.5 -54.5t-55.5 -22.5t-55 22.5t-23 54.5z" />
<glyph unicode="&#xf1;" horiz-adv-x="778" d="M-11.5 162q-6.5 47 13.5 102q63 174 104 277q20 53 -9 82.5t-66 5.5q-2 -2 -6 0t-5.5 5.5t0.5 6.5q21 23 63 36t95.5 4t91.5 -46q31 -31 41 -78q33 44 65 73.5t73 41.5q111 38 194 -37q83 -80 16 -285q-72 -202 -81 -233q-12 -37 9.5 -58t57.5 -4q87 56 135 164l23 -10 q-39 -85 -108 -146.5t-142 -62.5q-61 0 -115 31q-30 18 -50.5 51t-27 80t12.5 102q21 58 58 155t46 122q10 28 5.5 47.5t-17.5 30t-31 10.5t-35 -11q-43 -37 -82 -98q3 -79 -30 -170q-12 -35 -41.5 -116.5t-40.5 -116.5q-11 -39 11.5 -59.5t59.5 -0.5q7 4 7 0 q-2 -13 -27 -32q-5 -4 -10 -7q-16 -10 -41.5 -15t-64.5 0.5t-74 27.5q-30 19 -50.5 51.5t-27 79.5zM179 864q4 32 26 56q38 40 117 28q52 -7 139 -53q8 -2 23.5 -7.5t17.5 -6.5q32 -11 48.5 6.5t2.5 40.5q-1 2 2 5t4 1q14 -12 23 -37t5 -57t-26 -56q-40 -46 -115 -28 q-33 7 -92 33t-90 34q-33 10 -49 -7t0 -38q1 -3 -2 -6.5t-6 -1.5q-14 12 -23 37t-5 57z" />
<glyph unicode="&#xf2;" horiz-adv-x="702" d="M4 246.5q-1 70.5 17.5 141t56.5 136.5t88 105q60 48 127 65t114 11t85 -25q107 -41 149 -164q21 -56 14 -131q139 64 258 195l17 -17q-132 -143 -279 -209q-20 -110 -90 -213q-128 -186 -383 -131q-102 25 -149 119q-24 47 -25 117.5zM175.5 88q10.5 -40 49.5 -49 q29 -4 56 11t47.5 39t42 66t36 77t33.5 87q-95 19 -135 103q-19 54 -14 92q-34 -63 -55 -127q-41 -115 -56 -187t-4.5 -112zM240 852q4 45 28.5 77t47.5 41l22 9q85 -127 245 -181q18 -6 19 -8q0 -1 -4 -2q-100 -19 -179.5 -4.5t-128.5 41.5zM313 502q0 -32 15 -70 q34 -76 123 -88q0 2 2 8q44 130 51 191q12 109 -51 116q-52 0 -96 -47t-44 -110z" />
<glyph unicode="&#xf3;" horiz-adv-x="702" d="M4 246.5q-1 70.5 17.5 141t56.5 136.5t88 105q60 48 127 65t114 11t85 -25q107 -41 149 -164q21 -56 14 -131q139 64 258 195l17 -17q-132 -143 -279 -209q-20 -110 -90 -213q-128 -186 -383 -131q-102 25 -149 119q-24 47 -25 117.5zM175.5 88q10.5 -40 49.5 -49 q29 -4 56 11t47.5 39t42 66t36 77t33.5 87q-95 19 -135 103q-19 54 -14 92q-34 -63 -55 -127q-41 -115 -56 -187t-4.5 -112zM252 788q-8 2 8 8q89 31 144 71q63 46 108 112q4 -1 10 -3.5t22 -12t28.5 -22.5t24 -36.5t13.5 -52.5q-3 -2 -9.5 -6t-27.5 -14.5t-43 -19.5 t-55.5 -18.5t-66.5 -14t-74.5 -3t-81.5 11.5zM313 502q0 -32 15 -70q34 -76 123 -88q0 2 2 8q44 130 51 191q12 109 -51 116q-52 0 -96 -47t-44 -110z" />
<glyph unicode="&#xf4;" horiz-adv-x="702" d="M4 246.5q-1 70.5 17.5 141t56.5 136.5t88 105q60 48 127 65t114 11t85 -25q107 -41 149 -164q21 -56 14 -131q139 64 258 195l17 -17q-132 -143 -279 -209q-20 -110 -90 -213q-128 -186 -383 -131q-102 25 -149 119q-24 47 -25 117.5zM175.5 88q10.5 -40 49.5 -49 q29 -4 56 11t47.5 39t42 66t36 77t33.5 87q-95 19 -135 103q-19 54 -14 92q-34 -63 -55 -127q-41 -115 -56 -187t-4.5 -112zM219 795q105 5 193 141q10 17 12 17l5 -26q1 -6 3 -12q30 -109 131 -157q-1 -1 -4 -2.5t-12 -5t-19 -5t-25.5 -0.5t-31.5 7q-55 19 -72 59 q-20 -31 -77 -41q-33 -6 -58.5 0t-35.5 16zM313 502q0 -32 15 -70q34 -76 123 -88q0 2 2 8q44 130 51 191q12 109 -51 116q-52 0 -96 -47t-44 -110z" />
<glyph unicode="&#xf5;" horiz-adv-x="702" d="M4 246.5q-1 70.5 17.5 141t56.5 136.5t88 105q60 48 127 65t114 11t85 -25q107 -41 149 -164q21 -56 14 -131q139 64 258 195l17 -17q-132 -143 -279 -209q-20 -110 -90 -213q-128 -186 -383 -131q-102 25 -149 119q-24 47 -25 117.5zM175.5 88q10.5 -40 49.5 -49 q29 -4 56 11t47.5 39t42 66t36 77t33.5 87q-95 19 -135 103q-19 54 -14 92q-34 -63 -55 -127q-41 -115 -56 -187t-4.5 -112zM177 864q4 32 26 56q38 40 116 28q53 -7 140 -53q8 -2 23.5 -7.5t17.5 -6.5q32 -11 48.5 6.5t2.5 40.5q-1 2 2 5t4 1q14 -12 23 -37t5 -57t-26 -56 q-40 -46 -115 -28q-33 7 -92 33t-90 34q-33 10 -49 -7t0 -38q1 -3 -2 -6.5t-6 -1.5q-14 12 -23 37t-5 57zM313 502q0 -32 15 -70q34 -76 123 -88q0 2 2 8q44 130 51 191q12 109 -51 116q-52 0 -96 -47t-44 -110z" />
<glyph unicode="&#xf6;" horiz-adv-x="702" d="M4 246.5q-1 70.5 17.5 141t56.5 136.5t88 105q60 48 127 65t114 11t85 -25q107 -41 149 -164q21 -56 14 -131q139 64 258 195l17 -17q-132 -143 -279 -209q-20 -110 -90 -213q-128 -186 -383 -131q-102 25 -149 119q-24 47 -25 117.5zM175.5 88q10.5 -40 49.5 -49 q29 -4 56 11t47.5 39t42 66t36 77t33.5 87q-95 19 -135 103q-19 54 -14 92q-34 -63 -55 -127q-41 -115 -56 -187t-4.5 -112zM186 827q0 34 23 57t55 23q34 0 57 -23t23 -57q0 -32 -23 -54.5t-57 -22.5q-32 0 -55 22.5t-23 54.5zM313 502q0 -32 15 -70q34 -76 123 -88 q0 2 2 8q44 130 51 191q12 109 -51 116q-52 0 -96 -47t-44 -110zM442 827q0 34 23 57t55 23q33 0 56.5 -23.5t23.5 -56.5q0 -32 -23.5 -54.5t-56.5 -22.5q-32 0 -55 22.5t-23 54.5z" />
<glyph unicode="&#xf9;" horiz-adv-x="796" d="M0.5 160q-6.5 47 13.5 102q21 61 61 166.5t42 110.5q20 54 -9 83t-67 5q-2 -2 -5.5 0t-5 5.5t0.5 6.5q22 23 64 36t95.5 4t92.5 -46q85 -85 16 -285q-80 -223 -82 -231q-12 -37 9.5 -59.5t56.5 -4.5q55 34 106 117q-3 44 14 92q53 145 105 277q19 53 -10 82.5t-66 5.5 q-2 -2 -5.5 0t-5 5.5t0.5 6.5q21 23 63 36t95.5 4t91.5 -46q85 -85 16 -285q-12 -38 -42 -119.5t-40 -111.5q-11 -36 8.5 -58.5t51.5 -7.5q89 55 143 166l20 -10q-40 -86 -108.5 -147.5t-140.5 -61.5q-66 0 -113 31q-54 31 -72 104q-63 -92 -149 -123q-20 -7 -43.5 -10 t-58.5 3.5t-66 25.5q-30 19 -50.5 51.5t-27 79.5zM193 852q4 45 28.5 77t46.5 41l23 9q85 -127 245 -181q18 -6 19 -8q0 -1 -4 -2q-100 -19 -179.5 -4.5t-129.5 41.5z" />
<glyph unicode="&#xfa;" horiz-adv-x="796" d="M0.5 160q-6.5 47 13.5 102q21 61 61 166.5t42 110.5q20 54 -9 83t-67 5q-2 -2 -5.5 0t-5 5.5t0.5 6.5q22 23 64 36t95.5 4t92.5 -46q85 -85 16 -285q-80 -223 -82 -231q-12 -37 9.5 -59.5t56.5 -4.5q55 34 106 117q-3 44 14 92q53 145 105 277q19 53 -10 82.5t-66 5.5 q-2 -2 -5.5 0t-5 5.5t0.5 6.5q21 23 63 36t95.5 4t91.5 -46q85 -85 16 -285q-12 -38 -42 -119.5t-40 -111.5q-11 -36 8.5 -58.5t51.5 -7.5q89 55 143 166l20 -10q-40 -86 -108.5 -147.5t-140.5 -61.5q-66 0 -113 31q-54 31 -72 104q-63 -92 -149 -123q-20 -7 -43.5 -10 t-58.5 3.5t-66 25.5q-30 19 -50.5 51.5t-27 79.5zM231 788q-8 2 7 7q86 30 137 65q69 49 117 119q4 -1 10 -3.5t22 -12t28.5 -22.5t24 -36.5t13.5 -52.5q-3 -2 -9.5 -6t-27.5 -14.5t-43 -19.5t-55.5 -18.5t-67 -14t-75 -3t-81.5 11.5z" />
<glyph unicode="&#xfb;" horiz-adv-x="796" d="M0.5 160q-6.5 47 13.5 102q21 61 61 166.5t42 110.5q20 54 -9 83t-67 5q-2 -2 -5.5 0t-5 5.5t0.5 6.5q22 23 64 36t95.5 4t92.5 -46q85 -85 16 -285q-80 -223 -82 -231q-12 -37 9.5 -59.5t56.5 -4.5q55 34 106 117q-3 44 14 92q53 145 105 277q19 53 -10 82.5t-66 5.5 q-2 -2 -5.5 0t-5 5.5t0.5 6.5q21 23 63 36t95.5 4t91.5 -46q85 -85 16 -285q-12 -38 -42 -119.5t-40 -111.5q-11 -36 8.5 -58.5t51.5 -7.5q89 55 143 166l20 -10q-40 -86 -108.5 -147.5t-140.5 -61.5q-66 0 -113 31q-54 31 -72 104q-63 -92 -149 -123q-20 -7 -43.5 -10 t-58.5 3.5t-66 25.5q-30 19 -50.5 51.5t-27 79.5zM211 795q104 5 192 141q9 16 12 17q1 1 2 -4q1 -2 2 -8q2 -15 5 -26q30 -109 131 -157q-1 -1 -4 -2.5t-12 -5t-19 -5t-25.5 -0.5t-31.5 7q-55 19 -72 59q-21 -31 -78 -41q-33 -6 -58.5 0t-34.5 16z" />
<glyph unicode="&#xfc;" horiz-adv-x="796" d="M0.5 160q-6.5 47 13.5 102q21 61 61 166.5t42 110.5q20 54 -9 83t-67 5q-2 -2 -5.5 0t-5 5.5t0.5 6.5q22 23 64 36t95.5 4t92.5 -46q85 -85 16 -285q-80 -223 -82 -231q-12 -37 9.5 -59.5t56.5 -4.5q55 34 106 117q-3 44 14 92q53 145 105 277q19 53 -10 82.5t-66 5.5 q-2 -2 -5.5 0t-5 5.5t0.5 6.5q21 23 63 36t95.5 4t91.5 -46q85 -85 16 -285q-12 -38 -42 -119.5t-40 -111.5q-11 -36 8.5 -58.5t51.5 -7.5q89 55 143 166l20 -10q-40 -86 -108.5 -147.5t-140.5 -61.5q-66 0 -113 31q-54 31 -72 104q-63 -92 -149 -123q-20 -7 -43.5 -10 t-58.5 3.5t-66 25.5q-30 19 -50.5 51.5t-27 79.5zM178 827q0 34 23 57t55 23q34 0 57 -23t23 -57q0 -32 -23 -54.5t-57 -22.5q-32 0 -55 22.5t-23 54.5zM434 827q0 34 23 57t55 23q33 0 56.5 -23.5t23.5 -56.5q0 -32 -23.5 -54.5t-56.5 -22.5q-32 0 -55 22.5t-23 54.5z" />
<glyph unicode="&#xfd;" horiz-adv-x="710" d="M-221 -412q0 56 22 101q19 42 57 65t79 23q42 0 75 -25t33 -67q0 -36 -25 -61t-61 -25q-35 0 -60.5 25.5t-25.5 60.5t31 63q-57 -14 -80 -70q-23 -51 -23 -90q3 -102 88 -168q37 -22 75 -22t69 17t59.5 45.5t48 58.5t33.5 61q24 51 170 508q-49 -57 -113 -78 q-88 -30 -170 19q-30 19 -50.5 51.5t-26.5 79.5t14 102q63 174 104 277q20 53 -9 82.5t-66 5.5q-2 -2 -6 0t-5.5 5.5t0.5 6.5q21 23 63 36t95.5 4t91.5 -46q86 -86 17 -285q-73 -205 -82 -231q-11 -38 9.5 -59.5t55.5 -4.5q44 19 101 105q88 276 92 291q6 22 15 52t11 38 q17 55 -9.5 83.5t-63.5 4.5q-5 -3 -10.5 2.5t-2.5 9.5q22 23 64.5 36t96 4t91.5 -46q40 -40 45.5 -98t-20.5 -146q-138 -498 -221 -704q-21 -55 -31 -78.5t-30.5 -63.5t-45 -69t-57.5 -56q-96 -80 -230 -80q-117 0 -199.5 73.5t-82.5 176.5zM203 788q-8 2 8 8q89 31 144 71 q63 46 108 112q4 -1 10 -3.5t22 -12t28.5 -22.5t24 -36.5t13.5 -52.5q-3 -2 -9.5 -6t-27.5 -14.5t-43 -19.5t-55.5 -18.5t-66.5 -14t-74.5 -3t-81.5 11.5z" />
<glyph unicode="&#xff;" horiz-adv-x="710" d="M-221 -412q0 56 22 101q19 42 57 65t79 23q42 0 75 -25t33 -67q0 -36 -25 -61t-61 -25q-35 0 -60.5 25.5t-25.5 60.5t31 63q-57 -14 -80 -70q-23 -51 -23 -90q3 -102 88 -168q37 -22 75 -22t69 17t59.5 45.5t48 58.5t33.5 61q24 51 170 508q-49 -57 -113 -78 q-88 -30 -170 19q-30 19 -50.5 51.5t-26.5 79.5t14 102q63 174 104 277q20 53 -9 82.5t-66 5.5q-2 -2 -6 0t-5.5 5.5t0.5 6.5q21 23 63 36t95.5 4t91.5 -46q86 -86 17 -285q-73 -205 -82 -231q-11 -38 9.5 -59.5t55.5 -4.5q44 19 101 105q88 276 92 291q6 22 15 52t11 38 q17 55 -9.5 83.5t-63.5 4.5q-5 -3 -10.5 2.5t-2.5 9.5q22 23 64.5 36t96 4t91.5 -46q40 -40 45.5 -98t-20.5 -146q-138 -498 -221 -704q-21 -55 -31 -78.5t-30.5 -63.5t-45 -69t-57.5 -56q-96 -80 -230 -80q-117 0 -199.5 73.5t-82.5 176.5zM156 827q0 34 22.5 57t54.5 23 q34 0 57 -23t23 -57q0 -32 -23 -54.5t-57 -22.5q-32 0 -54.5 22.5t-22.5 54.5zM412 827q0 34 22.5 57t54.5 23q33 0 56.5 -23.5t23.5 -56.5q0 -32 -23.5 -54.5t-56.5 -22.5q-32 0 -54.5 22.5t-22.5 54.5z" />
<glyph unicode="&#x178;" horiz-adv-x="991" d="M94 1268q0 94 64 155q72 66 186 66q34 0 92 -14q292 -87 152 -502q-45 -143 -62 -203q-29 -106 17.5 -171t138.5 -46q46 132 111 326q139 411 149 440q21 52 -8 81t-66 5q-2 -2 -5.5 0.5t-5 6t0.5 5.5q21 23 63 36.5t95.5 4.5t91.5 -47q88 -88 16 -283q-13 -37 -101 -295 t-153 -427.5t-104 -229.5q-55 -100 -142 -145t-185 -35t-199 67q-52 31 -81.5 77.5t-29.5 101.5q0 49 23 96q26 54 71 78t96 24q52 0 94 -23.5t42 -72.5q0 -35 -25.5 -60.5t-60.5 -25.5t-59.5 25.5t-24.5 60.5q0 51 41 74h-7q-101 0 -147 -90q-20 -41 -20 -86q0 -90 86 -150 q106 -57 202.5 15.5t159.5 218.5q19 47 72 196q-107 -38 -205 10q-104 53 -138.5 165t-4.5 216q26 90 72.5 218t58.5 167q21 76 1.5 113t-53.5 47q-53 15 -118.5 2.5t-108.5 -55.5q-57 -51 -57 -137q0 -80 57 -125q-8 16 -8 37q0 35 24.5 60.5t59.5 25.5q36 0 61 -25t25 -61 t-25 -61t-61 -25q-66 0 -112 52t-46 122zM539 1587q0 34 22.5 57t54.5 23q34 0 57 -23t23 -57q0 -32 -23 -55t-57 -23q-32 0 -54.5 23t-22.5 55zM795 1587q0 34 22.5 57t54.5 23q33 0 56.5 -23.5t23.5 -56.5q0 -32 -24 -55t-56 -23t-54.5 23t-22.5 55z" />
<glyph unicode="&#x2c6;" horiz-adv-x="370" d="M10 1335q105 5 193 142l1 1q9 15 10.5 16t2.5 -5q0 -1 1 -5l5 -28q30 -110 131 -158q-1 -1 -4 -2.5t-12 -5t-19 -5t-25.5 -0.5t-31.5 7q-55 19 -72 60q-20 -31 -77 -41q-33 -6 -58.5 0t-34.5 15z" />
<glyph unicode="&#x2dc;" horiz-adv-x="446" d="M19 407q4 32 26 56q38 41 117 29q36 -5 97.5 -33t82.5 -35q32 -11 48.5 6.5t2.5 40.5q-1 1 2 4t4 2q14 -12 23 -37t5 -56.5t-26 -55.5q-41 -47 -114 -29q-33 7 -92.5 33.5t-90.5 34.5q-33 10 -49 -7t0 -38q2 -3 -1.5 -6.5t-6.5 -2.5q-14 12 -23 37t-5 57z" />
<glyph unicode="&#x2000;" horiz-adv-x="875" />
<glyph unicode="&#x2001;" horiz-adv-x="1750" />
<glyph unicode="&#x2002;" horiz-adv-x="875" />
<glyph unicode="&#x2003;" horiz-adv-x="1750" />
<glyph unicode="&#x2004;" horiz-adv-x="583" />
<glyph unicode="&#x2005;" horiz-adv-x="437" />
<glyph unicode="&#x2006;" horiz-adv-x="291" />
<glyph unicode="&#x2007;" horiz-adv-x="291" />
<glyph unicode="&#x2008;" horiz-adv-x="218" />
<glyph unicode="&#x2009;" horiz-adv-x="350" />
<glyph unicode="&#x200a;" horiz-adv-x="97" />
<glyph unicode="&#x2010;" horiz-adv-x="356" d="M96 371v35h158v-35h-158z" />
<glyph unicode="&#x2011;" horiz-adv-x="356" d="M96 371v35h158v-35h-158z" />
<glyph unicode="&#x2012;" horiz-adv-x="356" d="M96 371v35h158v-35h-158z" />
<glyph unicode="&#x2013;" horiz-adv-x="698" d="M96 371v35h494v-35h-494z" />
<glyph unicode="&#x2014;" horiz-adv-x="856" d="M96 371v35h658v-35h-658z" />
<glyph unicode="&#x2018;" horiz-adv-x="204" d="M12 1284q0 67 48 123.5t118 62.5q8 0 12 -12q0 -10 -12 -10q-59 -6 -102 -55q-26 -29 -35 -70q31 45 88 45q46 0 78.5 -32.5t32.5 -78.5t-32.5 -78t-78.5 -32q-52 0 -84.5 41t-32.5 96z" />
<glyph unicode="&#x2019;" horiz-adv-x="270" d="M258 1339q0 46 32.5 78.5t78.5 32.5q52 0 84 -41t32 -96q0 -67 -48 -124t-118 -63q-8 0 -12 13q0 10 12 10q60 6 103 55q26 29 35 70q-31 -45 -88 -45q-46 0 -78.5 32t-32.5 78z" />
<glyph unicode="&#x201a;" horiz-adv-x="270" d="M258 1339q0 46 32.5 78.5t78.5 32.5q52 0 84 -41t32 -96q0 -67 -48 -124t-118 -63q-8 0 -12 13q0 10 12 10q60 6 103 55q26 29 35 70q-31 -45 -88 -45q-46 0 -78.5 32t-32.5 78z" />
<glyph unicode="&#x201c;" horiz-adv-x="452" d="M2 1268q0 67 48 123.5t118 62.5q8 0 12 -12q0 -10 -12 -10q-58 -6 -102 -56q-26 -29 -35 -69q31 45 88 45q46 0 78 -32.5t32 -78.5t-32 -78.5t-78 -32.5q-52 0 -84.5 41.5t-32.5 96.5zM268 1268q0 67 48 123.5t118 62.5q8 0 12 -12q0 -10 -12 -10q-58 -6 -102 -56 q-26 -29 -35 -69q31 45 88 45q46 0 78.5 -32.5t32.5 -78.5t-32.5 -78.5t-78.5 -32.5q-52 0 -84.5 41.5t-32.5 96.5z" />
<glyph unicode="&#x201d;" horiz-adv-x="727" d="M193 1337q0 46 32 78.5t78 32.5q52 0 84.5 -41t32.5 -96q0 -67 -48 -124t-118 -63q-8 0 -12 13q0 10 12 10q59 6 102 55q26 29 35 70q-31 -45 -88 -45q-46 0 -78 32t-32 78zM459 1337q0 46 32 78.5t78 32.5q52 0 84.5 -41t32.5 -96q0 -67 -48 -124t-118 -63q-8 0 -12 13 q0 10 12 10q60 6 103 55q25 28 34 70q-31 -45 -88 -45q-46 0 -78 32t-32 78z" />
<glyph unicode="&#x201e;" horiz-adv-x="727" d="M193 1337q0 46 32 78.5t78 32.5q52 0 84.5 -41t32.5 -96q0 -67 -48 -124t-118 -63q-8 0 -12 13q0 10 12 10q59 6 102 55q26 29 35 70q-31 -45 -88 -45q-46 0 -78 32t-32 78zM459 1337q0 46 32 78.5t78 32.5q52 0 84.5 -41t32.5 -96q0 -67 -48 -124t-118 -63q-8 0 -12 13 q0 10 12 10q60 6 103 55q25 28 34 70q-31 -45 -88 -45q-46 0 -78 32t-32 78z" />
<glyph unicode="&#x2022;" horiz-adv-x="284" d="M68 608q0 30 21.5 52t51.5 22t52 -22t22 -52q0 -31 -21.5 -52t-52.5 -21t-52 21t-21 52z" />
<glyph unicode="&#x2026;" horiz-adv-x="1064" d="M98 113q0 47 33 80.5t80 33.5t81 -33.5t34 -80.5q0 -46 -34 -79.5t-81 -33.5t-80 33.5t-33 79.5zM424 113q0 47 33 80.5t80 33.5t80.5 -33.5t33.5 -80.5q0 -46 -33.5 -79.5t-80.5 -33.5t-80 33.5t-33 79.5zM750 113q0 47 32.5 80.5t79.5 33.5t81 -33.5t34 -80.5 q0 -46 -34 -79.5t-81 -33.5t-79.5 33.5t-32.5 79.5z" />
<glyph unicode="&#x202f;" horiz-adv-x="350" />
<glyph unicode="&#x205f;" horiz-adv-x="437" />
<glyph unicode="&#x20ac;" horiz-adv-x="1056" d="M-3.5 606q12.5 104 33.5 187.5t50 158.5q60 159 133.5 264t171.5 181q84 66 188 92.5t185.5 20t148.5 -32.5q95 -28 156.5 -91t75.5 -137q10 -52 10 -84q-1 -92 -45.5 -160.5t-107.5 -99.5t-132 -31q-108 0 -159 72q-27 24 -27 60q0 35 25.5 60.5t60.5 25.5t60.5 -25.5 t25.5 -60.5q0 -34 -23 -58.5t-57 -25.5q44 -23 94 -23q64 0 121.5 28t98 90.5t40.5 147.5q0 22 -8 80q-13 58 -58 110.5t-116 82.5q-49 15 -97 15t-90 -12.5t-83 -37t-76 -55.5t-68.5 -71t-61.5 -82t-54.5 -90t-47 -92t-40.5 -91q-3 -9 -14 -39.5t-17 -48.5h242q12 0 12 -11 q0 -5 -3.5 -8.5t-8.5 -3.5h-250q-17 -56 -27 -100h252q12 0 12 -11q0 -4 -4 -8t-8 -4h-258q-25 -112 -29 -215t13.5 -193.5t68 -154.5t129.5 -86q45 -10 86 -10q60 0 114 15t85 40q50 35 76 80t28 86q-23 -45 -75 -45q-35 0 -60.5 25.5t-25.5 60.5t25.5 60.5t60.5 25.5 q45 0 73 -43q27 -39 27 -80q0 -48 -30 -99.5t-85 -91.5q-61 -46 -164 -55q-7 -1 -19.5 -3t-50.5 -4t-75.5 1t-88.5 15.5t-95.5 34t-91 62.5t-80.5 97q-50 82 -67 186.5t-4.5 208.5z" />
<glyph unicode="&#x25fc;" horiz-adv-x="696" d="M0 0v696h696v-696h-696z" />
</font>
</defs>
</svg>
