<?xml version="1.0" standalone="no"?>
<!DOCTYPE svg PUBLIC "-//W3C//DTD SVG 1.1//EN" "http://www.w3.org/Graphics/SVG/1.1/DTD/svg11.dtd" >
<svg xmlns="http://www.w3.org/2000/svg" xmlns:xlink="http://www.w3.org/1999/xlink" version="1.1">
<metadata></metadata>
<defs>
<font id="californiasansregregular" horiz-adv-x="1042" >
<font-face units-per-em="2048" ascent="1638" descent="-410" />
<missing-glyph horiz-adv-x="450" />
<glyph horiz-adv-x="0" />
<glyph unicode="&#xd;" horiz-adv-x="681" />
<glyph unicode=" "  horiz-adv-x="450" />
<glyph unicode="&#x09;" horiz-adv-x="450" />
<glyph unicode="&#xa0;" horiz-adv-x="450" />
<glyph unicode="!" horiz-adv-x="475" d="M133 1366h209q-20 -49 -23 -139l-43 -879h-77l-43 879q-6 106 -23 139zM150 70q0 41 27.5 68.5t66.5 27.5t66.5 -27.5t27.5 -68.5q0 -39 -27.5 -67t-66.5 -28t-66.5 28t-27.5 67z" />
<glyph unicode="&#x22;" horiz-adv-x="428" d="M72 1386h118l-30 -520h-58zM238 1386h118l-30 -520h-58z" />
<glyph unicode="#" horiz-adv-x="839" d="M10 723l29 129h178l43 188h-176l29 127h176l49 213h72l-50 -213h232l49 213h72l-49 -213h165l-32 -127h-164l-43 -188h166l-31 -129h-164l-61 -252h-70l57 252h-229l-59 -252h-72l59 252h-176zM287 852h233l43 188h-233z" />
<glyph unicode="$" horiz-adv-x="976" d="M51 248q162 -166 393 -166h24.5t23.5 2v551q-172 78 -242 139q-121 102 -121 240q0 68 26.5 127t73.5 105t115 75t148 39v149h69v-143q162 0 285 -51l8 -148q-117 117 -293 117v-496q43 -23 86 -44t88 -44q92 -53 135 -110q56 -78 56 -191q0 -143 -96.5 -247.5 t-268.5 -141.5v-188h-69v182q-18 -2 -37 -3t-39 -1q-193 0 -348 86zM262 1063q0 -90 76 -154q23 -20 61.5 -41.5t92.5 -48.5v461q-100 -12 -165 -71.5t-65 -145.5zM561 94q221 56 221 246q0 100 -67 166q-41 37 -154 98v-510z" />
<glyph unicode="%" horiz-adv-x="1447" d="M31 1020q0 158 94 264t235 107q137 0 226 -101q88 -96 88 -252q0 -160 -94 -260t-240 -100q-133 0 -223 96q-86 94 -86 246zM158 1053q0 -66 15 -121t42 -96t64.5 -63.5t82.5 -22.5q185 -1 185 243q0 147 -57.5 238.5t-149.5 91.5q-82 0 -132 -73.5t-50 -196.5zM381 -90 l594 1497h82l-594 -1497h-82zM772 315q0 154 96 263t236 108q137 0 225 -100q88 -96 88 -252q0 -158 -94 -258q-96 -102 -240 -103q-133 0 -223 97q-88 94 -88 245zM899 350q0 -68 15.5 -124t43 -97t65.5 -63.5t81 -22.5q184 0 184 246q0 72 -15.5 132t-42 104t-64.5 68.5 t-83 24.5q-86 0 -135 -72.5t-49 -195.5z" />
<glyph unicode="&#x26;" horiz-adv-x="1654" d="M72 455q0 133 82 239.5t219 153.5q-23 39 -38.5 67.5t-23.5 45.5q-23 61 -22 129q0 133 94 215q94 86 238 86q111 0 213 -62l-41 -123q-82 100 -197 101q-82 0 -135 -49.5t-53 -124.5q0 -127 292 -451q100 -111 209 -218.5t230 -217.5q141 131 141 334q0 143 -75 228 t-204 85q-86 0 -157 -47l-35 49q106 84 248 84q57 0 157 -21q100 -20 160 -20q143 0 240 76v-133q-76 -51 -193 -52q-92 0 -178 33q141 -96 141 -297q0 -207 -174 -375q90 -78 170 -77q74 0 176 73l37 -45q-180 -158 -276 -157q-82 0 -227 114q-174 -125 -406 -125 q-264 0 -438 138q-174 137 -174 344zM229 489q0 -184 129 -307q133 -121 330 -121q180 1 330 95q-78 76 -156 151.5t-155 153.5q-90 90 -162 171t-125 154q-190 -78 -191 -297z" />
<glyph unicode="'" horiz-adv-x="262" d="M72 1386h118l-30 -520h-58z" />
<glyph unicode="(" horiz-adv-x="587" d="M61 680q0 297 156 563t401 381l31 -59q-201 -123 -313 -359q-113 -231 -113 -526q0 -297 113 -530t313 -357l-31 -59q-246 115 -401 381q-156 266 -156 565z" />
<glyph unicode=")" horiz-adv-x="587" d="M-61 -207q111 70 192 166q98 117 162 291q72 197 72 430q0 129 -21 238q-35 180 -117 335q-109 201 -288 312l30 59q242 -115 400 -381q157 -268 157 -563q0 -297 -157 -565q-158 -268 -400 -381z" />
<glyph unicode="*" horiz-adv-x="651" d="M20 1075l48 154q98 -90 229 -135q-4 82 -16.5 150.5t-28.5 125.5h149q-35 -102 -47 -276q137 51 230 135l47 -154q-10 2 -21.5 2h-23.5q-98 0 -209 -39q70 -109 190 -196l-125 -97q-31 137 -116 248q-86 -117 -117 -248l-125 97q125 92 190 196q-104 39 -211 39h-21 t-22 -2z" />
<glyph unicode="+" d="M90 375v121h840v-121h-840zM449 -2v833h122v-833h-122z" />
<glyph unicode="," horiz-adv-x="360" d="M61 70q0 41 30 69.5t75 28.5q59 0 96 -47t37 -125q0 -180 -174 -287l-29 37q121 90 121 201q0 27 -6 51q-29 -23 -55 -23q-39 0 -67 28t-28 67z" />
<glyph unicode="-" horiz-adv-x="663" d="M61 535l66 131h264q68 0 120 3t91 7l-65 -133h-328q-109 0 -148 -8z" />
<glyph unicode="." horiz-adv-x="329" d="M61 80q0 43 30 72.5t73 29.5q45 0 74.5 -29.5t29.5 -72.5q0 -45 -30.5 -75t-73.5 -30t-73 31t-30 74z" />
<glyph unicode="/" horiz-adv-x="731" d="M72 -76l493 1518h94l-493 -1518h-94z" />
<glyph unicode="0" horiz-adv-x="1153" d="M82 655q0 315 151 527q150 211 381 211q201 0 324 -179q123 -178 123 -469q0 -332 -148 -552q-145 -219 -368 -220q-207 0 -336 189q-127 188 -127 493zM233 762q0 -322 95 -512q94 -190 256 -191q145 0 237 164q94 162 94 418q0 188 -57 367q-96 301 -295 301 q-145 0 -237 -154q-92 -152 -93 -393z" />
<glyph unicode="1" horiz-adv-x="487" d="M41 1208v56q172 49 283 133v-1233q0 -115 20 -164h-192q18 55 18 164v1044h-129z" />
<glyph unicode="2" horiz-adv-x="1001" d="M41 43q248 193 416 403q229 285 229 519q0 147 -84 235t-221 88q-135 0 -272 -86l-31 53q197 135 381 136q176 0 284 -115q111 -115 111 -293q0 -223 -221 -489q-104 -127 -393 -388h329q299 0 402 78l-70 -184h-840z" />
<glyph unicode="3" horiz-adv-x="942" d="M0 68l35 59q131 -70 293 -70q184 0 293 101q113 100 112 268q0 313 -426 313v68q342 31 342 266q0 104 -70.5 164.5t-189.5 60.5q-141 0 -315 -118l-41 51q205 160 418 160q74 0 137 -21.5t109 -59.5t72 -90.5t26 -113.5q0 -111 -76 -194t-213 -119q178 -10 285 -107 q110 -96 110 -246q0 -197 -160 -331q-160 -135 -395 -136q-188 0 -346 95z" />
<glyph unicode="4" horiz-adv-x="1083" d="M31 571l710 818h54v-750h49q119 0 209 43l-64 -156h-194v-532l-150 -64v596h-602zM190 639h455l4 528z" />
<glyph unicode="5" horiz-adv-x="983" d="M61 29l31 65q106 -43 217 -43q184 0 307 123q125 123 125 309q0 172 -102 272.5t-281 100.5q-127 0 -254 -51l138 571q156 -61 350 -61q186 0 309 51l-39 -149q-90 -25 -229 -25q-186 0 -342 53l-80 -336q113 31 221 31q211 0 344 -121q135 -121 135 -307 q0 -227 -174 -383q-170 -156 -422 -156q-135 0 -254 56z" />
<glyph unicode="6" horiz-adv-x="1091" d="M82 588q0 354 244 592q246 240 610 239h14l-4 -61q-539 -16 -688 -547q229 141 373 141q168 0 278 -135q111 -133 111 -334q0 -211 -133 -362q-133 -147 -326 -148q-211 0 -346 172q-133 174 -133 443zM246 616q0 -252 90 -409q92 -156 237 -156q63 0 116.5 29t91.5 81 t58.5 126t20.5 164q0 174 -86 282q-84 111 -219 111q-156 0 -305 -125q-2 -23 -3 -48.5t-1 -54.5z" />
<glyph unicode="7" horiz-adv-x="944" d="M41 1202l33 162q160 -47 375 -47q279 0 466 74l29 -33q-223 -330 -375 -686q-178 -426 -166 -717l-186 22q45 281 207 644q160 360 354 628q-201 -76 -483 -75q-156 0 -254 28z" />
<glyph unicode="8" horiz-adv-x="1095" d="M61 375q0 119 84 219q80 98 222 139q-246 106 -246 311q0 147 127 246q127 100 321 101q182 0 299 -93q119 -92 119 -225q0 -236 -291 -317q338 -117 338 -369q0 -174 -139 -295q-137 -119 -348 -119q-215 0 -350 111q-135 113 -136 291zM209 387q0 -147 96 -244 q96 -94 252 -94q143 0 231 82q93 82 93 209q0 106 -76 180q-55 55 -170 105q-47 18 -94 36.5t-95 36.5q-238 -68 -237 -311zM264 1085q0 -47 18.5 -85.5t59.5 -73.5t107.5 -68t162.5 -70q228 62 228 271q0 119 -78 189.5t-207 70.5q-61 0 -114.5 -17.5t-92.5 -48 t-61.5 -73.5t-22.5 -95z" />
<glyph unicode="9" horiz-adv-x="1085" d="M72 881q0 209 133 360q131 150 321 150q211 0 344 -172q134 -171 134 -443q0 -365 -248 -598q-250 -233 -615 -233l4 63q537 12 682 547q-203 -141 -368 -141q-166 0 -277 133q-111 131 -110 334zM231 915q0 -172 84 -284q84 -109 217 -109q156 0 306 125q2 45 3 69.5 t1 28.5q0 254 -90 412t-236 158q-66 0 -118 -29t-89 -81t-57.5 -125.5t-20.5 -164.5z" />
<glyph unicode=":" horiz-adv-x="327" d="M61 80q0 43 30 72.5t73 29.5t72.5 -29.5t29.5 -72.5t-29.5 -74t-72.5 -31t-73 31t-30 74zM61 649q0 43 30 74t73 31t72.5 -30t29.5 -75q0 -43 -29.5 -72.5t-72.5 -29.5t-73 29.5t-30 72.5z" />
<glyph unicode=";" horiz-adv-x="360" d="M61 70q0 41 30 69.5t75 28.5q59 0 96 -48t37 -126q0 -176 -176 -285l-29 37q123 88 123 203q0 31 -8 49q-29 -23 -55 -23q-39 0 -66 28t-27 67zM66 649q0 43 29.5 74t74.5 31q43 0 72.5 -30t29.5 -75q0 -43 -29.5 -72.5t-72.5 -29.5q-45 0 -74.5 29.5t-29.5 72.5z" />
<glyph unicode="&#x3c;" d="M76 379v115l850 378v-124l-695 -312l695 -311v-125z" />
<glyph unicode="=" d="M86 213v119h870v-119h-870zM86 541v118h870v-118h-870z" />
<glyph unicode="&#x3e;" d="M117 0v125l694 311l-694 312v124l850 -378v-115z" />
<glyph unicode="?" horiz-adv-x="712" d="M31 1198l47 156q88 37 198 37q164 0 269 -93q106 -88 106 -233q0 -236 -332 -475q33 -102 119 -187l-119 -77q-106 125 -143 241q80 47 138.5 93.5t95.5 87.5q102 121 102 268q0 117 -71.5 185.5t-194.5 68.5q-115 0 -215 -72zM238 70q0 41 27.5 68.5t66.5 27.5 t66.5 -27.5t27.5 -68.5q0 -39 -27.5 -67t-66.5 -28t-66.5 28t-27.5 67z" />
<glyph unicode="@" horiz-adv-x="1644" d="M72 596q0 354 247 590q250 238 623 237q295 0 477 -182q170 -169 154 -407t-164 -392q-137 -150 -307 -149q-197 0 -197 229q0 14 1 28.5t3 31.5q-49 -109 -131 -191q-98 -98 -190 -98t-144 76q-45 63 -45 161q0 199 166 381q180 197 420 197q14 0 35.5 -2t50.5 -6 q57 -6 84 -6q-16 -57 -33.5 -114.5t-34.5 -117.5q-35 -127 -55 -278q-6 -37 -6 -70q0 -162 115 -162q100 0 190 109q109 135 123 370q12 203 -96 349q-135 178 -416 178q-293 0 -512 -199q-240 -219 -240 -547q0 -281 170 -444q174 -174 500 -174q289 0 559 203l29 -60 q-82 -70 -219 -129q-184 -82 -383 -82q-311 0 -533 172q-242 190 -241 498zM535 567q0 -174 116 -174q74 0 166 135q92 137 125 293l45 211q-45 10 -74 10q-160 0 -272 -159q-106 -145 -106 -316z" />
<glyph unicode="A" horiz-adv-x="1150" d="M20 0l504 1366h103l440 -1227q31 -88 74 -139h-215q6 12 6 31q0 23 -19 75l-149 418h-442l-80 -250q-33 -100 -33 -184q0 -53 12 -90h-201zM352 608h381l-190 533z" />
<glyph unicode="B" horiz-adv-x="1087" d="M143 0q18 33 19 164v1038q0 127 -19 164h361q440 0 440 -311q0 -104 -63.5 -182t-175.5 -115q131 -27 223 -135q98 -115 98 -256q0 -180 -127 -279q-119 -88 -317 -88h-439zM313 86h209q340 0 340 301q0 145 -104 231q-94 76 -246 89q-78 6 -199 6v-627zM313 797 q143 0 285 -13q88 20 144.5 89t56.5 163q0 244 -340 244h-146v-483z" />
<glyph unicode="C" horiz-adv-x="1306" d="M305 1171q236 219 572 220q209 0 378 -80l-32 -135q-29 27 -69 48t-89 42q-111 41 -207 41q-272 0 -440 -179q-168 -176 -168 -462q0 -268 158 -439q156 -168 411 -168q258 0 447 183l-17 -160q-188 -109 -452 -109q-326 0 -527 183q-198 179 -198 480q0 316 233 535z " />
<glyph unicode="D" horiz-adv-x="1325" d="M143 0q18 37 19 164v1038q0 123 -19 164h357q342 0 536 -162q217 -174 217 -518q0 -299 -166 -479q-166 -182 -456 -203q-27 -2 -81 -3t-140 -1h-267zM313 86h198t95 2q244 12 367 174q114 152 114 410q0 326 -163 471q-158 139 -486 139h-125v-1196z" />
<glyph unicode="E" horiz-adv-x="1062" d="M143 0q18 37 19 164v1038q0 117 -19 164h844l-22 -149q-76 63 -312 63h-338v-502h404q96 0 133 17v-119q-45 16 -133 16h-404v-606h344q303 0 404 76l-45 -162h-875z" />
<glyph unicode="F" horiz-adv-x="954" d="M143 0q18 37 19 164v1038q0 117 -19 164h832l-23 -149q-76 63 -311 63h-328v-502h394q96 0 133 17v-119q-45 16 -133 16h-394v-528q0 -127 19 -164h-189z" />
<glyph unicode="G" horiz-adv-x="1400" d="M301 1174q229 217 569 217q244 0 414 -97l-35 -141q-57 68 -164.5 111t-230.5 43q-264 0 -436 -181q-172 -182 -172 -456q0 -270 160 -439q162 -168 419 -168q168 0 314 70v385q0 121 -17 164h187q-16 -29 -17 -164v-416q-252 -129 -514 -129q-313 0 -510 185 q-196 185 -196 478q0 322 229 538z" />
<glyph unicode="H" horiz-adv-x="1316" d="M143 0q18 37 19 164v1038q0 117 -19 164h189q-18 -47 -19 -164v-424h691v424q0 117 -19 164h189q-16 -43 -17 -164v-1038q0 -127 17 -164h-189q18 37 19 164v528h-691v-528q0 -127 19 -164h-189z" />
<glyph unicode="I" horiz-adv-x="475" d="M143 0q18 33 19 164v1038q0 127 -19 164h189q-18 -35 -19 -164v-1038q0 -131 19 -164h-189z" />
<glyph unicode="J" horiz-adv-x="460" d="M-287 -217q70 -88 191 -88q254 0 254 336v1171q0 141 -17 164h187q-16 -29 -17 -164v-1132q0 -231 -121 -346q-127 -121 -335 -121q-59 0 -119 16z" />
<glyph unicode="K" horiz-adv-x="1161" d="M143 0q18 37 19 164v1038q0 123 -19 164h189q-18 -43 -19 -164v-559q117 94 301 264q47 45 87 84t71 74q168 186 168 301h201q-23 -68 -115 -168q-45 -47 -88 -93t-88 -91q-53 -53 -120.5 -115.5t-154.5 -138.5q78 -123 176.5 -254t217.5 -273q53 -66 97 -112.5t77 -75.5 q29 -25 59 -45h-225l-21 20q-23 25 -63.5 74t-97.5 125l-107 139q-16 23 -46 64t-71 100q-16 23 -37.5 54.5t-48.5 70.5l-14 23q-27 -23 -65.5 -56.5t-92.5 -78.5v-371q0 -127 19 -164h-189z" />
<glyph unicode="L" horiz-adv-x="1001" d="M143 0q18 37 19 164v1038q0 127 -19 164h189q-18 -37 -19 -164v-1116h295q307 0 404 76l-45 -162h-824z" />
<glyph unicode="M" horiz-adv-x="1619" d="M133 0q16 29 17 164v1038q0 121 -17 164h191l473 -1126l493 1126h187q-16 -43 -17 -164v-1038q0 -127 17 -164h-189q18 39 19 164v1003l-516 -1167h-54l-493 1167l2 -1003q0 -121 16 -164h-129z" />
<glyph unicode="N" horiz-adv-x="1312" d="M133 0q18 37 19 164v1038q0 117 -19 164h168l770 -1075l-4 911v53.5t-2 30.5q-2 23 -5 43.5t-11 36.5h131q-18 -47 -19 -164v-1229h-51l-866 1205l2 -1014q0 -127 18 -164h-131z" />
<glyph unicode="O" horiz-adv-x="1505" d="M72 655q0 311 204 523q207 213 504 213q287 0 469 -195q185 -195 185 -498q0 -317 -199 -522q-197 -203 -506 -203q-295 0 -477 189q-180 186 -180 493zM244 700q0 -293 141 -467q143 -174 377 -174q493 0 493 623q0 281 -143 442q-141 164 -375 164q-225 0 -360 -160 q-133 -162 -133 -428z" />
<glyph unicode="P" horiz-adv-x="985" d="M143 0q18 37 19 164v1038q0 117 -19 164h334q193 0 320 -86q147 -103 147 -287q0 -170 -129 -282q-127 -113 -319 -113q-86 0 -183 33v-467q0 -127 19 -164h-189zM313 717q92 -35 176 -35q135 0 217 81t82 218q0 299 -382 299h-93v-563z" />
<glyph unicode="Q" horiz-adv-x="1531" d="M72 655q0 311 204 523q207 213 504 213q287 0 469 -195q184 -195 185 -494q0 -127 -32 -236.5t-93.5 -198.5t-148.5 -155.5t-197 -105.5q117 -117 192 -172q131 -96 227 -96q61 0 158 43l23 -47q-10 -4 -28.5 -14.5t-47.5 -24.5q-166 -76 -234 -76q-90 0 -221 111 q-59 51 -122.5 111.5t-129.5 131.5q-326 0 -518 177q-190 178 -190 505zM244 702q0 -303 170 -491q119 -131 315 -152q74 14 129 64q10 -14 20.5 -25.5t20.5 -21.5q356 100 356 573q0 293 -141 465q-137 174 -377 174q-225 0 -360 -160q-133 -158 -133 -426z" />
<glyph unicode="R" horiz-adv-x="1064" d="M143 0q18 37 19 164v1038q0 117 -19 164h338q203 0 328 -82q147 -96 147 -285q0 -150 -108 -247q-96 -88 -232 -109l101 -147q78 -117 147.5 -211.5t130.5 -169.5q66 -82 111 -115h-219q-45 57 -147.5 211t-268.5 410h-78q-27 -2 -46 -2.5t-34 -0.5v-454q0 -127 19 -164 h-189zM313 705h97q393 0 393 274q0 154 -98 233q-90 68 -230 68h-162v-575z" />
<glyph unicode="S" horiz-adv-x="995" d="M51 231q166 -172 404 -172q156 0 249 72t93 195q0 150 -172 252l-160 86t-162 84q-172 113 -172 284q0 164 127 260q129 98 338 99q143 0 266 -54l8 -151q-121 121 -297 121q-68 0 -124 -16.5t-97 -47.5t-63.5 -74t-22.5 -94q0 -129 176 -221q82 -41 163 -81t163 -81 q176 -117 176 -303q0 -182 -143 -299q-145 -117 -369 -117q-201 0 -364 90z" />
<glyph unicode="T" horiz-adv-x="1056" d="M-31 1204l43 162h1032l43 -162q-100 76 -405 76h-78v-1116q0 -121 19 -164h-189q16 66 17 164v1116h-78q-307 0 -404 -76z" />
<glyph unicode="U" horiz-adv-x="1353" d="M133 1366h193q-18 -59 -19 -164v-708q0 -434 371 -435q430 0 430 445v698q0 127 -16 164h139q-18 -41 -19 -164v-661q0 -567 -538 -568q-524 0 -524 539v690q0 131 -17 164z" />
<glyph unicode="V" horiz-adv-x="1144" d="M10 1366h207q-6 -10 -6 -27q0 -25 20 -79l369 -1049l213 604q113 317 113 457q0 63 -15 94h213l-503 -1370h-99l-436 1231q-41 111 -76 139z" />
<glyph unicode="W" horiz-adv-x="1738" d="M10 1366h211q-4 -12 -4 -25q0 -20 23 -84l348 -964l252 751l-74 205q-23 57 -25 68q-14 37 -34 49h200q-2 -6 -2 -16q0 -20 17 -70l356 -987l162 567q86 301 86 410q0 55 -13 96h185l-430 -1393h-39l-338 932l-316 -932h-38l-455 1250q-12 33 -37 86q-4 10 -12 23.5 t-23 33.5z" />
<glyph unicode="X" horiz-adv-x="1175" d="M31 0q39 229 344 580q39 49 117 135l-347 540q-49 76 -86 111h230v-12q0 -31 28 -78l285 -442q2 2 26.5 29.5t73.5 80.5q18 20 40 45t44 53q68 82 115 162q53 90 53 162h170q-12 -49 -51 -111q-63 -106 -311 -372q-20 -23 -49 -53.5t-64 -69.5l410 -641q39 -59 57.5 -81 t38.5 -38h-233v10q0 37 -31 84l-352 547q-18 -20 -44 -50t-59 -69q-96 -123 -149 -227q-78 -156 -78 -266q0 -20 2 -29h-180z" />
<glyph unicode="Y" horiz-adv-x="1089" d="M0 1366h225q-2 -6 -2 -23q0 -35 33 -92l317 -575l213 375q57 100 80 155q33 74 33 129q0 20 -2 31h193l-476 -780v-422q0 -115 13 -148q2 -4 6 -16h-189q6 8 7 16q10 31 10 148v422l-373 661q-23 39 -44 69t-44 50z" />
<glyph unicode="Z" horiz-adv-x="1052" d="M20 0l789 1280h-332q-238 0 -350 -98l43 184h846l-778 -1280h311q219 0 315 20q104 23 168 68l-43 -174h-969z" />
<glyph unicode="[" horiz-adv-x="442" d="M61 -176q16 43 17 164v1370q0 125 -17 162h351v-62h-179v-1573h179v-61h-351z" />
<glyph unicode="\" horiz-adv-x="739" d="M76 1442h94l494 -1518h-95z" />
<glyph unicode="]" horiz-adv-x="442" d="M31 -104h178v1572h-178v62h350q-16 -37 -16 -162v-1370q0 -121 16 -164h-350v62z" />
<glyph unicode="^" d="M94 553l361 747h135l360 -747h-139l-289 610l-289 -610h-139z" />
<glyph unicode="_" horiz-adv-x="1003" d="M-10 -154h1024v-102h-1024v102z" />
<glyph unicode="`" horiz-adv-x="446" d="M61 1157q20 18 39 35.5t35 34.5q37 -25 125 -97q92 -74 125 -106l-35 -39q-164 113 -289 172z" />
<glyph unicode="a" horiz-adv-x="845" d="M20 190q0 141 138 240q123 88 391 184v64q0 147 -135 147q-164 0 -289 -155l-55 73q199 162 426 162q104 0 149 -44t45 -148v-381q0 -113 23 -154q31 -53 133 -94l-86 -109q-154 37 -197 189q-33 -35 -69.5 -66.5t-77.5 -58.5q-100 -63 -178 -64q-98 0 -158 58.5 t-60 156.5zM156 223q0 -131 131 -131q31 0 66.5 11.5t71.5 32t67.5 48t56.5 58.5v305q-96 -39 -143 -62q-78 -37 -144 -84q-106 -76 -106 -178z" />
<glyph unicode="b" horiz-adv-x="1011" d="M123 1325l158 41v-598q162 137 313 137q154 0 250 -121q96 -120 96 -313q0 -217 -125 -356q-127 -139 -315 -140q-152 0 -283 111l-29 -104h-57q4 25 7 71.5t3 116.5v987q0 133 -18 168zM281 129q94 -80 213 -80q137 0 215.5 98.5t78.5 272.5q0 168 -71.5 271.5 t-194.5 103.5q-121 0 -241 -115v-551z" />
<glyph unicode="c" horiz-adv-x="856" d="M197 764q125 141 307 141q201 0 317 -157l-73 -111q-84 197 -254 197q-121 0 -201 -101q-78 -102 -78 -256q0 -178 94 -293q95 -114 236 -114h2q141 0 254 100l35 -49q-158 -145 -349 -146q-182 0 -299 127q-116 124 -116 321q0 204 125 341z" />
<glyph unicode="d" horiz-adv-x="1011" d="M72 410q0 219 125 356q127 139 319 139q115 0 215 -63v315q0 133 -18 168l159 41v-1182q0 -131 17 -168l-158 -41v140q-164 -139 -311 -140q-154 0 -252 121q-96 121 -96 314zM217 461q0 -172 75 -273.5t200 -101.5t239 107v565q-97 73 -208 73h-3q-143 0 -223 -98 t-80 -272z" />
<glyph unicode="e" horiz-adv-x="862" d="M184 770q113 135 275 135q123 0 220 -80t140 -221l-598 -178q18 -168 102.5 -261t219.5 -93q133 0 260 110l39 -49q-164 -158 -363 -158q-180 0 -293 131q-114 132 -114 334q0 199 112 330zM219 502l436 131q-72 203 -213 203q-98 0 -160.5 -92.5t-62.5 -241.5z" />
<glyph unicode="f" horiz-adv-x="448" d="M20 817v64h132v129q0 102 6 139q8 76 49 129q82 111 242 111q109 0 174 -52l-25 -106q-53 96 -152 96q-98 0 -131 -80q-22 -53 -22 -177v-11v-178h186v-64h-186v-653q0 -125 20 -164h-180q18 37 19 164v653h-132z" />
<glyph unicode="g" horiz-adv-x="952" d="M20 -217q0 170 248 246q-131 33 -131 121q0 43 39 100q16 20 30.5 38.5t29.5 37.5q-125 104 -125 252q0 139 94 233t233 94q27 0 64 -4t84 -12t84 -11.5t59 -3.5q84 0 150 37l-21 -98q-37 -14 -88 -14t-94 16q108 -73 108 -232q0 -140 -96 -237q-94 -94 -239 -94 q-96 0 -160 39q-51 -63 -51 -96q0 -63 186 -66q68 0 203 -6q315 -21 315 -246q0 -139 -156 -233q-156 -96 -378 -97q-174 0 -281 64.5t-107 171.5zM150 -201q0 -80 82.5 -129t218.5 -49q152 0 251 64q103 65 103 155q0 102 -125 135q-51 14 -205 21q-23 2 -52.5 3t-68.5 5 q-88 -18 -146 -76.5t-58 -128.5zM246 627q0 -127 63 -215q63 -86 156 -86q82 0 131 58.5t49 156.5q0 121 -65 211q-63 88 -154 88q-78 0 -129 -59.5t-51 -153.5z" />
<glyph unicode="h" horiz-adv-x="987" d="M123 0q18 37 18 164v993q0 133 -18 168l158 41v-598q199 137 352 137q104 0 164 -65q59 -66 59 -250v-426q0 -106 18 -164h-176q16 55 17 164v426q0 86 -13 129q-29 90 -139 90q-121 0 -282 -125v-520q0 -131 18 -164h-176z" />
<glyph unicode="i" horiz-adv-x="428" d="M123 1128q0 39 26.5 65t65.5 26t64.5 -26t25.5 -65t-25.5 -65.5t-64.5 -26.5t-65.5 27t-26.5 65zM127 0q18 37 18 164v532q0 133 -18 168l158 41v-741q0 -127 18 -164h-176z" />
<glyph unicode="j" horiz-adv-x="434" d="M-164 -428l27 113q49 -100 151 -101q94 0 131 84q18 45 19 187v841q0 131 -17 168l158 41v-1005q0 -190 -53 -267q-81 -112 -239 -112h-3q-109 0 -174 51zM137 1128q0 39 26.5 65t65.5 26t66 -26t27 -65t-27 -65.5t-66 -26.5t-65.5 27t-26.5 65z" />
<glyph unicode="k" horiz-adv-x="917" d="M123 0q18 37 18 164v993q0 133 -18 168l158 41v-911q190 125 319 272q82 90 90 154h191q-59 -72 -109 -121q-70 -70 -132 -125t-120 -98q70 -129 195 -283q133 -164 254 -254h-207q-125 125 -350 457q-10 -8 -26.5 -20.5t-39.5 -28.5t-39 -27.5t-26 -20.5v-196 q0 -127 18 -164h-176z" />
<glyph unicode="l" horiz-adv-x="421" d="M123 0q18 37 18 164v993q0 133 -18 168l158 41v-1202q0 -127 18 -164h-176z" />
<glyph unicode="m" horiz-adv-x="1562" d="M123 0q18 37 18 164v532q0 133 -18 168l156 41v-139q207 139 348 139q164 0 213 -147q217 147 358 147q135 0 191 -94q41 -76 41 -221v-426q0 -125 20 -164h-178q18 37 18 164v426q0 102 -24 149q-33 70 -129 70q-121 0 -285 -127q2 -14 3 -36.5t1 -55.5v-426 q0 -113 18 -164h-176q16 49 17 164v426q0 100 -23 149q-33 70 -129 70q-121 0 -282 -125v-520q0 -125 20 -164h-178z" />
<glyph unicode="n" horiz-adv-x="987" d="M123 0q18 37 18 164v532q0 133 -18 168l158 41v-137q199 137 352 137q137 0 186 -96q37 -68 37 -219v-426q0 -109 18 -164h-176q8 33 12.5 73t4.5 91v426q0 100 -23 149q-33 70 -129 70q-121 0 -282 -125v-520q0 -125 20 -164h-178z" />
<glyph unicode="o" horiz-adv-x="1015" d="M201 766q129 139 317 139q186 0 305 -131q121 -131 121 -330q0 -205 -129 -335q-127 -133 -323 -134q-182 0 -302 125q-118 124 -118 319q0 208 129 347zM223 483q0 -188 86 -313t217 -125q125 0 195 86t70 240q0 203 -89 334q-90 133 -219 133q-119 0 -189.5 -96.5 t-70.5 -258.5z" />
<glyph unicode="p" horiz-adv-x="1011" d="M123 -459q18 45 18 164v991q0 133 -18 168l158 41v-137q164 137 313 137q154 0 250 -121q96 -120 96 -313q0 -219 -125 -356q-127 -139 -319 -140q-115 0 -215 66v-336q0 -117 20 -164h-178zM281 129q98 -80 213 -80q137 0 215.5 98.5t78.5 272.5q0 168 -71.5 271.5 t-194.5 103.5q-117 0 -241 -115v-551z" />
<glyph unicode="q" horiz-adv-x="1011" d="M72 410q0 217 125 354q125 141 317 141q147 0 281 -96l28 96h58q-4 -33 -6.5 -76t-2.5 -98v-997q0 -127 17 -170l-158 -41v592q-168 -139 -311 -140q-156 0 -252 121t-96 314zM225 461q0 -168 72 -271.5t195 -103.5q109 0 239 115v553q-99 77 -208 77h-3q-137 0 -216 -98 t-79 -272z" />
<glyph unicode="r" horiz-adv-x="681" d="M123 0q18 37 18 164v532q0 133 -18 168l158 41v-145q201 145 303 145q68 0 118 -45l-28 -141q-49 82 -133 82q-111 0 -260 -121v-516q0 -125 20 -164h-178z" />
<glyph unicode="s" horiz-adv-x="776" d="M61 180q143 -129 308 -129q106 0 170.5 45t64.5 117q0 86 -131 143q-59 25 -120.5 49.5t-121.5 49.5q-131 70 -131 192q0 57 26 105.5t72 82t110.5 52t142.5 18.5q123 0 227 -43l6 -102q-106 76 -235 76q-98 0 -160 -40t-62 -104q0 -82 131 -133l246 -98 q131 -74 131 -205q0 -121 -108 -201q-109 -80 -275 -80q-154 0 -280 72z" />
<glyph unicode="t" horiz-adv-x="559" d="M41 817v29q63 20 129 96q61 70 84 166h37v-227h246v-64h-246v-557q0 -98 16 -137q27 -57 119 -57q57 0 135 36l19 -51q-113 -76 -250 -76q-111 0 -152 66q-28 48 -28 152v20l4 604h-113z" />
<glyph unicode="u" horiz-adv-x="1024" d="M113 870l157 41v-618q0 -123 35 -171t121 -48q121 0 283 125q-2 14 -3 29.5t-1 31.5v442q0 139 -17 168l158 41v-579q0 -113 28 -160q33 -55 130 -88l-89 -109q-137 39 -186 156q-211 -156 -362 -156q-236 0 -236 267v460q0 133 -18 168z" />
<glyph unicode="v" horiz-adv-x="794" d="M-20 881h200q-6 -18 -6 -29q0 -37 21 -86l235 -578l141 363q59 154 60 240q0 55 -23 90h187l-383 -922h-33l-322 776q-12 29 -24.5 56.5t-24.5 52.5q-4 8 -11 17t-17 20z" />
<glyph unicode="w" horiz-adv-x="1298" d="M-20 881h198q-3 -11 -3 -25q0 -36 22 -90l229 -576l182 453l-55 139q-29 70 -57 99h200q-6 -17 -6 -37q0 -36 19 -80l229 -574l139 361q59 156 60 240q0 55 -23 90h184l-376 -922h-35l-238 590l-239 -590h-35l-318 782q-41 100 -77 140z" />
<glyph unicode="x" horiz-adv-x="909" d="M0 0q33 74 141 199q41 41 101.5 105.5t140.5 150.5l-254 342q-35 49 -82 84h219q-2 -4 -2 -15q0 -25 35 -71l184 -250q10 8 34 33.5t65 66.5q127 133 127 207q0 8 -1 14t-3 15h186q-31 -66 -260 -289l-107 -105l260 -354q23 -31 37.5 -50.5t22.5 -29.5q31 -37 65 -53 h-223q0 39 -55 117l-205 278q-121 -117 -195 -213q-71 -91 -71 -161q0 -11 2 -21h-162z" />
<glyph unicode="y" horiz-adv-x="827" d="M-10 881h215q-6 -13 -6 -29q0 -29 18 -70l244 -587q203 428 209 598q1 7 1 13q0 45 -24 75h180q-6 -18 -18 -51t-29 -80q-92 -246 -276 -639q-45 -98 -115 -241.5t-166 -336.5l-188 -22q201 201 346 530l-318 733q-33 78 -73 107z" />
<glyph unicode="z" horiz-adv-x="851" d="M20 43l617 719h-373q-117 0 -180 -35l53 154h660l24 -43l-614 -719h434q119 0 190 55l-65 -174h-723z" />
<glyph unicode="{" horiz-adv-x="524" d="M61 684q78 27 111 80t33 158v342q0 80 15.5 135t49 89t89 49t135.5 15v-32q-100 -25 -127 -82q-23 -49 -23 -174v-314q0 -127 -33 -180q-31 -51 -121 -86q98 -37 129 -100q25 -49 25 -166v-314q0 -113 23 -167q35 -72 127 -87v-34q-80 0 -135.5 15t-89 49t-49 89.5 t-15.5 134.5v342q0 106 -29 154q-29 49 -115 84z" />
<glyph unicode="|" horiz-adv-x="434" d="M156 -205v1649h123v-1649h-123z" />
<glyph unicode="}" horiz-adv-x="524" d="M31 -150q92 14 127 87q23 55 22 167v314q0 117 25 166q31 63 129 100q-90 33 -123 86q-31 55 -31 180v314q0 125 -22 174q-27 57 -127 82v32q80 0 135 -15t89 -49t49 -89.5t15 -134.5v-342q0 -104 33 -157.5t111 -80.5q-86 -35 -115 -84q-29 -47 -29 -154v-342 q0 -80 -15 -135t-49 -89t-89 -49t-135 -15v34z" />
<glyph unicode="~" horiz-adv-x="1069" d="M61 561q92 176 256 176q80 0 232 -69q154 -70 205 -70q84 0 180 147l74 -86q-61 -86 -103 -120q-72 -55 -153 -56q-78 0 -215 70t-230 70q-104 0 -172 -148z" />
<glyph unicode="&#xa1;" horiz-adv-x="475" d="M133 0q8 23 13.5 57.5t7.5 81.5l43 879h77l43 -879q4 -96 25 -139h-209zM135 1294q0 39 27.5 67t66.5 28q41 0 69 -28t28 -67t-28 -66.5t-69 -27.5q-39 0 -66.5 27.5t-27.5 66.5z" />
<glyph unicode="&#xa2;" horiz-adv-x="722" d="M61 877q0 143 86 251q92 111 226 132v176h69v-176q143 -6 236 -130l-60 -88q-59 135 -176 152v-602h9q117 0 213 78l28 -39q-111 -100 -250 -117v-231h-69v231q-72 6 -129.5 37t-97.5 78t-62.5 110.5t-22.5 137.5zM197 913q0 -55 13 -105t36.5 -91t56.5 -70t70 -41v586 q-76 -8 -126 -87t-50 -192z" />
<glyph unicode="&#xa3;" horiz-adv-x="1030" d="M0 27q152 119 205 209q61 106 61 292q0 29 -2 70t-6 94h-170v86h166q-2 20 -2 40v40q0 229 82 363q102 170 315 170q137 0 238 -97l-51 -92q-72 123 -201 123q-231 0 -232 -342q0 -39 3.5 -90t11.5 -115h223v-86h-217q6 -47 6 -90q0 -264 -182 -457q76 37 160 37 q63 0 196 -37q131 -37 207 -36q141 0 219 75l-31 -174q-66 -39 -184 -39q-98 0 -252 60q-147 61 -215 61q-139 0 -307 -127z" />
<glyph unicode="&#xa4;" horiz-adv-x="847" d="M55 752l35 79h49v35q0 16 1 30.5t3 29.5h-88l35 80h70q18 63 54 116.5t84 91t105.5 58t118.5 20.5q178 0 283 -141l-66 -98q-72 176 -225 176q-88 0 -151.5 -61.5t-86.5 -161.5h383l-34 -80h-359v-15q0 -41 6 -80h316l-35 -79h-258q76 -203 266 -203q123 0 225 90l31 -43 q-141 -129 -309 -129q-131 0 -227.5 78t-128.5 207h-97z" />
<glyph unicode="&#xa5;" horiz-adv-x="1089" d="M0 1366h225q-2 -6 -2 -23q0 -35 33 -92l317 -575l213 375q57 100 80 155q33 74 33 129q0 20 -2 31h193l-437 -715h308v-78h-347v-124h347v-78h-347v-207q0 -115 13 -148q2 -4 6 -16h-189q6 8 7 16q10 31 10 148v207h-346v78h346v124h-346v78h309l-336 596q-23 39 -44 69 t-44 50z" />
<glyph unicode="&#xa6;" horiz-adv-x="393" d="M143 -205v660h107v-660h-107zM143 784v660h107v-660h-107z" />
<glyph unicode="&#xa7;" horiz-adv-x="907" d="M20 84q156 -125 363 -125q135 0 216 49t81 131q0 106 -182 185q-41 16 -84 31.5t-84 31.5q-111 47 -164 92q-74 63 -74 148q0 104 93.5 169.5t252.5 77.5q-76 29 -126 51.5t-74 39.5q-111 70 -111 174q0 57 29.5 104t85 80t132.5 50.5t169 17.5q135 0 239 -37l9 -119 q-113 90 -269 90q-117 0 -191.5 -44t-74.5 -112q0 -92 186 -161q45 -16 88 -30.5t86 -31.5q111 -43 166 -92q74 -68 74 -158q0 -94 -72.5 -164.5t-195.5 -103.5q233 -96 233 -246q0 -129 -129 -209q-125 -82 -330 -82q-184 0 -325 64zM221 655q0 -63 70 -108q53 -33 168 -72 q119 8 187.5 55t68.5 123q0 96 -109 150q-47 4 -75.5 7t-43.5 3q-125 0 -195.5 -44t-70.5 -114z" />
<glyph unicode="&#xa8;" horiz-adv-x="550" d="M61 1114q0 76 76 76t76 -76t-76 -76t-76 76zM338 1114q0 76 76 76q75 0 75 -76t-75 -76q-76 0 -76 76z" />
<glyph unicode="&#xa9;" horiz-adv-x="1572" d="M72 686q0 293 211 498q213 207 503 207q291 0 504 -207q211 -205 211 -498q0 -291 -211 -496q-213 -207 -504 -206q-291 0 -503 206q-211 205 -211 496zM174 686q0 -254 178 -438q182 -182 434 -182t431 182q180 182 180 438q0 258 -180 438q-178 182 -431 183 q-252 0 -434 -183q-178 -182 -178 -438zM367 664q0 195 143 325q143 135 352 135q106 0 230 -59l-19 -82q-100 88 -223 88q-166 0 -268 -108q-102 -109 -103 -283q0 -84 24.5 -151.5t71 -115.5t110 -75t140.5 -27q147 0 275 123l-4 -98q-135 -80 -283 -80q-201 0 -324 111 q-123 113 -122 297z" />
<glyph unicode="&#xaa;" horiz-adv-x="630" d="M61 956q0 86 84 148q68 49 234 110v33q0 84 -76 84q-94 0 -174 -96l-41 53q131 102 264 103q121 0 121 -121v-230q0 -35 3 -56t13.5 -37.5t30 -28t49.5 -23.5l-57 -74q-90 23 -123 109q-102 -109 -192 -109q-59 0 -97.5 38t-38.5 97zM72 696v68h485v-68h-485zM154 975 q0 -74 73 -74q84 0 152 86v174q-98 -37 -161.5 -82t-63.5 -104z" />
<glyph unicode="&#xab;" horiz-adv-x="827" d="M61 715q233 145 318 360h57q-39 -207 -180 -360q131 -143 180 -389h-57q-94 250 -318 389zM391 715q233 145 318 360h57q-39 -207 -180 -360q131 -143 180 -389h-57q-94 250 -318 389z" />
<glyph unicode="&#xac;" d="M86 537v122h870v-546h-122v424h-748z" />
<glyph unicode="&#xad;" horiz-adv-x="663" d="M61 535l66 131h264q68 0 120 3t91 7l-65 -133h-328q-109 0 -148 -8z" />
<glyph unicode="&#xae;" horiz-adv-x="772" d="M51 1059q0 137 99 233q98 98 237 99q137 0 236 -99q98 -96 98 -233t-98 -238q-98 -98 -236 -98q-137 0 -237 98q-98 100 -99 238zM111 1059q0 -119 79 -201q82 -82 197 -82q113 0 193 82q82 82 82 201q0 117 -82 198q-80 82 -193 82q-115 0 -197 -82q-80 -84 -79 -198z M274 874q6 14 7 46v284q0 43 -7 47h117q137 0 137 -102q0 -80 -96 -98q16 -23 30.5 -47.5t29.5 -47.5q51 -74 69 -82h-84q-12 16 -39.5 59.5t-72.5 110.5h-19v-124q0 -10 1 -22.5t3 -23.5h-76zM346 1085h27q90 1 90 60q0 68 -84 67h-33v-127z" />
<glyph unicode="&#xaf;" horiz-adv-x="583" d="M61 1071v82h461v-82h-461z" />
<glyph unicode="&#xb0;" horiz-adv-x="696" d="M49 1040q0 125 86 211q88 88 213 88t211 -88q88 -86 88 -211t-88 -213q-86 -86 -211 -86t-213 86q-86 88 -86 213zM139 1040q0 -90 62 -153q61 -66 147 -66t148 66q61 63 61 153q0 88 -61 154t-148 66q-86 0 -147 -66t-62 -154z" />
<glyph unicode="&#xb1;" d="M86 0v123h870v-123h-870zM86 477v123h375v272h123v-272h372v-123h-372v-272h-123v272h-375z" />
<glyph unicode="&#xb2;" horiz-adv-x="647" d="M31 553q76 59 139 119.5t115 126.5q135 168 135 305q0 86 -48 135t-128 49q-78 0 -166 -53l-27 45q125 86 240 86q111 0 178.5 -69.5t67.5 -182.5q0 -131 -125 -287q-35 -43 -92.5 -101t-139.5 -130h176q178 0 260 63l-55 -143h-514z" />
<glyph unicode="&#xb3;" horiz-adv-x="620" d="M31 561l28 49q82 -45 179 -45q106 0 170.5 57.5t64.5 155.5q0 180 -256 180v56q207 23 207 153q0 57 -41 92t-109 35q-84 0 -190 -75l-35 43q137 104 262 104q94 0 154.5 -50t60.5 -130q0 -125 -141 -182q94 -16 149.5 -74t55.5 -144q0 -123 -98 -204q-100 -84 -242 -84 q-113 0 -219 63z" />
<glyph unicode="&#xb4;" horiz-adv-x="446" d="M61 1024q16 16 47 43t76 63q94 76 127 97q27 -27 45.5 -43.5t28.5 -26.5q-127 -59 -289 -172z" />
<glyph unicode="&#xb5;" horiz-adv-x="1024" d="M113 870l157 41v-618q0 -123 35 -171t121 -48q121 0 283 125q-2 14 -3 29.5t-1 31.5v442q0 139 -17 168l158 41v-579q0 -113 28 -160q33 -55 130 -88l-89 -109q-137 39 -186 156q-115 -84 -176 -117q-76 -39 -150 -39q-109 0 -153 64v-426h-119v1089q0 133 -18 168z" />
<glyph unicode="&#xb6;" horiz-adv-x="1103" d="M51 1040q0 127 90 222q100 104 271 104h549q-51 -18 -52 -94v-1206q0 -57 4 -78q6 -31 35 -70h-149v1387h-88v-1387h-158q47 31 47 148v700q-96 -59 -199 -59q-78 0 -141 23.5t-110.5 66.5t-73 104.5t-25.5 138.5zM186 1012q0 -104 59.5 -171t164.5 -67q94 0 190 60v471 h-102q-311 0 -312 -293z" />
<glyph unicode="&#xb7;" horiz-adv-x="329" d="M61 598q0 43 30 72.5t73 29.5q45 0 74.5 -29.5t29.5 -72.5q0 -45 -30.5 -74.5t-73.5 -29.5t-73 30.5t-30 73.5z" />
<glyph unicode="&#xb8;" horiz-adv-x="483" d="M61 -285q14 16 25.5 31.5t22.5 32.5q43 -80 131 -80q90 0 90 61q0 43 -113 62q-104 14 -104 53q0 29 80 125h69q-63 -100 -63 -90q0 -12 75 -25q148 -22 148 -100q0 -68 -72 -104q-55 -31 -123 -31q-96 0 -166 65z" />
<glyph unicode="&#xb9;" horiz-adv-x="264" d="M31 1239v47q113 33 186 92v-757q0 -63 16 -107h-139q14 43 15 107v618h-78z" />
<glyph unicode="&#xba;" horiz-adv-x="657" d="M61 1096q0 125 78 209q80 86 195 86q57 0 105 -21.5t83 -58.5t54.5 -89.5t19.5 -113.5q0 -123 -80 -205q-78 -80 -197 -80q-55 0 -103 20.5t-82 56.5t-53.5 86t-19.5 110zM86 702v68h485v-68h-485zM162 1133q0 -55 13 -102.5t38 -82.5t57.5 -54.5t69.5 -19.5 q154 1 154 191q0 59 -14.5 109.5t-39 87t-57.5 57t-70 20.5q-68 0 -109.5 -56t-41.5 -150z" />
<glyph unicode="&#xbb;" horiz-adv-x="827" d="M61 326q49 246 181 389q-137 150 -181 360h58q84 -215 317 -360q-223 -139 -317 -389h-58zM391 326q49 246 180 389q-137 150 -180 360h58q84 -215 317 -360q-223 -139 -317 -389h-58z" />
<glyph unicode="&#xbc;" horiz-adv-x="1148" d="M31 1239v47q113 33 186 92v-757q0 -63 16 -107h-139q14 43 15 107v618h-78zM96 -90l594 1497h82l-594 -1497h-82zM479 352l432 498h43v-451h23q59 0 141 35l-49 -119h-115v-315l-104 -45v360h-361zM602 399h248l2 287z" />
<glyph unicode="&#xbd;" horiz-adv-x="1200" d="M31 1239v47q113 33 186 92v-757q0 -63 16 -107h-139q14 43 15 107v618h-78zM96 -90l594 1497h82l-594 -1497h-82zM584 37q76 59 139 119.5t115 126.5q135 168 135 305q0 86 -48 135t-128 49q-78 0 -166 -53l-27 45q125 86 240 86q111 0 178.5 -69.5t67.5 -182.5 q0 -131 -125 -287q-35 -43 -92.5 -101t-139.5 -130h176q178 0 260 63l-55 -143h-514z" />
<glyph unicode="&#xbe;" horiz-adv-x="1476" d="M31 561l28 49q82 -45 179 -45q106 0 170.5 57.5t64.5 155.5q0 180 -256 180v56q207 23 207 153q0 57 -41 92t-109 35q-84 0 -190 -75l-35 43q137 104 262 104q94 0 154.5 -50t60.5 -130q0 -125 -141 -182q94 -16 149.5 -74t55.5 -144q0 -123 -98 -204q-100 -84 -242 -84 q-113 0 -219 63zM401 -90l594 1497h82l-594 -1497h-82zM807 352l432 498h43v-451h23q59 0 141 35l-49 -119h-115v-315l-106 -45v360h-359zM930 399h248l2 287z" />
<glyph unicode="&#xbf;" horiz-adv-x="714" d="M61 328q0 236 334 477q-53 117 -121 184l119 78q94 -96 144 -240q-78 -55 -134.5 -101t-91.5 -85q-111 -127 -110 -264q0 -117 72.5 -185.5t195.5 -68.5q113 0 215 72l-49 -156q-96 -37 -199 -37q-162 0 -270 90q-104 92 -105 236zM287 1323q0 39 27.5 66.5t68.5 27.5 q39 0 66.5 -27.5t27.5 -66.5t-27.5 -66.5t-66.5 -27.5q-41 0 -68.5 27.5t-27.5 66.5z" />
<glyph unicode="&#xc0;" horiz-adv-x="1150" d="M20 0l504 1366h103l440 -1227q31 -88 74 -139h-215q6 12 6 31q0 23 -19 75l-149 418h-442l-80 -250q-33 -100 -33 -184q0 -53 12 -90h-201zM288 1669q20 18 39 35.5t35 34.5q37 -25 125 -97q92 -74 125 -106l-35 -39q-164 113 -289 172zM352 608h381l-190 533z" />
<glyph unicode="&#xc1;" horiz-adv-x="1150" d="M20 0l504 1366h103l440 -1227q31 -88 74 -139h-215q6 12 6 31q0 23 -19 75l-149 418h-442l-80 -250q-33 -100 -33 -184q0 -53 12 -90h-201zM352 608h381l-190 533zM544 1536q16 16 47 43t76 63q94 76 127 97q27 -27 45.5 -43.5t28.5 -26.5q-127 -59 -289 -172z" />
<glyph unicode="&#xc2;" horiz-adv-x="1150" d="M20 0l504 1366h103l440 -1227q31 -88 74 -139h-215q6 12 6 31q0 23 -19 75l-149 418h-442l-80 -250q-33 -100 -33 -184q0 -53 12 -90h-201zM333 1480q137 39 246 170q107 -127 246 -170q-45 -45 -59 -45q-31 0 -95 37q-66 37 -92 68q-29 -31 -90 -66q-66 -39 -102 -39 q-14 0 -54 45zM352 608h381l-190 533z" />
<glyph unicode="&#xc3;" horiz-adv-x="1150" d="M20 0l504 1366h103l440 -1227q31 -88 74 -139h-215q6 12 6 31q0 23 -19 75l-149 418h-442l-80 -250q-33 -100 -33 -184q0 -53 12 -90h-201zM333 1497q4 51 40 92.5t89 41.5q45 0 123 -31q76 -31 113 -31q63 0 86 55h35q-12 -137 -133 -137q-47 0 -127 31q-96 37 -113 37 q-66 0 -78 -58h-35zM352 608h381l-190 533z" />
<glyph unicode="&#xc4;" horiz-adv-x="1150" d="M20 0l504 1366h103l440 -1227q31 -88 74 -139h-215q6 12 6 31q0 23 -19 75l-149 418h-442l-80 -250q-33 -100 -33 -184q0 -53 12 -90h-201zM352 608h381l-190 533zM375 1571q0 66 74 65q75 1 75 -65q0 -63 -75 -64q-74 0 -74 64zM647 1571q0 66 74 65q74 1 74 -65 q0 -63 -74 -64q-74 0 -74 64z" />
<glyph unicode="&#xc5;" horiz-adv-x="1150" d="M20 0l504 1366h103l440 -1227q31 -88 74 -139h-215q6 12 6 31q0 23 -19 75l-149 418h-442l-80 -250q-33 -100 -33 -184q0 -53 12 -90h-201zM352 608h381l-190 533zM430 1595q0 63 45 107.5t107 44.5q63 0 108.5 -44.5t45.5 -107.5t-45.5 -106t-108.5 -43q-61 0 -106.5 44 t-45.5 105zM486 1595q0 -41 28.5 -68.5t69.5 -27.5t68.5 28.5t27.5 67.5q0 41 -27.5 69t-68.5 28t-69.5 -28t-28.5 -69z" />
<glyph unicode="&#xc6;" horiz-adv-x="1783" d="M-41 0l895 1233q47 70 29 133h825l-22 -149q-76 63 -312 63h-338v-502h404q96 0 133 17v-119q-45 16 -133 16h-404v-606h344q303 0 404 76l-45 -162h-875q18 37 19 164v360h-437l-167 -250q-72 -111 -99 -184q-20 -55 -20 -90h-201zM508 608h375v525z" />
<glyph unicode="&#xc7;" horiz-adv-x="1306" d="M72 639q0 313 233 532q236 219 572 220q209 0 378 -80l-32 -135q-29 27 -69 48t-89 42q-111 41 -207 41q-272 0 -440 -179q-168 -176 -168 -462q0 -268 158 -439q156 -168 411 -168q258 0 447 183l-17 -160q-188 -109 -452 -109q-326 0 -527 183q-199 180 -198 483z M614 -285q14 16 25.5 31.5t22.5 32.5q43 -80 131 -80q90 0 90 61q0 43 -113 62q-104 14 -104 53q0 29 80 125h69q-63 -100 -63 -90q0 -12 75 -25q148 -22 148 -100q0 -68 -72 -104q-55 -31 -123 -31q-96 0 -166 65z" />
<glyph unicode="&#xc8;" horiz-adv-x="1062" d="M143 0q18 37 19 164v1038q0 117 -19 164h844l-22 -149q-76 63 -312 63h-338v-502h404q96 0 133 17v-119q-45 16 -133 16h-404v-606h344q303 0 404 76l-45 -162h-875zM315 1659q20 18 39 35.5t35 34.5q37 -25 125 -97q92 -74 125 -106l-35 -39q-164 113 -289 172z" />
<glyph unicode="&#xc9;" horiz-adv-x="1062" d="M143 0q18 37 19 164v1038q0 117 -19 164h844l-22 -149q-76 63 -312 63h-338v-502h404q96 0 133 17v-119q-45 16 -133 16h-404v-606h344q303 0 404 76l-45 -162h-875zM499 1536q16 16 47 43t76 63q94 76 127 97q27 -27 45.5 -43.5t28.5 -26.5q-127 -59 -289 -172z" />
<glyph unicode="&#xca;" horiz-adv-x="1062" d="M143 0q18 37 19 164v1038q0 117 -19 164h844l-22 -149q-76 63 -312 63h-338v-502h404q96 0 133 17v-119q-45 16 -133 16h-404v-606h344q303 0 404 76l-45 -162h-875zM356 1542q137 39 246 170q107 -127 246 -170q-45 -45 -59 -45q-31 0 -95 37q-66 37 -92 68 q-29 -31 -90 -66q-66 -39 -102 -39q-14 0 -54 45z" />
<glyph unicode="&#xcb;" horiz-adv-x="1062" d="M143 0q18 37 19 164v1038q0 117 -19 164h844l-22 -149q-76 63 -312 63h-338v-502h404q96 0 133 17v-119q-45 16 -133 16h-404v-606h344q303 0 404 76l-45 -162h-875zM370 1565q0 76 76 76t76 -76t-76 -76t-76 76zM647 1565q0 76 76 76q75 0 75 -76t-75 -76q-76 0 -76 76z " />
<glyph unicode="&#xcc;" horiz-adv-x="485" d="M-41 1667q20 18 38.5 35.5t35.5 34.5q37 -25 125 -97q92 -74 125 -106l-35 -39q-164 113 -289 172zM154 0q18 33 18 164v1038q0 127 -18 164h188q-18 -35 -18 -164v-1038q0 -131 18 -164h-188z" />
<glyph unicode="&#xcd;" horiz-adv-x="464" d="M143 0q18 33 19 164v1038q0 127 -19 164h189q-18 -35 -19 -164v-1038q0 -131 19 -164h-189zM203 1534q16 16 47 43t76 63q94 76 127 97q27 -27 45 -43.5t28 -26.5q-127 -59 -288 -172z" />
<glyph unicode="&#xce;" horiz-adv-x="475" d="M-7 1546q137 39 246 170q107 -127 246 -170q-45 -45 -59 -45q-31 0 -95 37q-66 37 -92 68q-29 -31 -90 -66q-66 -39 -102 -39q-14 0 -54 45zM143 0q18 33 19 164v1038q0 127 -19 164h189q-18 -35 -19 -164v-1038q0 -131 19 -164h-189z" />
<glyph unicode="&#xcf;" horiz-adv-x="477" d="M25 1552q0 76 75 76q76 0 76 -76t-76 -75q-76 0 -75 75zM139 0q18 33 19 164v1038q0 127 -19 164h189q-18 -35 -19 -164v-1038q0 -131 19 -164h-189zM301 1552q0 76 76 76t76 -76t-76 -75q-76 0 -76 75z" />
<glyph unicode="&#xd0;" horiz-adv-x="1325" d="M0 717v102h162v383q0 123 -19 164h357q342 0 536 -162q217 -174 217 -518q0 -299 -166 -479q-166 -182 -456 -203q-27 -2 -81 -3t-140 -1h-267q18 37 19 164v553h-162zM313 86h198t95 2q244 12 367 174q114 152 114 410q0 326 -163 471q-158 139 -486 139h-125v-463h285 v-102h-285v-631z" />
<glyph unicode="&#xd1;" horiz-adv-x="1312" d="M133 0q18 37 19 164v1038q0 117 -19 164h168l770 -1075l-4 911v53.5t-2 30.5q-2 23 -5 43.5t-11 36.5h131q-18 -47 -19 -164v-1229h-51l-866 1205l2 -1014q0 -127 18 -164h-131zM455 1493q4 61 38.5 110.5t86.5 49.5q47 0 120 -37q74 -37 109 -37q68 0 84 66h35 q-2 -66 -37 -113q-33 -51 -92 -51q-45 0 -125 37q-96 45 -111 45q-63 0 -76 -70h-32z" />
<glyph unicode="&#xd2;" horiz-adv-x="1505" d="M72 655q0 311 204 523q207 213 504 213q287 0 469 -195q185 -195 185 -498q0 -317 -199 -522q-197 -203 -506 -203q-295 0 -477 189q-180 186 -180 493zM244 700q0 -293 141 -467q143 -174 377 -174q493 0 493 623q0 281 -143 442q-141 164 -375 164q-225 0 -360 -160 q-133 -162 -133 -428zM462 1669q20 18 39 35.5t35 34.5q37 -25 125 -97q92 -74 125 -106l-35 -39q-164 113 -289 172z" />
<glyph unicode="&#xd3;" horiz-adv-x="1505" d="M72 655q0 311 204 523q207 213 504 213q287 0 469 -195q185 -195 185 -498q0 -317 -199 -522q-197 -203 -506 -203q-295 0 -477 189q-180 186 -180 493zM244 700q0 -293 141 -467q143 -174 377 -174q493 0 493 623q0 281 -143 442q-141 164 -375 164q-225 0 -360 -160 q-133 -162 -133 -428zM716 1532q16 16 47 43t76 63q94 76 127 97q27 -27 45.5 -43.5t28.5 -26.5q-127 -59 -289 -172z" />
<glyph unicode="&#xd4;" horiz-adv-x="1505" d="M72 655q0 311 204 523q207 213 504 213q287 0 469 -195q185 -195 185 -498q0 -317 -199 -522q-197 -203 -506 -203q-295 0 -477 189q-180 186 -180 493zM244 700q0 -293 141 -467q143 -174 377 -174q493 0 493 623q0 281 -143 442q-141 164 -375 164q-225 0 -360 -160 q-133 -162 -133 -428zM505 1546q137 39 246 170q107 -127 246 -170q-45 -45 -59 -45q-31 0 -95 37q-66 37 -92 68q-29 -31 -90 -66q-66 -39 -102 -39q-14 0 -54 45z" />
<glyph unicode="&#xd5;" horiz-adv-x="1505" d="M72 655q0 311 204 523q207 213 504 213q287 0 469 -195q185 -195 185 -498q0 -317 -199 -522q-197 -203 -506 -203q-295 0 -477 189q-180 186 -180 493zM244 700q0 -293 141 -467q143 -174 377 -174q493 0 493 623q0 281 -143 442q-141 164 -375 164q-225 0 -360 -160 q-133 -162 -133 -428zM510 1509q4 51 40 92.5t89 41.5q45 0 123 -31q76 -31 113 -31q63 0 86 55h35q-12 -137 -133 -137q-47 0 -127 31q-96 37 -113 37q-66 0 -78 -58h-35z" />
<glyph unicode="&#xd6;" horiz-adv-x="1505" d="M72 655q0 311 204 523q207 213 504 213q287 0 469 -195q185 -195 185 -498q0 -317 -199 -522q-197 -203 -506 -203q-295 0 -477 189q-180 186 -180 493zM244 700q0 -293 141 -467q143 -174 377 -174q493 0 493 623q0 281 -143 442q-141 164 -375 164q-225 0 -360 -160 q-133 -162 -133 -428zM520 1573q0 82 82 82q35 0 57.5 -23.5t22.5 -58.5t-23.5 -58.5t-56.5 -23.5q-35 0 -58.5 23.5t-23.5 58.5zM817 1573q0 82 82 82t82 -82q0 -35 -23.5 -58.5t-58.5 -23.5t-58.5 23.5t-23.5 58.5z" />
<glyph unicode="&#xd7;" horiz-adv-x="864" d="M92 174l594 594l84 -84l-594 -594zM92 682l86 86l594 -592l-88 -88z" />
<glyph unicode="&#xd8;" horiz-adv-x="1505" d="M72 655q0 311 204 523q207 213 504 213q188 0 340 -91l111 168h92l-139 -213q250 -195 250 -557q0 -317 -199 -522q-197 -203 -506 -203q-186 0 -332 78l-139 -205h-92l166 246q-260 186 -260 563zM244 700q0 -309 164 -491l639 979q-127 100 -310 100q-225 0 -360 -160 q-133 -162 -133 -428zM467 156q127 -96 295 -97q493 0 493 623q0 283 -151 453z" />
<glyph unicode="&#xd9;" horiz-adv-x="1353" d="M133 1366h193q-18 -59 -19 -164v-708q0 -434 371 -435q430 0 430 445v698q0 127 -16 164h139q-18 -41 -19 -164v-661q0 -567 -538 -568q-524 0 -524 539v690q0 131 -17 164zM415 1653q20 18 39 35.5t35 34.5q37 -25 125 -97q92 -74 125 -106l-35 -39q-164 113 -289 172z " />
<glyph unicode="&#xda;" horiz-adv-x="1353" d="M133 1366h193q-18 -59 -19 -164v-708q0 -434 371 -435q430 0 430 445v698q0 127 -16 164h139q-18 -41 -19 -164v-661q0 -567 -538 -568q-524 0 -524 539v690q0 131 -17 164zM673 1524q16 16 47 43t76 63q94 76 127 97q27 -27 45.5 -43.5t28.5 -26.5q-127 -59 -289 -172z " />
<glyph unicode="&#xdb;" horiz-adv-x="1353" d="M133 1366h193q-18 -59 -19 -164v-708q0 -434 371 -435q430 0 430 445v698q0 127 -16 164h139q-18 -41 -19 -164v-661q0 -567 -538 -568q-524 0 -524 539v690q0 131 -17 164zM462 1536q137 39 246 170q107 -127 246 -170q-45 -45 -59 -45q-31 0 -95 37q-66 37 -92 68 q-29 -31 -90 -66q-66 -39 -102 -39q-14 0 -54 45z" />
<glyph unicode="&#xdc;" horiz-adv-x="1353" d="M133 1366h193q-18 -59 -19 -164v-708q0 -434 371 -435q430 0 430 445v698q0 127 -16 164h139q-18 -41 -19 -164v-661q0 -567 -538 -568q-524 0 -524 539v690q0 131 -17 164zM479 1548q0 37 24.5 61.5t59.5 24.5t59.5 -24.5t24.5 -61.5q0 -35 -24.5 -59.5t-59.5 -24.5 t-59.5 24.5t-24.5 59.5zM786 1548q0 37 25 61.5t59 24.5q84 0 84 -86q0 -35 -23.5 -59.5t-60.5 -24.5q-35 0 -59.5 24.5t-24.5 59.5z" />
<glyph unicode="&#xdd;" horiz-adv-x="1089" d="M0 1366h225q-2 -6 -2 -23q0 -35 33 -92l317 -575l213 375q57 100 80 155q33 74 33 129q0 20 -2 31h193l-476 -780v-422q0 -115 13 -148q2 -4 6 -16h-189q6 8 7 16q10 31 10 148v422l-373 661q-23 39 -44 69t-44 50zM501 1507q16 16 47 43t76 63q94 76 127 97 q27 -27 45.5 -43.5t28.5 -26.5q-127 -59 -289 -172z" />
<glyph unicode="&#xde;" horiz-adv-x="985" d="M143 0q18 37 19 164v1038q0 117 -19 164h172v-279h162q193 0 320 -86q147 -102 147 -286q0 -170 -129 -283q-127 -113 -319 -113q-86 0 -183 33v-188q0 -127 19 -164h-189zM313 438q92 -35 176 -35q135 0 217 81t82 218q0 299 -382 299h-93v-563z" />
<glyph unicode="&#xdf;" horiz-adv-x="1101" d="M20 817v64h132v133q0 180 92 277.5t276 97.5q317 0 391 -308q-6 2 -18 2q-117 0 -205 -65q-84 -66 -84 -154q0 -98 121 -194q57 -41 112.5 -82t112.5 -82q121 -105 121 -230q0 -129 -100 -215q-102 -86 -252 -86q-156 0 -275 86l-6 144q104 -152 285 -152 q98 0 155.5 51.5t57.5 133.5q0 92 -123 188q-57 41 -113.5 84t-113.5 86q-123 106 -123 238q0 55 21.5 104t61.5 88t94 64.5t120 33.5q-25 86 -90.5 136.5t-157.5 50.5q-221 0 -221 -267v-880q0 -127 18 -164h-176q18 37 19 164v653h-132z" />
<glyph unicode="&#xe0;" horiz-adv-x="845" d="M20 190q0 141 138 240q123 88 391 184v64q0 147 -135 147q-164 0 -289 -155l-55 73q199 162 426 162q104 0 149 -44t45 -148v-381q0 -113 23 -154q31 -53 133 -94l-86 -109q-154 37 -197 189q-33 -35 -69.5 -66.5t-77.5 -58.5q-100 -63 -178 -64q-98 0 -158 58.5 t-60 156.5zM143 1157q20 18 39 35.5t35 34.5q37 -25 125 -97q92 -74 125 -106l-35 -39q-164 113 -289 172zM156 223q0 -131 131 -131q31 0 66.5 11.5t71.5 32t67.5 48t56.5 58.5v305q-96 -39 -143 -62q-78 -37 -144 -84q-106 -76 -106 -178z" />
<glyph unicode="&#xe1;" horiz-adv-x="845" d="M20 190q0 141 138 240q123 88 391 184v64q0 147 -135 147q-164 0 -289 -155l-55 73q199 162 426 162q104 0 149 -44t45 -148v-381q0 -113 23 -154q31 -53 133 -94l-86 -109q-154 37 -197 189q-33 -35 -69.5 -66.5t-77.5 -58.5q-100 -63 -178 -64q-98 0 -158 58.5 t-60 156.5zM156 223q0 -131 131 -131q31 0 66.5 11.5t71.5 32t67.5 48t56.5 58.5v305q-96 -39 -143 -62q-78 -37 -144 -84q-106 -76 -106 -178zM397 1024q16 16 47 43t76 63q94 76 127 97q27 -27 45.5 -43.5t28.5 -26.5q-127 -59 -289 -172z" />
<glyph unicode="&#xe2;" horiz-adv-x="845" d="M20 190q0 141 138 240q123 88 391 184v64q0 147 -135 147q-164 0 -289 -155l-55 73q199 162 426 162q104 0 149 -44t45 -148v-381q0 -113 23 -154q31 -53 133 -94l-86 -109q-154 37 -197 189q-33 -35 -69.5 -66.5t-77.5 -58.5q-100 -63 -178 -64q-98 0 -158 58.5 t-60 156.5zM156 223q0 -131 131 -131q31 0 66.5 11.5t71.5 32t67.5 48t56.5 58.5v305q-96 -39 -143 -62q-78 -37 -144 -84q-106 -76 -106 -178zM186 1038q137 39 246 170q107 -127 246 -170q-45 -45 -59 -45q-31 0 -95 37q-66 37 -92 68q-29 -31 -90 -66q-66 -39 -102 -39 q-14 0 -54 45z" />
<glyph unicode="&#xe3;" horiz-adv-x="845" d="M20 190q0 141 138 240q123 88 391 184v64q0 147 -135 147q-164 0 -289 -155l-55 73q199 162 426 162q104 0 149 -44t45 -148v-381q0 -113 23 -154q31 -53 133 -94l-86 -109q-154 37 -197 189q-33 -35 -69.5 -66.5t-77.5 -58.5q-100 -63 -178 -64q-98 0 -158 58.5 t-60 156.5zM156 223q0 -131 131 -131q31 0 66.5 11.5t71.5 32t67.5 48t56.5 58.5v305q-96 -39 -143 -62q-78 -37 -144 -84q-106 -76 -106 -178zM190 1003q4 51 40 92.5t89 41.5q45 0 123 -31q76 -31 113 -31q63 0 86 55h35q-12 -137 -133 -137q-47 0 -127 31q-96 37 -113 37 q-66 0 -78 -58h-35z" />
<glyph unicode="&#xe4;" horiz-adv-x="845" d="M20 190q0 141 138 240q123 88 391 184v64q0 147 -135 147q-164 0 -289 -155l-55 73q199 162 426 162q104 0 149 -44t45 -148v-381q0 -113 23 -154q31 -53 133 -94l-86 -109q-154 37 -197 189q-33 -35 -69.5 -66.5t-77.5 -58.5q-100 -63 -178 -64q-98 0 -158 58.5 t-60 156.5zM156 223q0 -131 131 -131q31 0 66.5 11.5t71.5 32t67.5 48t56.5 58.5v305q-96 -39 -143 -62q-78 -37 -144 -84q-106 -76 -106 -178zM227 1069q0 76 76 76t76 -76t-76 -76t-76 76zM504 1069q0 76 76 76q75 0 75 -76t-75 -76q-76 0 -76 76z" />
<glyph unicode="&#xe5;" horiz-adv-x="845" d="M20 190q0 141 138 240q123 88 391 184v64q0 147 -135 147q-164 0 -289 -155l-55 73q199 162 426 162q104 0 149 -44t45 -148v-381q0 -113 23 -154q31 -53 133 -94l-86 -109q-154 37 -197 189q-33 -35 -69.5 -66.5t-77.5 -58.5q-100 -63 -178 -64q-98 0 -158 58.5 t-60 156.5zM156 223q0 -131 131 -131q31 0 66.5 11.5t71.5 32t67.5 48t56.5 58.5v305q-96 -39 -143 -62q-78 -37 -144 -84q-106 -76 -106 -178zM305 1144q0 63 45 107.5t107 44.5q63 0 108.5 -44.5t45.5 -107.5t-45.5 -106t-108.5 -43q-61 0 -106.5 44t-45.5 105zM361 1144 q0 -41 28.5 -68.5t69.5 -27.5t68.5 28.5t27.5 67.5q0 41 -27.5 69t-68.5 28t-69.5 -28t-28.5 -69z" />
<glyph unicode="&#xe6;" horiz-adv-x="1349" d="M31 190q0 141 137 240q123 88 391 184v64q0 147 -135 147q-164 0 -289 -155l-55 73q199 162 426 162q160 0 186 -112q106 113 254 112q123 0 220.5 -80t140.5 -221l-598 -178q18 -168 102 -261t219 -93q133 0 260 110l39 -49q-164 -158 -362 -158q-246 0 -355 226 q-61 -86 -166 -154q-115 -72 -198 -72q-98 0 -157.5 58.5t-59.5 156.5zM166 223q0 -131 131 -131q31 0 66.5 11.5t71.5 32t68 48t56 58.5v305q-96 -39 -143 -62q-78 -37 -144 -84q-106 -76 -106 -178zM707 502l436 131q-72 203 -213 203q-98 0 -160.5 -92.5t-62.5 -241.5z " />
<glyph unicode="&#xe7;" horiz-adv-x="856" d="M72 426q0 201 125 338q125 141 307 141q201 0 317 -157l-73 -111q-84 197 -254 197q-121 0 -201 -101q-78 -102 -78 -256q0 -178 94 -293q96 -115 238 -114q141 0 254 100l35 -49q-158 -145 -349 -146q-182 0 -299 127q-117 125 -116 324zM313 -272q10 12 22.5 27.5 t22.5 31.5q45 -76 125 -76q86 0 86 60q0 43 -108 59q-98 14 -99 51q0 35 76 119h66q-4 -4 -31 -43q-29 -41 -29 -43q0 -14 72 -25q141 -22 141 -96q0 -68 -67 -100q-53 -29 -119 -29q-94 0 -158 64z" />
<glyph unicode="&#xe8;" horiz-adv-x="862" d="M72 444q0 195 112 326q113 135 275 135q123 0 220 -80t140 -221l-598 -178q18 -168 102.5 -261t219.5 -93q133 0 260 110l39 -49q-164 -158 -363 -158q-180 0 -293 131q-115 133 -114 338zM170 1157q20 18 39 35.5t35 34.5q37 -25 125 -97q92 -74 125 -106l-35 -39 q-164 113 -289 172zM219 502l436 131q-72 203 -213 203q-98 0 -160.5 -92.5t-62.5 -241.5z" />
<glyph unicode="&#xe9;" horiz-adv-x="862" d="M72 444q0 195 112 326q113 135 275 135q123 0 220 -80t140 -221l-598 -178q18 -168 102.5 -261t219.5 -93q133 0 260 110l39 -49q-164 -158 -363 -158q-180 0 -293 131q-115 133 -114 338zM219 502l436 131q-72 203 -213 203q-98 0 -160.5 -92.5t-62.5 -241.5zM423 1024 q16 16 47 43t76 63q94 76 127 97q27 -27 45.5 -43.5t28.5 -26.5q-127 -59 -289 -172z" />
<glyph unicode="&#xea;" horiz-adv-x="862" d="M72 444q0 195 112 326q113 135 275 135q123 0 220 -80t140 -221l-598 -178q18 -168 102.5 -261t219.5 -93q133 0 260 110l39 -49q-164 -158 -363 -158q-180 0 -293 131q-115 133 -114 338zM211 1038q137 39 246 170q107 -127 246 -170q-45 -45 -59 -45q-31 0 -95 37 q-66 37 -92 68q-29 -31 -90 -66q-66 -39 -102 -39q-14 0 -54 45zM219 502l436 131q-72 203 -213 203q-98 0 -160.5 -92.5t-62.5 -241.5z" />
<glyph unicode="&#xeb;" horiz-adv-x="862" d="M72 444q0 195 112 326q113 135 275 135q123 0 220 -80t140 -221l-598 -178q18 -168 102.5 -261t219.5 -93q133 0 260 110l39 -49q-164 -158 -363 -158q-180 0 -293 131q-115 133 -114 338zM219 502l436 131q-72 203 -213 203q-98 0 -160.5 -92.5t-62.5 -241.5zM244 1069 q0 76 75 76q76 0 76 -76t-76 -76t-75 76zM520 1069q0 76 76 76t76 -76t-76 -76t-76 76z" />
<glyph unicode="&#xec;" horiz-adv-x="442" d="M-27 1157q20 18 39 35.5t35 34.5q37 -25 125 -97q92 -74 125 -106l-35 -39q-164 113 -289 172zM133 0q18 37 19 164v532q0 133 -19 168l158 41v-741q0 -127 18 -164h-176z" />
<glyph unicode="&#xed;" horiz-adv-x="442" d="M133 0q18 37 19 164v532q0 133 -19 168l158 41v-741q0 -127 18 -164h-176zM159 1024q16 16 47 43t76 63q94 76 127 97q27 -27 45.5 -43.5t28.5 -26.5q-127 -59 -289 -172z" />
<glyph unicode="&#xee;" horiz-adv-x="442" d="M-27 1038q137 39 246 170q107 -127 246 -170q-45 -45 -59 -45q-31 0 -95 37q-66 37 -92 68q-29 -31 -90 -66q-66 -39 -102 -39q-14 0 -54 45zM133 0q18 37 19 164v532q0 133 -19 168l158 41v-741q0 -127 18 -164h-176z" />
<glyph unicode="&#xef;" horiz-adv-x="442" d="M10 1071q0 76 76 76t76 -76t-76 -76t-76 76zM133 0q18 37 19 164v532q0 133 -19 168l158 41v-741q0 -127 18 -164h-176zM287 1071q0 76 76 76q75 0 75 -76t-75 -76q-76 0 -76 76z" />
<glyph unicode="&#xf0;" horiz-adv-x="1005" d="M72 420q0 246 147 387q121 115 277 115q150 0 264 -105q-61 236 -195 395l-223 -172l-47 52l223 172q-119 119 -272 159l86 54q160 -53 268 -150l197 154l47 -51l-193 -150q156 -150 230 -381q53 -165 53 -321q0 -297 -131 -455q-119 -150 -324 -150q-186 0 -299 131 q-109 127 -108 316zM211 459q0 -166 72 -281q84 -133 235 -133q135 0 213 127q64 106 64 266q0 166 -72 281q-86 133 -238 133q-143 0 -215 -127q-59 -106 -59 -266z" />
<glyph unicode="&#xf1;" horiz-adv-x="987" d="M123 0q18 37 18 164v532q0 133 -18 168l158 41v-137q199 137 352 137q137 0 186 -96q37 -68 37 -219v-426q0 -109 18 -164h-176q8 33 12.5 73t4.5 91v426q0 100 -23 149q-33 70 -129 70q-121 0 -282 -125v-520q0 -125 20 -164h-178zM256 1044q4 51 40 92.5t89 41.5 q45 0 123 -31q76 -31 113 -31q63 0 86 55h35q-12 -137 -133 -137q-47 0 -127 31q-96 37 -113 37q-66 0 -78 -58h-35z" />
<glyph unicode="&#xf2;" horiz-adv-x="1015" d="M72 422q0 205 129 344t317 139q186 0 305 -131q121 -131 121 -330q0 -205 -129 -335q-127 -133 -323 -134q-182 0 -302 125q-119 125 -118 322zM217 1157q20 18 39 35.5t35 34.5q37 -25 125 -97q92 -74 125 -106l-35 -39q-164 113 -289 172zM223 483q0 -188 86 -313 t217 -125q125 0 195 86t70 240q0 203 -89 334q-90 133 -219 133q-119 0 -189.5 -96.5t-70.5 -258.5z" />
<glyph unicode="&#xf3;" horiz-adv-x="1015" d="M72 422q0 205 129 344t317 139q186 0 305 -131q121 -131 121 -330q0 -205 -129 -335q-127 -133 -323 -134q-182 0 -302 125q-119 125 -118 322zM223 483q0 -188 86 -313t217 -125q125 0 195 86t70 240q0 203 -89 334q-90 133 -219 133q-119 0 -189.5 -96.5t-70.5 -258.5z M473 1024q16 16 47 43t76 63q94 76 127 97q27 -27 45.5 -43.5t28.5 -26.5q-127 -59 -289 -172z" />
<glyph unicode="&#xf4;" horiz-adv-x="1015" d="M72 422q0 205 129 344t317 139q186 0 305 -131q121 -131 121 -330q0 -205 -129 -335q-127 -133 -323 -134q-182 0 -302 125q-119 125 -118 322zM223 483q0 -188 86 -313t217 -125q125 0 195 86t70 240q0 203 -89 334q-90 133 -219 133q-119 0 -189.5 -96.5t-70.5 -258.5z M262 1038q137 39 246 170q107 -127 246 -170q-45 -45 -59 -45q-31 0 -95 37q-66 37 -92 68q-29 -31 -90 -66q-66 -39 -102 -39q-14 0 -54 45z" />
<glyph unicode="&#xf5;" horiz-adv-x="1015" d="M72 422q0 205 129 344t317 139q186 0 305 -131q121 -131 121 -330q0 -205 -129 -335q-127 -133 -323 -134q-182 0 -302 125q-119 125 -118 322zM223 483q0 -188 86 -313t217 -125q125 0 195 86t70 240q0 203 -89 334q-90 133 -219 133q-119 0 -189.5 -96.5t-70.5 -258.5z M266 1003q4 51 40 92.5t89 41.5q45 0 123 -31q76 -31 113 -31q63 0 86 55h35q-12 -137 -133 -137q-47 0 -127 31q-96 37 -113 37q-66 0 -78 -58h-35z" />
<glyph unicode="&#xf6;" horiz-adv-x="1015" d="M72 422q0 205 129 344t317 139q186 0 305 -131q121 -131 121 -330q0 -205 -129 -335q-127 -133 -323 -134q-182 0 -302 125q-119 125 -118 322zM223 483q0 -188 86 -313t217 -125q125 0 195 86t70 240q0 203 -89 334q-90 133 -219 133q-119 0 -189.5 -96.5t-70.5 -258.5z M294 1071q0 76 76 76t76 -76t-76 -76t-76 76zM571 1071q0 76 76 76q75 0 75 -76t-75 -76q-76 0 -76 76z" />
<glyph unicode="&#xf7;" horiz-adv-x="1062" d="M94 383v106h875v-106h-875zM446 166q0 82 84 82t84 -82t-84 -82t-84 82zM449 707q0 82 83 81q84 1 84 -81t-84 -82t-83 82z" />
<glyph unicode="&#xf8;" horiz-adv-x="1015" d="M72 422q0 205 129 344t317 139q121 0 215 -57l68 108h80l-93 -147q156 -132 156 -365q0 -205 -129 -335q-127 -133 -323 -134q-109 0 -199 48l-72 -115h-80l95 151q-164 127 -164 363zM223 483q0 -186 84 -311l363 576q-80 90 -187 90q-119 0 -189.5 -96.5t-70.5 -258.5z M354 119q74 -74 172 -74q125 0 195 86t70 240q0 186 -78 317z" />
<glyph unicode="&#xf9;" horiz-adv-x="1024" d="M113 870l157 41v-618q0 -123 35 -171t121 -48q121 0 283 125q-2 14 -3 29.5t-1 31.5v442q0 139 -17 168l158 41v-579q0 -113 28 -160q33 -55 130 -88l-89 -109q-137 39 -186 156q-211 -156 -362 -156q-236 0 -236 267v460q0 133 -18 168zM200 1157q20 18 39 35.5t35 34.5 q37 -25 125 -97q92 -74 125 -106l-35 -39q-164 113 -289 172z" />
<glyph unicode="&#xfa;" horiz-adv-x="1024" d="M113 870l157 41v-618q0 -123 35 -171t121 -48q121 0 283 125q-2 14 -3 29.5t-1 31.5v442q0 139 -17 168l158 41v-579q0 -113 28 -160q33 -55 130 -88l-89 -109q-137 39 -186 156q-211 -156 -362 -156q-236 0 -236 267v460q0 133 -18 168zM444 1024q16 16 47 43t76 63 q94 76 127 97q27 -27 45.5 -43.5t28.5 -26.5q-127 -59 -289 -172z" />
<glyph unicode="&#xfb;" horiz-adv-x="1024" d="M113 870l157 41v-618q0 -123 35 -171t121 -48q121 0 283 125q-2 14 -3 29.5t-1 31.5v442q0 139 -17 168l158 41v-579q0 -113 28 -160q33 -55 130 -88l-89 -109q-137 39 -186 156q-211 -156 -362 -156q-236 0 -236 267v460q0 133 -18 168zM241 1038q137 39 246 170 q107 -127 246 -170q-45 -45 -59 -45q-31 0 -95 37q-66 37 -92 68q-29 -31 -90 -66q-66 -39 -102 -39q-14 0 -54 45z" />
<glyph unicode="&#xfc;" horiz-adv-x="1024" d="M113 870l157 41v-618q0 -123 35 -171t121 -48q121 0 283 125q-2 14 -3 29.5t-1 31.5v442q0 139 -17 168l158 41v-579q0 -113 28 -160q33 -55 130 -88l-89 -109q-137 39 -186 156q-211 -156 -362 -156q-236 0 -236 267v460q0 133 -18 168zM274 1071q0 76 76 76t76 -76 t-76 -76t-76 76zM551 1071q0 76 76 76q75 0 75 -76t-75 -76q-76 0 -76 76z" />
<glyph unicode="&#xfd;" horiz-adv-x="827" d="M-10 881h215q-16 -35 12 -99l244 -587q203 428 209 598q4 53 -23 88h180q-6 -18 -18 -51t-29 -80q-92 -246 -276 -639q-45 -98 -115 -241.5t-166 -336.5l-188 -22q201 201 346 530l-318 733q-33 78 -73 107zM391 1024q16 16 47 43t76 63q94 76 127 97q27 -27 45.5 -43.5 t28.5 -26.5q-127 -59 -289 -172z" />
<glyph unicode="&#xfe;" horiz-adv-x="1021" d="M133 -459q18 45 19 164v1464q0 127 -19 150l158 41v-592q164 137 313 137q154 0 250 -121q96 -120 96 -313q0 -219 -125 -356q-127 -139 -319 -140q-115 0 -215 66v-336q0 -117 20 -164h-178zM291 129q98 -80 213 -80q137 0 216 98.5t79 272.5q0 168 -72 271.5 t-195 103.5q-117 0 -241 -115v-551z" />
<glyph unicode="&#xff;" horiz-adv-x="827" d="M-10 881h215q-16 -35 12 -99l244 -587q203 428 209 598q4 53 -23 88h180q-6 -18 -18 -51t-29 -80q-92 -246 -276 -639q-45 -98 -115 -241.5t-166 -336.5l-188 -22q201 201 346 530l-318 733q-33 78 -73 107zM225 1114q0 76 76 76t76 -76t-76 -76t-76 76zM502 1114 q0 76 76 76q75 0 75 -76t-75 -76q-76 0 -76 76z" />
<glyph unicode="&#x152;" horiz-adv-x="2154" d="M72 655q0 309 202 523q203 213 496 213q162 0 307 -84q127 -78 176 -172v67q0 117 -18 164h844l-23 -149q-76 63 -311 63h-338v-502h403q96 0 134 17v-119q-45 16 -134 16h-403v-606h344q303 0 403 76l-45 -162h-874q18 37 18 164v59q-184 -250 -524 -250 q-295 0 -477 189q-180 186 -180 493zM244 700q0 -293 141 -467q143 -174 377 -174q250 0 375 150q117 137 116 393v143q0 250 -139 396q-139 147 -360 147q-223 0 -367 -162q-143 -162 -143 -426z" />
<glyph unicode="&#x153;" horiz-adv-x="1579" d="M72 422q0 205 129 344t317 139q229 0 346 -186q113 186 312 186q123 0 220 -80t140 -221l-598 -178q18 -168 102 -261t220 -93q133 0 260 110l39 -49q-164 -158 -363 -158q-223 0 -336 193q-125 -193 -368 -193q-182 0 -302 125q-119 125 -118 322zM223 483 q0 -188 86 -313t217 -125q265 0 265 354q0 152 -72 283q-88 156 -236 156q-119 0 -189.5 -96.5t-70.5 -258.5zM936 502l436 131q-72 203 -213 203q-98 0 -160.5 -92.5t-62.5 -241.5z" />
<glyph unicode="&#x178;" horiz-adv-x="1089" d="M0 1366h225q-2 -6 -2 -23q0 -35 33 -92l317 -575l213 375q57 100 80 155q33 74 33 129q0 20 -2 31h193l-476 -780v-422q0 -115 13 -148q2 -4 6 -16h-189q6 8 7 16q10 31 10 148v422l-373 661q-23 39 -44 69t-44 50zM348 1524q0 76 76 76t76 -76t-76 -76t-76 76zM625 1524 q0 76 76 76q75 0 75 -76t-75 -76q-76 0 -76 76z" />
<glyph unicode="&#x2c6;" horiz-adv-x="614" d="M61 1038q137 39 246 170q107 -127 246 -170q-45 -45 -59 -45q-31 0 -95 37q-66 37 -92 68q-29 -31 -90 -66q-66 -39 -102 -39q-14 0 -54 45z" />
<glyph unicode="&#x2dc;" horiz-adv-x="608" d="M61 1044q4 51 40 92.5t89 41.5q45 0 123 -31q76 -31 113 -31q63 0 86 55h35q-12 -137 -133 -137q-47 0 -127 31q-96 37 -113 37q-66 0 -78 -58h-35z" />
<glyph unicode="&#x2000;" horiz-adv-x="873" />
<glyph unicode="&#x2001;" horiz-adv-x="1747" />
<glyph unicode="&#x2002;" horiz-adv-x="873" />
<glyph unicode="&#x2003;" horiz-adv-x="1747" />
<glyph unicode="&#x2004;" horiz-adv-x="582" />
<glyph unicode="&#x2005;" horiz-adv-x="436" />
<glyph unicode="&#x2006;" horiz-adv-x="291" />
<glyph unicode="&#x2007;" horiz-adv-x="291" />
<glyph unicode="&#x2008;" horiz-adv-x="218" />
<glyph unicode="&#x2009;" horiz-adv-x="349" />
<glyph unicode="&#x200a;" horiz-adv-x="97" />
<glyph unicode="&#x2010;" horiz-adv-x="663" d="M61 535l66 131h264q68 0 120 3t91 7l-65 -133h-328q-109 0 -148 -8z" />
<glyph unicode="&#x2011;" horiz-adv-x="663" d="M61 535l66 131h264q68 0 120 3t91 7l-65 -133h-328q-109 0 -148 -8z" />
<glyph unicode="&#x2012;" horiz-adv-x="663" d="M61 535l66 131h264q68 0 120 3t91 7l-65 -133h-328q-109 0 -148 -8z" />
<glyph unicode="&#x2013;" horiz-adv-x="997" d="M61 535l66 131h598q68 0 120 3t91 7l-66 -133h-661q-109 0 -148 -8z" />
<glyph unicode="&#x2014;" horiz-adv-x="1214" d="M61 535l66 131h815q70 0 123 3t88 7l-66 -133h-878q-109 0 -148 -8z" />
<glyph unicode="&#x2018;" horiz-adv-x="339" d="M51 1221q0 76 37 123t96 47q45 0 75 -28t30 -69q0 -39 -26.5 -66.5t-67.5 -27.5q-35 0 -56 21q-8 -25 -8 -50q0 -115 123 -200l-29 -37q-174 106 -174 287z" />
<glyph unicode="&#x2019;" horiz-adv-x="339" d="M51 1294q0 41 30 69t75 28q59 0 96 -47t37 -123q0 -178 -176 -287l-29 37q123 82 123 200q0 33 -8 50q-20 -20 -56 -21q-39 0 -65.5 27.5t-26.5 66.5z" />
<glyph unicode="&#x201a;" horiz-adv-x="360" d="M61 70q0 41 30 69.5t75 28.5q59 0 96 -47t37 -125q0 -180 -174 -287l-29 37q121 90 121 201q0 27 -6 51q-29 -23 -55 -23q-39 0 -67 28t-28 67z" />
<glyph unicode="&#x201c;" horiz-adv-x="616" d="M51 1221q0 76 37 123t96 47q45 0 75 -28t30 -69q0 -39 -26.5 -66.5t-67.5 -27.5q-35 0 -56 21q-8 -25 -8 -50q0 -115 123 -200l-29 -37q-174 106 -174 287zM328 1221q0 76 36.5 123t96.5 47q45 0 74.5 -28t29.5 -69q0 -39 -26.5 -66.5t-65.5 -27.5q-35 0 -55 21 q-8 -16 -8 -50q0 -119 122 -200l-28 -37q-176 109 -176 287z" />
<glyph unicode="&#x201d;" horiz-adv-x="616" d="M51 1294q0 41 30 69t75 28q59 0 96 -47t37 -123q0 -178 -176 -287l-29 37q123 82 123 200q0 33 -8 50q-20 -20 -56 -21q-39 0 -65.5 27.5t-26.5 66.5zM328 1294q0 41 29.5 69t74.5 28q59 0 96 -47t37 -123q0 -180 -174 -287l-29 37q123 86 123 200q0 25 -8 50 q-20 -20 -55 -21q-39 0 -66.5 27.5t-27.5 66.5z" />
<glyph unicode="&#x201e;" horiz-adv-x="636" d="M61 70q0 41 30 68.5t75 27.5q59 0 96 -47t37 -123q0 -178 -176 -287l-29 37q123 82 123 201q0 33 -8 49q-20 -20 -55 -21q-39 0 -66 28t-27 67zM338 70q0 41 29.5 68.5t74.5 27.5q59 0 96 -47t37 -123q0 -180 -174 -287l-28 37q123 86 123 201q0 25 -9 49 q-20 -20 -55 -21q-39 0 -66.5 28t-27.5 67z" />
<glyph unicode="&#x2022;" horiz-adv-x="1097" d="M389 696q0 63 47 107.5t113 44.5q68 0 114 -44.5t46 -107.5t-46.5 -108t-111.5 -45q-68 0 -115 45t-47 108z" />
<glyph unicode="&#x2026;" horiz-adv-x="1083" d="M61 80q0 43 30 72.5t73 29.5q45 0 74.5 -29.5t29.5 -72.5q0 -45 -30.5 -75t-73.5 -30t-73 31t-30 74zM438 80q0 43 30 72.5t73 29.5q45 0 74.5 -29.5t29.5 -72.5q0 -45 -30.5 -75t-73.5 -30t-73 31t-30 74zM815 80q0 43 29.5 72.5t73.5 29.5q45 0 74.5 -29.5t29.5 -72.5 q0 -45 -30.5 -75t-73.5 -30t-73 31t-30 74z" />
<glyph unicode="&#x202f;" horiz-adv-x="349" />
<glyph unicode="&#x2039;" horiz-adv-x="497" d="M61 715q233 145 318 360h57q-39 -207 -180 -360q131 -143 180 -389h-57q-94 250 -318 389z" />
<glyph unicode="&#x203a;" horiz-adv-x="497" d="M61 326q49 246 181 389q-137 150 -181 360h58q84 -215 317 -360q-223 -139 -317 -389h-58z" />
<glyph unicode="&#x205f;" horiz-adv-x="436" />
<glyph unicode="&#x20ac;" horiz-adv-x="847" d="M55 752l35 79h49v35q0 16 1 30.5t3 29.5h-88l35 80h70q18 63 54 116.5t84 91t105.5 58t118.5 20.5q178 0 283 -141l-66 -98q-72 176 -225 176q-88 0 -151.5 -61.5t-86.5 -161.5h383l-34 -80h-359v-15q0 -41 6 -80h316l-35 -79h-258q76 -203 266 -203q123 0 225 90l31 -43 q-141 -129 -309 -129q-131 0 -227.5 78t-128.5 207h-97z" />
<glyph unicode="&#x2122;" horiz-adv-x="1265" d="M0 1274l27 92h477l26 -92q-66 43 -194 43h-29v-445q0 -51 15 -73h-109q10 41 10 73v445h-26q-135 0 -197 -43zM594 799q12 20 12 73v420q0 47 -10 74h102l209 -444l215 444h103q-12 -29 -13 -74v-420q0 -53 13 -73h-111q14 23 14 73v371l-219 -444h-35l-208 442l2 -369 q0 -16 10 -73h-84z" />
<glyph unicode="&#x25fc;" horiz-adv-x="880" d="M0 0v881h881v-881h-881z" />
<glyph unicode="&#xfb01;" horiz-adv-x="851" d="M20 817v64h132v129q0 102 6 139q8 76 49 129q82 111 264 111q131 0 197 -52l-25 -106q-53 96 -174 96t-154 -80q-23 -55 -22 -188v-178h258q121 0 149 24v-741q0 -127 19 -164h-176q18 37 18 164v653h-268v-653q0 -125 20 -164h-180q18 37 19 164v653h-132z" />
<glyph unicode="&#xfb02;" horiz-adv-x="851" d="M20 817v64h132v129q0 102 6 139q8 76 49 129q82 111 242 111q49 0 108 -25q57 -25 74 -25q49 0 69 27v-1202q0 -127 19 -164h-176q16 37 16 164v1120q-49 43 -113 43q-98 0 -131 -80q-23 -55 -22 -188v-178h186v-64h-186v-653q0 -125 20 -164h-180q18 37 19 164v653h-132 z" />
</font>
</defs>
</svg>
